<?xml version="1.0" encoding="iso-8859-1"?>
<!-- Generator: Adobe Illustrator 19.0.0, SVG Export Plug-In . SVG Version: 6.00 Build 0)  -->
<svg version="1.1" id="Layer_1" xmlns="http://www.w3.org/2000/svg" xmlns:xlink="http://www.w3.org/1999/xlink" x="0px" y="0px"
	 viewBox="0 0 512 512" style="enable-background:new 0 0 512 512;" xml:space="preserve">
<g>
	<path style="fill:#D5DCED;" d="M164.571,228.571c-15.148,0-27.429,12.28-27.429,27.429c0,4.531,1.203,8.741,3.148,12.506
		c-12.621,5.766-21.434,18.426-21.434,33.208c0,20.198,16.373,36.571,36.571,36.571h54.857V228.571H164.571z"/>
	<path style="fill:#D5DCED;" d="M347.429,228.571c15.148,0,27.429,12.28,27.429,27.429c0,4.531-1.203,8.741-3.148,12.506
		c12.621,5.766,21.434,18.426,21.434,33.208c0,20.198-16.373,36.571-36.571,36.571h-54.857V228.571H347.429z"/>
</g>
<path style="fill:#FF507D;" d="M376.05,329.739l-64.228-32.114c-6.195-3.098-10.108-9.429-10.108-16.355h-91.429
	c0,6.926-3.913,13.258-10.108,16.355l-64.228,32.114c-21.682,10.841-35.378,33.002-35.378,57.243v115.874
	c0,5.049,4.093,9.143,9.143,9.143h292.571c5.049,0,9.143-4.093,9.143-9.143V386.983C411.429,362.741,397.732,340.581,376.05,329.739
	z"/>
<path style="fill:#FAD098;" d="M256,338.286c28.411,0,53.795-12.96,70.564-33.29l-14.742-7.371
	c-6.195-3.098-10.108-9.429-10.108-16.355h-91.429c0,6.926-3.913,13.258-10.108,16.355l-14.742,7.371
	C202.205,325.325,227.589,338.286,256,338.286z"/>
<path style="fill:#D7AF7D;" d="M301.714,281.27h-91.429c0,6.476-3.509,12.326-9.018,15.605
	c15.806,8.537,33.613,13.616,52.515,13.962l2.218,0.02c19.916,0,38.671-4.982,55.177-13.676
	C305.391,293.967,301.714,287.93,301.714,281.27z"/>
<ellipse style="fill:#E4EAF8;" cx="256" cy="123.43" rx="128" ry="123.43"/>
<path style="fill:#D5DCED;" d="M210.286,114.286c0-49.2,29.927-91.55,73.118-111.379C274.567,1.046,265.416,0,256,0
	c-70.693,0-128,55.261-128,123.429c0,68.167,57.307,123.429,128,123.429c19.67,0,38.23-4.405,54.882-12.049
	C253.371,222.699,210.286,173.374,210.286,114.286z"/>
<path style="fill:#FFE1B4;" d="M205.012,114.647c-7.633,6.855-22.644,19.314-38.958,27.252c-6.412,3.12-10.626,9.44-10.626,16.571
	v30.195c0,55.375,43.322,102.876,98.688,103.889c56.406,1.032,102.455-44.383,102.455-100.554
	c0-61.561-93.051-46.989-140.828-78.336C212.394,111.467,207.992,111.971,205.012,114.647z"/>
<path style="fill:#FAD098;" d="M210.286,192v-79.669c-1.908,0.177-3.771,0.967-5.273,2.316
	c-7.633,6.855-22.643,19.314-38.958,27.252c-6.412,3.12-10.626,9.44-10.626,16.571v30.195c0,55.375,43.322,102.876,98.688,103.89
	c10.218,0.187,20.079-1.194,29.406-3.843C241.28,276.79,210.286,238.056,210.286,192z"/>
<path style="fill:#D7AF7D;" d="M256,246.857c-12.625,0-24.429-3.987-33.232-11.223c-3.902-3.205-4.464-8.969-1.259-12.871
	c3.196-3.888,8.964-4.46,12.866-1.254c10.929,8.973,32.321,8.973,43.25,0c3.902-3.205,9.67-2.634,12.866,1.254
	c3.205,3.902,2.643,9.665-1.259,12.871C280.429,242.871,268.625,246.857,256,246.857z"/>
<path style="fill:#7F8499;" d="M274.296,192c-2.938,0-5.813-1.411-7.58-4.022c-4.268-6.321-17.161-6.321-21.429,0
	c-2.821,4.174-8.518,5.281-12.688,2.455c-4.188-2.83-5.286-8.513-2.455-12.696c5.571-8.246,15.241-13.165,25.857-13.165
	c10.616,0,20.286,4.92,25.857,13.165c2.83,4.183,1.732,9.866-2.455,12.696C277.839,191.491,276.054,192,274.296,192z"/>
<g>
	<path style="fill:#D23C69;" d="M157.96,401.984l-40.604-58.005c-10.55,11.589-16.785,26.786-16.785,43.003v115.874
		c0,5.049,4.093,9.143,9.143,9.143h54.857v-89.043C164.571,415.453,162.263,408.131,157.96,401.984z"/>
	<path style="fill:#D23C69;" d="M354.039,401.985l40.604-58.005c10.55,11.589,16.785,26.786,16.785,43.003v115.874
		c0,5.049-4.093,9.143-9.143,9.143h-54.857v-89.044C347.429,415.453,349.737,408.132,354.039,401.985z"/>
	<path style="fill:#D23C69;" d="M256,384c46.263,0,87.164-23.088,112.014-58.278l-16.595-8.298
		c-21.674,29.229-56.32,48.291-95.419,48.291s-73.745-19.062-95.419-48.291l-16.595,8.298C168.836,360.912,209.737,384,256,384z"/>
</g>
<g>
	<path style="fill:#959CB5;" d="M210.286,219.429c-20.17,0-36.571-16.406-36.571-36.571s16.402-36.571,36.571-36.571
		s36.571,16.406,36.571,36.571S230.455,219.429,210.286,219.429z M210.286,164.571c-10.08,0-18.286,8.201-18.286,18.286
		s8.205,18.286,18.286,18.286c10.08,0,18.286-8.201,18.286-18.286S220.366,164.571,210.286,164.571z"/>
	<path style="fill:#959CB5;" d="M301.714,219.429c-20.17,0-36.571-16.406-36.571-36.571s16.402-36.571,36.571-36.571
		s36.571,16.406,36.571,36.571S321.884,219.429,301.714,219.429z M301.714,164.571c-10.08,0-18.286,8.201-18.286,18.286
		s8.205,18.286,18.286,18.286S320,192.942,320,182.857S311.796,164.571,301.714,164.571z"/>
</g>
<g>
	<path style="fill:#64463C;" d="M210.286,192c-5.054,0-9.143-4.094-9.143-9.143v-3.429c0-5.049,4.089-9.143,9.143-9.143
		s9.143,4.094,9.143,9.143v3.429C219.429,187.906,215.339,192,210.286,192z"/>
	<path style="fill:#64463C;" d="M301.714,192c-5.054,0-9.143-4.094-9.143-9.143v-3.429c0-5.049,4.089-9.143,9.143-9.143
		c5.054,0,9.143,4.094,9.143,9.143v3.429C310.857,187.906,306.768,192,301.714,192z"/>
</g>
<g>
</g>
<g>
</g>
<g>
</g>
<g>
</g>
<g>
</g>
<g>
</g>
<g>
</g>
<g>
</g>
<g>
</g>
<g>
</g>
<g>
</g>
<g>
</g>
<g>
</g>
<g>
</g>
<g>
</g>
</svg>
