<svg height="512pt" viewBox="-7 0 511 512" width="512pt" xmlns="http://www.w3.org/2000/svg"><path d="m328.25 436.375c12.394531 16.511719 27.4375 43.234375 27.4375 75.625h-214.183594c0-32.394531 15.042969-59.113281 27.4375-75.625zm0 0" fill="#43596b"/><path d="m469.863281 261.4375c1.378907-10.390625 2.09375-20.945312 2.09375-31.617188 0-25.347656-3.964843-50.074218-11.566406-73.433593l-211.796875-50.316407-211.792969 50.316407c-7.601562 23.363281-11.566406 48.085937-11.566406 73.433593 0 10.671876.714844 21.226563 2.09375 31.617188zm0 0" fill="#ff8892"/><path d="m484.015625 261.4375c0 23.558594-19.097656 42.65625-42.65625 42.65625-23.554687 0-42.652344-19.097656-42.652344-42.65625 0-23.554688 19.097657-42.652344 42.652344-42.652344 23.558594 0 42.65625 19.097656 42.65625 42.652344zm0 0" fill="#ffc395"/><path d="m312.199219 418.25h-127.207031s-7.375 6.558594-16.050782 18.125c0 0 20.582032 33.011719 59.640625 46.4375l20.011719-3.53125 20.015625 3.53125c39.0625-13.425781 59.640625-46.4375 59.640625-46.4375-8.679688-11.570312-16.050781-18.125-16.050781-18.125zm0 0" fill="#e5e8ec"/><path d="m248.59375 487.523438c7.136719-.933594 13.808594-2.578126 20.015625-4.710938 0-14.398438-8.191406-31.933594-8.191406-31.933594h-23.644531s-8.191407 17.53125-8.191407 31.933594c6.207031 2.132812 12.878907 3.777344 20.011719 4.710938zm0 0" fill="#ff5754"/><path d="m248.59375 398.28125c-9.339844 0-16.914062 7.570312-16.914062 16.914062v23.589844c0 9.34375 7.574218 16.917969 16.914062 16.917969 9.34375 0 16.917969-7.574219 16.917969-16.917969v-23.589844c0-9.34375-7.574219-16.914062-16.917969-16.914062zm0 0" fill="#ff8892"/><path d="m441.359375 229.820312c0-110.214843-86.300781-199.5625-192.765625-199.5625-106.460938 0-192.765625 89.347657-192.765625 199.5625 0 110.21875 86.304687 199.566407 192.765625 199.566407 106.464844 0 192.765625-89.347657 192.765625-199.566407zm0 0" fill="#ffd2b0"/><path d="m86.734375 229.820312c0-104.828124 78.078125-190.773437 177.3125-198.925781-5.097656-.417969-10.25-.636719-15.453125-.636719-102.882812 0-186.9375 83.449219-192.464844 188.535157-.101562 0-.195312-.007813-.300781-.007813-23.554687 0-42.652344 19.097656-42.652344 42.65625 0 23.554688 19.097657 42.652344 42.652344 42.652344 4.933594 0 9.207031-.847656 12.898437-2.382812 27.871094 74.691406 97.886719 127.675781 179.867188 127.675781 5.203125 0 10.355469-.21875 15.453125-.636719-99.234375-8.152344-177.3125-94.097656-177.3125-198.929688zm0 0" fill="#ffc395"/><path d="m484.550781 0h-471.910156c-6.707031 0-12.140625 5.433594-12.140625 12.140625v31.472656c0 6.707031 5.433594 12.140625 12.140625 12.140625h24.160156l211.792969 22.441406 211.792969-22.441406h24.164062c6.703125 0 12.140625-5.433594 12.140625-12.140625v-31.472656c0-6.707031-5.4375-12.140625-12.140625-12.140625zm0 0" fill="#43596b"/><path d="m343.164062 261.828125c-4.265624 0-7.726562-3.457031-7.726562-7.726563v-17.253906c0-4.269531 3.460938-7.726562 7.726562-7.726562 4.269532 0 7.726563 3.457031 7.726563 7.726562v17.253906c0 4.269532-3.457031 7.726563-7.726563 7.726563zm0 0" fill="#2d3c50"/><path d="m355.6875 288.855469h-25.046875c-4.265625 0-7.726563-3.457031-7.726563-7.726563 0-4.265625 3.460938-7.726562 7.726563-7.726562h25.046875c4.265625 0 7.726562 3.460937 7.726562 7.726562 0 4.269532-3.460937 7.726563-7.726562 7.726563zm0 0" fill="#ff8892"/><path d="m154.027344 261.828125c-4.269532 0-7.726563-3.457031-7.726563-7.726563v-17.253906c0-4.269531 3.457031-7.726562 7.726563-7.726562 4.265625 0 7.726562 3.457031 7.726562 7.726562v17.253906c0 4.269532-3.460937 7.726563-7.726562 7.726563zm0 0" fill="#2d3c50"/><path d="m166.546875 288.855469h-25.042969c-4.265625 0-7.726562-3.457031-7.726562-7.726563 0-4.265625 3.460937-7.726562 7.726562-7.726562h25.042969c4.269531 0 7.726563 3.460937 7.726563 7.726562 0 4.269532-3.457032 7.726563-7.726563 7.726563zm0 0" fill="#ff8892"/><path d="m248.59375 287.816406c-8.820312 0-17.105469-3.6875-22.730469-10.125-2.808593-3.210937-2.480469-8.09375.734375-10.902344 3.210938-2.808593 8.089844-2.480468 10.902344.734376 2.6875 3.078124 6.734375 4.839843 11.09375 4.839843 4.363281 0 8.410156-1.761719 11.097656-4.839843 2.808594-3.214844 7.691406-3.542969 10.902344-.734376 3.214844 2.808594 3.542969 7.691407.734375 10.902344-5.625 6.4375-13.910156 10.125-22.734375 10.125zm0 0" fill="#2d3c50"/><path d="m36.800781 55.753906h423.589844v100.632813h-423.589844zm0 0" fill="#43596b"/><path d="m36.800781 55.753906h423.589844v31.082032h-423.589844zm0 0" fill="#2d3c50"/></svg>