<svg viewBox="-3 0 511 511.99994" xmlns="http://www.w3.org/2000/svg"><path d="m129.898438 289.234375v199.515625l-25.242188 8.414062c-3.988281 1.328126-6.140625 5.640626-4.8125 9.628907s5.640625 6.144531 9.625 4.8125l30.445312-10.148438c3.109376-1.035156 5.203126-3.945312 5.203126-7.21875v-205.003906zm0 0" fill="#fff0d3"/><path d="m206.011719 289.234375v199.515625l25.242187 8.414062c3.988282 1.328126 6.140625 5.640626 4.8125 9.628907s-5.640625 6.144531-9.628906 4.8125l-30.441406-10.148438c-3.109375-1.035156-5.207032-3.945312-5.207032-7.21875v-205.003906zm0 0" fill="#ffd9d4"/><path d="m504.894531 289.242188-60.894531-45.671876 30.449219 76.117188h30.445312zm0 0" fill="#85453d"/><path d="m474.449219 319.6875h-473.949219v-30.445312l15.222656-45.671876h458.726563zm0 0" fill="#a45e43"/><path d="m474.449219 289.242188-121.785157-152.234376 121.785157-137.007812h30.445312v289.242188zm0 0" fill="#869e47"/><path d="m.5 0h473.949219v289.242188h-473.949219zm0 0" fill="#9db55f"/><path d="m259.292969 114.171875c4.203125 0 7.613281 3.410156 7.613281 7.613281v35.519532h-15.222656v-35.519532c0-4.203125 3.40625-7.613281 7.609375-7.613281zm0 0" fill="#fff"/><path d="m274.515625 180.140625c4.199219 0 7.613281-3.414063 7.613281-7.609375 0-4.199219-3.414062-7.613281-7.613281-7.613281h-15.222656c-4.203125 0-7.609375-3.40625-7.609375-7.613281 0-4.203126 3.40625-7.609376 7.609375-7.609376h15.222656c12.59375 0 22.835937 10.242188 22.835937 22.835938 0 12.589844-10.242187 22.832031-22.835937 22.832031h-121.785156v-15.222656zm0 0" fill="#ffd9d4"/><path d="m193.328125 167.453125h-30.449219v121.789063h50.746094v-101.488282c0-11.210937-9.085938-20.300781-20.296875-20.300781zm0 0" fill="#084f6d"/><path d="m122.285156 180.140625c-46.167968 0-83.726562-37.558594-83.726562-83.726563 0-4.207031-3.40625-7.613281-7.613282-7.613281-4.203124 0-7.609374 3.40625-7.609374 7.613281 0 54.5625 44.386718 98.949219 98.949218 98.949219h45.667969v-15.222656zm0 0" fill="#fff0d3"/><path d="m162.878906 167.453125h-20.296875c-11.210937 0-20.296875 9.089844-20.296875 20.300781v101.488282h60.894532v-101.488282c0-11.210937-9.089844-20.300781-20.300782-20.300781zm0 0" fill="#116f97"/><path d="m213.625 258.792969h-30.445312l15.222656 91.339843h30.445312v-51.082031c0-15.4375-5.753906-29.523437-15.222656-40.257812zm0 0" fill="#ffa754"/><path d="m183.179688 258.792969h-60.894532c-9.46875 10.734375-15.222656 24.820312-15.222656 40.257812v51.082031h91.339844v-51.082031c0-15.4375-5.757813-29.523437-15.222656-40.257812zm0 0" fill="#ffcb63"/><path d="m135.714844 91.339844v31.722656c-3.46875 8.195312-11.582032 13.945312-21.042969 13.945312-12.609375 0-22.832031-10.222656-22.832031-22.835937 0-12.609375 10.222656-22.832031 22.832031-22.832031zm0 0" fill="#4f4f4f"/><path d="m195.355469 54.804688h-27.402344v82.203124c25.222656 0 45.671875-20.449218 45.671875-45.667968 0-14.941406-7.175781-28.214844-18.269531-36.535156zm0 0" fill="#ffd9d4"/><path d="m181.351562 69.660156c1.167969 6.457032 1.828126 13.832032 1.828126 21.679688 0 25.21875-6.820313 45.667968-15.226563 45.667968-25.21875 0-45.667969-20.449218-45.667969-45.667968zm0 0" fill="#fff0d3"/><path d="m195.355469 54.804688c-4.097657 5.457031-8.796875 10.441406-14.003907 14.855468l-13.398437-23.992187c10.273437 0 19.773437 3.402343 27.402344 9.136719zm0 0" fill="#353535"/><path d="m122.285156 91.339844c0-25.21875 20.449219-45.671875 45.667969-45.671875 5.785156 0 10.832031 9.703125 13.398437 23.992187-15.921874 13.519532-36.546874 21.679688-59.066406 21.679688zm0 0" fill="#4f4f4f"/><g fill="#fff"><path d="m467.296875 72.863281c4.460937-5.296875 7.152344-12.132812 7.152344-19.582031 0-16.789062-13.660157-30.445312-30.449219-30.445312h-37.546875c-4.207031 0-7.613281 3.40625-7.613281 7.609374v91.339844c0 4.203125 3.40625 7.613282 7.613281 7.613282h45.160156c16.789063 0 30.445313-13.660157 30.445313-30.449219 0-11.054688-5.921875-20.75-14.761719-26.085938zm-53.234375-34.804687h29.9375c8.394531 0 15.226562 6.828125 15.226562 15.222656s-6.832031 15.222656-15.226562 15.222656h-29.9375zm37.550781 76.113281h-37.550781v-30.445313h37.550781c8.394531 0 15.222657 6.828126 15.222657 15.222657s-6.828126 15.222656-15.222657 15.222656zm0 0"/><path d="m339.753906 27.195312c-1.253906-2.660156-3.9375-4.359374-6.882812-4.359374-2.941406 0-5.625 1.699218-6.882813 4.359374l-43.132812 91.339844c-1.792969 3.800782-.167969 8.335938 3.636719 10.132813 3.796874 1.792969 8.335937.167969 10.132812-3.632813l12.316406-26.085937h47.863282l12.316406 26.085937c1.300781 2.753906 4.035156 4.363282 6.890625 4.363282 1.085937 0 2.195312-.234376 3.242187-.730469 3.800782-1.796875 5.429688-6.332031 3.632813-10.132813zm-23.625 56.53125 16.742188-35.453124 16.742187 35.453124zm0 0"/></g></svg>