<?xml version="1.0" encoding="iso-8859-1"?>
<!-- Generator: Adobe Illustrator 19.0.0, SVG Export Plug-In . SVG Version: 6.00 Build 0)  -->
<svg version="1.1" id="Capa_1" xmlns="http://www.w3.org/2000/svg" xmlns:xlink="http://www.w3.org/1999/xlink" x="0px" y="0px"
	 viewBox="0 0 511.998 511.998" style="enable-background:new 0 0 511.998 511.998;" xml:space="preserve">
<path style="fill:#FFCF59;" d="M304.228,418.545v20.464c0,9.243-3.737,17.596-9.787,23.646s-14.414,9.798-23.646,9.798
	c-18.475,0-33.444-14.968-33.444-33.444v-20.464L304.228,418.545L304.228,418.545z"/>
<path style="fill:#FFC033;" d="M270.79,439.009v-20.464h-33.438v20.464c0,18.475,14.969,33.444,33.444,33.444
	c6.089,0,11.796-1.638,16.714-4.484C277.516,462.186,270.79,451.388,270.79,439.009z"/>
<path style="fill:#FFCF59;" d="M406.925,354.222h0.063V242.021c0-18.517-3.737-36.165-10.488-52.243
	c-26.265-66.255-96.573-79.846-96.573-79.846c-9.023-1.905-18.36-2.91-27.938-2.91c-37.275,0-71.032,15.105-95.463,39.536
	c-24.421,24.431-39.536,58.178-39.536,95.463v112.201h0.052l-12.739,39.41v16.12h295.361v-16.12L406.925,354.222z"/>
<path style="fill:#FFC033;" d="M396.499,189.778c-23.174-58.456-80.621-75.913-93.826-79.214l0,0
	c-0.004-0.001-0.007-0.002-0.012-0.003c-1.754-0.439-2.735-0.629-2.735-0.629c-1.179-0.249-2.364-0.48-3.553-0.698
	c-0.141-0.026-0.285-0.048-0.427-0.073c-1.073-0.193-2.149-0.375-3.229-0.542c-0.044-0.006-0.089-0.013-0.134-0.02
	c-6.718-1.034-13.591-1.576-20.595-1.576c-37.275,0-71.032,15.105-95.463,39.536c-24.421,24.431-39.536,58.178-39.536,95.463
	v112.201h0.052l-12.739,39.41v16.12h61.525v-16.12l12.739-39.41h-0.052V242.021c0-37.285,15.115-71.032,39.536-95.463
	c8.068-8.068,17.158-15.111,27.055-20.931c6.474-3.807,14.622,1.059,14.251,8.561c-0.132,2.667-0.129,5.371,0.018,8.104
	c2.163,40.486,35.247,73.009,75.766,74.432c17.15,0.603,33.117-4.301,46.303-13.063
	C400.039,198.922,398.393,194.286,396.499,189.778z"/>
<path style="fill:#F2AA0A;" d="M436.789,407.763v3.978c0,7.809-6.333,14.131-14.131,14.131H304.228h-66.877H121.32
	c-7.809,0-14.131-6.322-14.131-14.131v-3.978c0-7.809,6.322-14.131,14.131-14.131h2.983h295.361h2.994
	C430.456,393.632,436.789,399.954,436.789,407.763z"/>
<path style="fill:#FF62A7;" d="M357.968,73.589c35.61,0,64.49,28.869,64.49,64.48c0,21.176-10.206,39.965-25.959,51.709
	c-10.75,8.029-24.086,12.781-38.531,12.781c-35.621,0-64.49-28.869-64.49-64.49c0-10.091,2.313-19.637,6.448-28.137h0.01
	C310.373,88.421,332.438,73.589,357.968,73.589z"/>
<path style="fill:#F44D9D;" d="M326.493,138.068c0-10.091,2.313-19.637,6.448-28.137h0.01c8.102-16.701,23.216-29.371,41.516-34.205
	c-5.267-1.39-10.795-2.14-16.5-2.14c-25.53,0-47.596,14.832-58.032,36.343h-0.01c-4.135,8.5-6.448,18.046-6.448,28.137
	c0,35.621,28.869,64.49,64.49,64.49c5.705,0,11.232-0.752,16.499-2.143C346.852,193.121,326.493,167.979,326.493,138.068z"/>
<path d="M425.445,385.979l-10.61-32.824V242.023c0-17.18-3.014-33.913-8.947-49.828c14.961-13.262,24.415-32.604,24.415-54.122
	c0-39.887-32.45-72.338-72.338-72.338c-26.413,0-49.554,14.237-62.182,35.432c-7.845-1.317-15.825-1.994-23.801-1.994
	c-78.768,0-142.851,64.083-142.851,142.851v111.132l-10.61,32.824c-10.805,1.379-19.19,10.611-19.19,21.784v3.981
	c0,12.12,9.86,21.982,21.982,21.982H229.5v9.414c0,20.49,16.669,37.16,37.16,37.16h8.258c20.49,0,37.16-16.669,37.16-37.16v-9.414
	h110.574c12.121,0,21.982-9.861,21.982-21.982v-3.981C444.635,396.59,436.25,387.358,425.445,385.979z M296.378,443.14
	c0,11.832-9.626,21.458-21.458,21.458h-8.258c-11.832,0-21.458-9.626-21.458-21.458v-9.414h51.174V443.14z M428.934,411.744
	c0,3.464-2.817,6.28-6.28,6.28l0,0H121.316l0,0c-3.464,0-6.28-2.817-6.28-6.28v-3.981c0-3.464,2.817-6.28,6.28-6.28l0,0h67.76
	c4.336,0,7.851-3.514,7.851-7.851c0-4.337-3.515-7.851-7.851-7.851h-53.987l9.421-29.144c0.342-1.059,0.446-2.162,0.327-3.239
	V242.023c0-70.11,57.039-127.15,127.15-127.15c5.717,0,11.437,0.389,17.092,1.15c-2.232,6.956-3.448,14.361-3.448,22.048
	c0,19.217,7.459,37.316,21.004,50.961c3.054,3.075,8.025,3.095,11.102,0.04c3.077-3.054,3.095-8.024,0.041-11.102
	c-10.606-10.683-16.445-24.853-16.445-39.898c0-31.23,25.407-56.636,56.636-56.636s56.636,25.407,56.636,56.636
	s-25.407,56.636-56.636,56.636c-5.636,0-11.212-0.831-16.574-2.47c-4.147-1.263-8.535,1.068-9.803,5.213
	c-1.268,4.146,1.067,8.535,5.213,9.803c6.851,2.094,13.972,3.156,21.164,3.156c12.525,0,24.316-3.204,34.6-8.829
	c4.36,12.983,6.566,26.546,6.566,40.442v111.276c-0.131,1.11-0.027,2.247,0.327,3.339l9.421,29.144H220.478
	c-4.336,0-7.851,3.514-7.851,7.851c0,4.337,3.515,7.851,7.851,7.851h202.175l0,0c3.464,0,6.28,2.817,6.28,6.28V411.744z"/>
<path d="M426.831,42.333c-3.553-2.483-8.448-1.621-10.933,1.932c-2.486,3.553-1.62,8.447,1.931,10.933
	c12.608,8.822,23.077,20.652,30.276,34.215c1.41,2.657,4.129,4.171,6.941,4.171c1.241,0,2.502-0.295,3.674-0.918
	c3.829-2.033,5.286-6.785,3.253-10.616C453.616,66.306,441.463,52.572,426.831,42.333z"/>
<path d="M503.898,67.049c-13.051-27.205-33.542-49.984-59.258-65.875c-3.689-2.281-8.526-1.136-10.806,2.552
	c-2.279,3.688-1.137,8.527,2.552,10.805c23.156,14.309,41.606,34.818,53.356,59.31c1.35,2.814,4.158,4.457,7.084,4.457
	c1.138,0,2.294-0.249,3.39-0.775C504.125,75.648,505.773,70.957,503.898,67.049z"/>
<path d="M96.739,455.432c-13.562-7.197-25.393-17.666-34.215-30.275c-2.486-3.553-7.381-4.416-10.933-1.932
	c-3.553,2.486-4.417,7.381-1.931,10.933c10.239,14.634,23.973,26.786,39.718,35.142c1.173,0.623,2.433,0.918,3.674,0.918
	c2.812,0,5.531-1.515,6.941-4.172C102.025,462.217,100.568,457.465,96.739,455.432z"/>
<path d="M81.166,497.07c-24.492-11.751-45.001-30.201-59.31-53.357c-2.279-3.688-7.116-4.832-10.806-2.552
	c-3.689,2.279-4.831,7.117-2.552,10.805c15.891,25.715,38.67,46.208,65.875,59.259c1.095,0.525,2.252,0.775,3.39,0.775
	c2.926,0,5.734-1.642,7.084-4.457C86.725,503.635,85.076,498.944,81.166,497.07z"/>
<path d="M350.173,128.3l3.526-3.274v45.29c0,4.337,3.515,7.851,7.851,7.851s7.851-3.514,7.851-7.851v-63.293
	c0-3.122-1.851-5.949-4.712-7.196c-2.861-1.245-6.191-0.68-8.481,1.443l-16.719,15.524c-3.177,2.95-3.361,7.918-0.411,11.096
	C342.029,131.065,346.994,131.252,350.173,128.3z"/>
<g>
</g>
<g>
</g>
<g>
</g>
<g>
</g>
<g>
</g>
<g>
</g>
<g>
</g>
<g>
</g>
<g>
</g>
<g>
</g>
<g>
</g>
<g>
</g>
<g>
</g>
<g>
</g>
<g>
</g>
</svg>
