<?xml version="1.0" encoding="iso-8859-1"?>
<!-- Generator: Adobe Illustrator 19.0.0, SVG Export Plug-In . SVG Version: 6.00 Build 0)  -->
<svg version="1.1" id="Capa_1" xmlns="http://www.w3.org/2000/svg" xmlns:xlink="http://www.w3.org/1999/xlink" x="0px" y="0px"
	 viewBox="0 0 512 512" style="enable-background:new 0 0 512 512;" xml:space="preserve">
<path style="fill:#F2F2F0;" d="M402.193,289.831v45.441c0,4.552-3.69,8.241-8.241,8.241H118.048c-4.552,0-8.241-3.69-8.241-8.241
	v-45.441c0-25.178,17.163-47.11,41.599-53.178l75.636-18.78h57.917l75.636,18.78C385.03,242.721,402.193,264.654,402.193,289.831z"
	/>
<polygon style="fill:#FFF082;" points="275.244,343.514 236.757,343.514 244.525,288.451 246.553,274.028 265.457,274.028 
	267.487,288.451 "/>
<polygon style="fill:#FFDC64;" points="267.487,288.451 244.525,288.451 246.553,274.028 265.457,274.028 "/>
<g>
	<path style="fill:#E5E5DA;" d="M147.59,237.751c-14.017,12.787-22.85,34.013-22.85,52.08v53.684h-6.688
		c-4.552,0-8.241-3.69-8.241-8.241v-45.442C109.809,265.986,125.195,245.043,147.59,237.751z"/>
	<path style="fill:#E5E5DA;" d="M364.413,237.751c14.017,12.787,22.85,34.013,22.85,52.08v53.684h6.688
		c4.552,0,8.241-3.69,8.241-8.241v-45.442C402.193,265.986,386.807,245.043,364.413,237.751z"/>
</g>
<polygon style="fill:#FFF082;" points="243.926,278.293 231.854,257.381 243.926,236.469 268.074,236.469 280.147,257.381 
	268.074,278.293 "/>
<rect x="225.54" y="170.83" style="fill:#F7C9A4;" width="60.915" height="56.43"/>
<path style="fill:#FFD9B6;" d="M351.167,116.256c0,10.875-7.555,19.988-17.695,22.362c-1.697,0.408-3.459,0.62-5.278,0.62
	c-12.694,0-22.982-10.288-22.982-22.982c0-12.686,10.288-22.974,22.982-22.974c1.893,0,3.728,0.228,5.482,0.661
	C343.718,96.398,351.167,105.462,351.167,116.256z"/>
<path style="fill:#F7C9A4;" d="M333.675,93.943v39.086c0,1.876-0.065,3.745-0.204,5.588c-1.697,0.408-3.459,0.62-5.278,0.62
	c-12.694,0-22.982-10.288-22.982-22.982c0-12.686,10.288-22.974,22.982-22.974C330.085,93.282,331.921,93.51,333.675,93.943z"/>
<path style="fill:#FFD9B6;" d="M206.798,116.256c0,12.694-10.288,22.982-22.982,22.982c-1.819,0-3.59-0.212-5.287-0.62
	c-10.149-2.382-17.695-11.487-17.695-22.362c0-10.793,7.449-19.849,17.491-22.305c1.754-0.441,3.598-0.669,5.491-0.669
	C196.51,93.282,206.798,103.57,206.798,116.256z"/>
<path style="fill:#F7C9A4;" d="M206.798,116.256c0,12.694-10.288,22.982-22.982,22.982c-1.819,0-3.59-0.212-5.287-0.62
	c-0.139-1.844-0.204-3.712-0.204-5.588V93.951c1.754-0.441,3.598-0.669,5.491-0.669C196.51,93.282,206.798,103.57,206.798,116.256z"
	/>
<path style="fill:#FFD9B6;" d="M319.635,50.581v80.58c0,35.146-28.489,63.635-63.635,63.635s-63.635-28.489-63.635-63.635v-80.58
	C192.366,50.581,319.635,50.581,319.635,50.581z"/>
<g>
	<path style="fill:#493030;" d="M227.105,129.441c-4.142,0-7.5-3.358-7.5-7.5v-5.223c0-4.142,3.358-7.5,7.5-7.5s7.5,3.358,7.5,7.5
		v5.223C234.605,126.083,231.247,129.441,227.105,129.441z"/>
	<path style="fill:#493030;" d="M282.896,129.441c-4.142,0-7.5-3.358-7.5-7.5v-5.223c0-4.142,3.358-7.5,7.5-7.5s7.5,3.358,7.5,7.5
		v5.223C290.396,126.083,287.038,129.441,282.896,129.441z"/>
</g>
<path style="fill:#F7C9A4;" d="M319.635,50.581v55.925l-21.36-3.577c-3.615-0.605-6.264-3.735-6.264-7.4v-8.402
	c0-1.441-1.066-2.657-2.495-2.843c-13.222-1.723-35.897-4.053-65.467-4.7c-1.605-0.035-2.925,1.261-2.925,2.867v13.13
	c0,3.697-2.692,6.842-6.345,7.413l-22.413,3.504V50.581H319.635z"/>
<path style="fill:#694B4B;" d="M319.686,93.283l-7.747-1.298c-1.803-0.309-3.389-1.185-4.574-2.421
	c-1.432-1.494-2.297-3.513-2.297-5.707v-3.42c0-4.09-2.987-7.551-7.026-8.159c-12.578-1.875-41.434-5.429-81.621-5.872
	c-4.595-0.052-8.344,3.647-8.344,8.241v9.128c0,2.812-1.411,5.326-3.616,6.83c-0.979,0.659-2.112,1.123-3.348,1.319l-8.705,1.36
	c0,0-13.228-44.679,1.143-66.993c1.769-2.744,4.013-5.186,6.655-7.108c1.773-1.291,5.057-1.981,6.542-3.41
	c0.492-0.473,0.775-2.13,1.014-2.65c1.058-2.306,2.49-4.488,4.23-6.333C215.288,3.245,220.449,0,228.269,0h98.939
	c2.246,0,4.286,0.896,5.769,2.349c0.471,0.45,0.894,0.963,1.226,1.525c0.762,1.216,1.216,2.648,1.246,4.193
	C335.736,23.601,334.469,59.132,319.686,93.283z"/>
<path style="fill:#5B4040;" d="M319.686,93.283l-7.747-1.298c-1.803-0.309-3.389-1.185-4.574-2.421
	C325.249,45.297,321.221,0,321.221,0h5.985c2.246,0,4.286,0.896,5.769,2.349c0.471,0.45,0.894,0.963,1.226,1.525
	c0.762,1.216,1.216,2.648,1.246,4.193C335.736,23.601,334.469,59.132,319.686,93.283z"/>
<g>
	<path style="fill:#E5E5DA;" d="M164.191,314.823v28.691h-15.453v-28.691c0-4.265,3.461-7.726,7.726-7.726
		C160.74,307.097,164.191,310.558,164.191,314.823z"/>
	<path style="fill:#E5E5DA;" d="M363.262,314.823v28.691H347.81v-28.691c0-4.265,3.451-7.726,7.726-7.726
		C359.801,307.097,363.262,310.558,363.262,314.823z"/>
	<path style="fill:#E5E5DA;" d="M220.538,205.801L256,227.167l-12.527,25.632c-2.506,5.129-9.342,6.218-13.318,2.122l-24.283-25.013
		c-2.262-2.33-2.945-5.77-1.744-8.787l4.499-11.307C210.508,205.086,216.18,203.175,220.538,205.801z"/>
	<path style="fill:#E5E5DA;" d="M291.464,205.801L256,227.167l12.527,25.632c2.506,5.129,9.342,6.218,13.318,2.122l24.283-25.013
		c2.262-2.33,2.945-5.77,1.744-8.787l-4.499-11.307C301.493,205.086,295.822,203.175,291.464,205.801z"/>
	<path style="fill:#E5E5DA;" d="M445.281,402.559H263.727v-35.866c0-4.267-3.459-7.726-7.726-7.726
		c-4.267,0-7.726,3.459-7.726,7.726v35.866H144.398c-4.267,0-7.726,3.459-7.726,7.726s3.459,7.726,7.726,7.726h103.876v33.571
		c0,4.267,3.459,7.726,7.726,7.726s7.726-3.459,7.726-7.726v-33.571h173.828v33.571c0,4.267,3.459,7.726,7.726,7.726
		s7.726-3.459,7.726-7.726v-41.297C453.007,406.019,449.548,402.559,445.281,402.559z"/>
	<path style="fill:#E5E5DA;" d="M116.797,402.559H66.719c-4.267,0-7.726,3.459-7.726,7.726v41.297c0,4.267,3.459,7.726,7.726,7.726
		s7.726-3.459,7.726-7.726v-33.571h42.351c4.267,0,7.726-3.459,7.726-7.726C124.523,406.019,121.064,402.559,116.797,402.559z"/>
</g>
<path style="fill:#FFF082;" d="M120.458,512H12.981c-4.552,0-8.241-3.69-8.241-8.241v-43.934c0-4.552,3.69-8.241,8.241-8.241
	h107.476c4.552,0,8.241,3.69,8.241,8.241v43.934C128.7,508.31,125.009,512,120.458,512z"/>
<path style="fill:#FFDC64;" d="M120.458,512h-9.381v-60.417h9.381c4.552,0,8.241,3.69,8.241,8.241v43.934
	C128.7,508.31,125.009,512,120.458,512z"/>
<path style="fill:#FFF082;" d="M309.738,512H202.262c-4.552,0-8.241-3.69-8.241-8.241v-43.934c0-4.552,3.69-8.241,8.241-8.241
	h107.476c4.552,0,8.241,3.69,8.241,8.241v43.934C317.979,508.31,314.29,512,309.738,512z"/>
<path style="fill:#FFDC64;" d="M309.738,512h-9.381v-60.417h9.381c4.552,0,8.241,3.69,8.241,8.241v43.934
	C317.979,508.31,314.29,512,309.738,512z"/>
<path style="fill:#FFF082;" d="M499.018,512H391.542c-4.552,0-8.241-3.69-8.241-8.241v-43.934c0-4.552,3.69-8.241,8.241-8.241
	h107.476c4.552,0,8.241,3.69,8.241,8.241v43.934C507.26,508.31,503.57,512,499.018,512z"/>
<path style="fill:#FFDC64;" d="M499.018,512h-9.381v-60.417h9.381c4.552,0,8.241,3.69,8.241,8.241v43.934
	C507.26,508.31,503.57,512,499.018,512z"/>
<g>
</g>
<g>
</g>
<g>
</g>
<g>
</g>
<g>
</g>
<g>
</g>
<g>
</g>
<g>
</g>
<g>
</g>
<g>
</g>
<g>
</g>
<g>
</g>
<g>
</g>
<g>
</g>
<g>
</g>
</svg>
