<?xml version="1.0" encoding="iso-8859-1"?>
<!-- Generator: Adobe Illustrator 19.0.0, SVG Export Plug-In . SVG Version: 6.00 Build 0)  -->
<svg version="1.1" id="Layer_1" xmlns="http://www.w3.org/2000/svg" xmlns:xlink="http://www.w3.org/1999/xlink" x="0px" y="0px"
	 viewBox="0 0 512 512" style="enable-background:new 0 0 512 512;" xml:space="preserve">
<path style="fill:#FFD15C;" d="M293.333,97.104c0,0,27.733-42.667,87.467-37.333v11.733C380.8,71.504,343.467,62.97,293.333,97.104z
	"/>
<path style="fill:#84DBFF;" d="M280.533,43.77c0,0,27.733-44.8,85.333-42.667v11.733C366.933,12.837,331.733,4.304,280.533,43.77z"
	/>
<path style="fill:#FFD15C;" d="M218.667,97.104c0,0-27.733-42.667-87.467-37.333v11.733C131.2,71.504,168.533,62.97,218.667,97.104z
	"/>
<g>
	<path style="fill:#84DBFF;" d="M230.4,41.637c0,0-28.8-43.733-87.467-39.467v11.733C142.933,13.904,178.133,4.304,230.4,41.637z"/>
	<path style="fill:#84DBFF;" d="M374.4,113.104h-11.733l8.533-8.533c1.067-1.067,1.067-2.133,0-3.2s-2.133-1.067-3.2,0l-8.533,8.533
		V99.237c0-1.067-1.067-2.133-2.133-2.133c-1.067,0-2.133,1.067-2.133,2.133v11.733l-8.533-8.533c-1.067-1.067-2.133-1.067-3.2,0
		c-1.067,1.067-1.067,2.133,0,3.2L352,114.17h-10.667c-1.067,0-2.133,1.067-2.133,2.133c0,1.067,1.067,1.067,2.133,1.067h11.733
		l-8.533,8.533c-1.067,1.067-1.067,2.133,0,3.2l1.067,1.067c0,0,1.067,0,1.067-1.067l8.533-8.533v11.733
		c0,1.067,1.067,2.133,2.133,2.133c1.067,0,2.133-1.067,2.133-2.133V120.57l8.533,8.533l1.067,1.067c0,0,1.067,0,1.067-1.067
		c1.067-1.067,1.067-2.133,0-3.2l-7.467-8.533H374.4c1.067,0,2.133-1.067,2.133-2.133S375.467,113.104,374.4,113.104z"/>
</g>
<path style="fill:#FFD15C;" d="M184.533,153.637H172.8l8.533-8.533c1.067-1.067,1.067-2.133,0-3.2c-1.067-1.067-2.133-1.067-3.2,0
	l-7.467,9.6V139.77c0-1.067-1.067-2.133-2.133-2.133s-2.133,1.067-2.133,2.133v11.733l-8.533-8.533c-1.067-1.067-2.133-1.067-3.2,0
	c-1.067,1.067-1.067,2.133,0,3.2l8.533,8.533h-11.733c-1.067,0-2.133,1.067-2.133,2.133c0,1.067,1.067,2.133,2.133,2.133H163.2
	l-8.533,8.533c-1.067,1.067-1.067,2.133,0,3.2l1.067,1.067c0,0,1.067,0,1.067-1.067l8.533-8.533v11.733
	c0,1.067,1.067,2.133,2.133,2.133c1.067,0,2.133-1.067,2.133-2.133V162.17l8.533,8.533l1.067,1.067c0,0,1.067,0,1.067-1.067
	c1.067-1.067,1.067-2.133,0-3.2l-8.533-8.533h11.733c1.067,0,2.133-1.067,2.133-2.133S185.6,153.637,184.533,153.637z"/>
<g>
	<polygon style="fill:#FF7058;" points="419.2,116.304 419.2,129.104 428.8,135.504 417.067,139.77 413.867,151.504 406.4,141.904 
		393.6,141.904 401.067,132.304 396.8,120.57 408.533,123.77 	"/>
	<polygon style="fill:#FF7058;" points="101.333,59.77 101.333,71.504 112,78.97 100.267,83.237 96,94.97 88.533,84.304 76.8,85.37 
		84.267,74.704 80,62.97 91.733,67.237 	"/>
</g>
<g>
	<polygon style="fill:#84DBFF;" points="328.533,151.504 328.533,160.037 334.933,164.304 327.467,166.437 325.333,174.97 
		320,168.57 312.533,168.57 316.8,162.17 314.667,154.704 322.133,156.837 	"/>
	<polygon style="fill:#84DBFF;" points="165.333,92.837 165.333,101.37 171.733,105.637 164.267,107.77 162.133,115.237 
		157.867,108.837 149.333,108.837 154.667,102.437 151.467,94.97 158.933,98.17 	"/>
</g>
<path style="fill:#ACB3BA;" d="M491.733,510.97H20.267C9.6,510.97,0,502.437,0,490.704l0,0c0-10.667,8.533-20.267,20.267-20.267
	h471.467c10.667,0,20.267,8.533,20.267,20.267l0,0C512,502.437,503.467,510.97,491.733,510.97z"/>
<rect x="30.933" y="358.437" style="fill:#FFD15C;" width="450.133" height="62.933"/>
<rect x="30.933" y="421.37" style="fill:#FF7058;" width="450.133" height="50.133"/>
<path style="fill:#FFD15C;" d="M444.8,308.304H67.2v-80c0-11.733,9.6-21.333,21.333-21.333h334.933
	c11.733,0,21.333,9.6,21.333,21.333V308.304z"/>
<g>
	<path style="fill:#FF7058;" d="M481.067,358.437H30.933v-28.8c0-11.733,9.6-21.333,21.333-21.333h407.467
		c11.733,0,21.333,9.6,21.333,21.333L481.067,358.437L481.067,358.437z"/>
	<path style="fill:#FF7058;" d="M423.467,206.97H88.533c-11.733,0-21.333,9.6-21.333,21.333v43.733l0,0
		c25.6,0,49.067-8.533,67.2-26.667c16-14.933,40.533-17.067,55.467-1.067c27.733,27.733,69.333,36.267,109.867,18.133
		c8.533-4.267,16-10.667,22.4-17.067c19.2-19.2,53.333-14.933,65.067,13.867c9.6,23.467,39.467,32,57.6,12.8l0,0v-43.733
		C444.8,216.57,435.2,206.97,423.467,206.97z"/>
</g>
<path style="fill:#CDD6E0;" d="M279.467,208.037h-46.933V130.17c0-6.4,4.267-10.667,10.667-10.667h25.6
	c6.4,0,10.667,4.267,10.667,10.667V208.037z"/>
<path style="fill:#FFD15C;" d="M276.267,87.504c0,11.733-9.6,20.267-20.267,20.267c-10.667,0-20.267-9.6-20.267-20.267
	S240,76.837,256,50.17C262.4,40.57,276.267,67.237,276.267,87.504z"/>
<g>
</g>
<g>
</g>
<g>
</g>
<g>
</g>
<g>
</g>
<g>
</g>
<g>
</g>
<g>
</g>
<g>
</g>
<g>
</g>
<g>
</g>
<g>
</g>
<g>
</g>
<g>
</g>
<g>
</g>
</svg>
