<svg height="512pt" viewBox="0 0 512 512" width="512pt" xmlns="http://www.w3.org/2000/svg"><path d="m166 390c-8.289062 0-15-6.710938-15-15v-60c0-8.289062 6.710938-15 15-15s15 6.710938 15 15v60c0 8.289062-6.710938 15-15 15zm0 0" fill="#a8ebfa"/><path d="m271 315v30c0 8.398438-6.597656 15-15 15s-15-6.601562-15-15v-30c0-8.402344 6.597656-15 15-15s15 6.597656 15 15zm0 0" fill="#a8ebfa"/><path d="m346 390c-8.289062 0-15-6.710938-15-15v-60c0-8.289062 6.710938-15 15-15s15 6.710938 15 15v60c0 8.289062-6.710938 15-15 15zm0 0" fill="#76e2f8"/><path d="m271 405v92c0 8.398438-6.597656 15-15 15s-15-6.601562-15-15v-92c0-8.402344 6.597656-15 15-15s15 6.597656 15 15zm0 0" fill="#a8ebfa"/><path d="m166 482c-8.289062 0-15-6.710938-15-15v-32c0-8.289062 6.710938-15 15-15s15 6.710938 15 15v32c0 8.289062-6.710938 15-15 15zm0 0" fill="#a8ebfa"/><g fill="#76e2f8"><path d="m346 482c-8.289062 0-15-6.710938-15-15v-32c0-8.289062 6.710938-15 15-15s15 6.710938 15 15v32c0 8.289062-6.710938 15-15 15zm0 0"/><path d="m271 315v30c0 8.398438-6.597656 15-15 15v-60c8.402344 0 15 6.597656 15 15zm0 0"/><path d="m271 405v92c0 8.398438-6.597656 15-15 15v-122c8.402344 0 15 6.597656 15 15zm0 0"/></g><path d="m512 45v240c0 24.898438-21.097656 45-46 45h-421c-24.902344 0-45-20.101562-45-45v-240c0-12.300781 5.097656-23.402344 12.898438-31.5h.300781l242.800781 119.398438 17.402344 8.699218 225.398437-128.097656c8.101563 8.097656 13.199219 19.199219 13.199219 31.5zm0 0" fill="#ede9e8"/><path d="m512 45v240c0 24.898438-21.097656 45-46 45h-210v-197.101562l17.402344 8.699218 225.398437-128.097656c8.101563 8.097656 13.199219 19.199219 13.199219 31.5zm0 0" fill="#dfd7d5"/><path d="m75.015625 270c-4.851563 0-9.609375-2.34375-12.496094-6.679688-4.597656-6.898437-2.738281-16.203124 4.160157-20.800781l138.652343-91.757812c6.914063-4.601563 16.1875-2.738281 20.800781 4.160156 4.597657 6.898437 2.738282 16.199219-4.160156 20.800781l-138.652344 91.757813c-2.5625 1.699219-5.449218 2.519531-8.304687 2.519531zm0 0" fill="#d2c5c2"/><path d="m435.984375 270c-2.855469 0-5.742187-.820312-8.304687-2.519531l-137.652344-91.757813c-6.898438-4.601562-8.757813-13.902344-4.160156-20.800781 4.558593-6.898437 13.859374-8.761719 20.800781-4.160156l137.652343 91.757812c6.898438 4.601563 8.757813 13.902344 4.160157 20.800781-2.886719 4.335938-7.644531 6.679688-12.496094 6.679688zm0 0" fill="#c4b3af"/><path d="m498.800781 13.199219v.300781l-195.398437 158.097656c-13.800782 11.402344-30.601563 16.800782-47.402344 16.800782s-33.601562-5.398438-47.402344-16.800782l-195.398437-158.097656v-.300781c8.101562-8.101563 19.5-13.199219 31.800781-13.199219h421c12.300781 0 24.699219 5.097656 32.800781 13.199219zm0 0" fill="#fdbf00"/><path d="m498.800781 13.199219v.300781l-195.398437 158.097656c-13.800782 11.402344-30.601563 16.800782-47.402344 16.800782v-188.398438h210c12.300781 0 24.699219 5.097656 32.800781 13.199219zm0 0" fill="#ff9f00"/></svg>