<svg height="512pt" viewBox="-66 0 512 512" width="512pt" xmlns="http://www.w3.org/2000/svg"><path d="m251.355469 0h-215.742188c-19.585937 0-35.613281 16.027344-35.613281 35.613281v440.773438c0 19.585937 16.027344 35.613281 35.613281 35.613281h215.742188c19.585937 0 35.613281-16.027344 35.613281-35.613281v-440.773438c0-19.585937-16.027344-35.613281-35.613281-35.613281zm0 0" fill="#8d909f"/><path d="m30.96875 476.386719v-440.773438c0-19.585937 16.023438-35.613281 35.613281-35.613281h-30.96875c-19.585937 0-35.613281 16.027344-35.613281 35.613281v440.773438c0 19.585937 16.027344 35.613281 35.613281 35.613281h30.96875c-19.589843 0-35.613281-16.027344-35.613281-35.613281zm0 0" fill="#75798a"/><path d="m30.96875 96.089844v326.621094c0 2.472656 2.171875 4.644531 4.644531 4.644531h215.742188c2.472656 0 4.644531-2.171875 4.644531-4.644531v-326.621094zm0 0" fill="#e4eaf8"/><path d="m61.875 422.710938v-326.621094h-30.90625v326.621094c0 2.472656 2.171875 4.644531 4.644531 4.644531h30.90625c-2.472656 0-4.644531-2.171875-4.644531-4.644531zm0 0" fill="#d8dce5"/><path d="m143.484375 451.097656c-9.675781 0-17.589844 7.917969-17.589844 17.59375 0 9.671875 7.914063 17.589844 17.589844 17.589844s17.589844-7.917969 17.589844-17.589844c0-9.675781-7.914063-17.59375-17.589844-17.59375zm0 0" fill="#75798a"/><path d="m150.617188 468.691406c0-4.867187 2.007812-9.285156 5.230468-12.480468-3.1875-3.152344-7.558594-5.109376-12.363281-5.109376-9.675781 0-17.59375 7.914063-17.59375 17.589844 0 9.675782 7.917969 17.589844 17.59375 17.589844 4.804687 0 9.175781-1.957031 12.363281-5.109375-3.222656-3.195313-5.230468-7.613281-5.230468-12.480469zm0 0" fill="#7e8292"/><path d="m162.152344 38.695312h-37.335938c-4.265625 0-7.726562-3.460937-7.726562-7.726562 0-4.269531 3.460937-7.726562 7.726562-7.726562h37.335938c4.265625 0 7.726562 3.457031 7.726562 7.726562 0 4.265625-3.460937 7.726562-7.726562 7.726562zm0 0" fill="#75798a"/><path d="m251.355469 61.933594h-215.742188c-2.472656 0-4.644531 2.171875-4.644531 4.644531v31.570313h225.03125v-31.570313c0-2.472656-2.171875-4.644531-4.644531-4.644531zm0 0" fill="#00c3ff"/><path d="m72.21875 61.933594h-36.605469c-2.472656 0-4.644531 2.171875-4.644531 4.644531v31.570313h41.25zm0 0" fill="#f25c5c"/><path d="m66.648438 61.933594h-31.035157c-2.476562 0-4.644531 2.171875-4.644531 4.644531v31.570313h31.035156v-31.570313c0-2.472656 2.171875-4.644531 4.644532-4.644531zm0 0" fill="#e54a4a"/><path d="m332.707031 161.277344h-157.175781c-7.578125 0-13.773438 6.199218-13.773438 13.773437v119.390625c0 7.578125 6.195313 13.777344 13.773438 13.777344h97.664062c2.863282 0 5.574219 1.285156 7.386719 3.503906l25.054688 30.652344c1.859375 2.277344 5.550781.960938 5.550781-1.976562v-28.097657c0-2.253906 1.824219-4.082031 4.082031-4.082031h18.683594c7.578125 0 13.777344-6.199219 13.777344-13.777344v-118.140625c0-8.296875-6.726563-15.023437-15.023438-15.023437zm0 0" fill="#00c3ff"/><g fill="#00aaf0"><path d="m192.664062 294.441406v-119.390625c0-7.578125 6.199219-13.777343 13.773438-13.777343h-30.90625c-7.578125 0-13.773438 6.199218-13.773438 13.777343v119.390625c0 7.578125 6.195313 13.777344 13.773438 13.777344h30.90625c-7.574219 0-13.773438-6.199219-13.773438-13.777344zm0 0"/><path d="m304.105469 308.21875h-30.910157c2.863282 0 5.574219 1.285156 7.386719 3.5l25.054688 30.65625c1.859375 2.277344 5.550781.960938 5.550781-1.980469v-28.09375c0-.28125.027344-.558593.082031-.820312-1.808593-2.066407-4.414062-3.261719-7.164062-3.261719zm0 0"/><path d="m311.183594 242.472656h-112.882813c-4.269531 0-7.726562-3.457031-7.726562-7.726562 0-4.265625 3.457031-7.726563 7.726562-7.726563h112.882813c4.269531 0 7.726562 3.457031 7.726562 7.726563 0 4.269531-3.457031 7.726562-7.726562 7.726562zm0 0"/><path d="m311.183594 279.210938h-112.882813c-4.269531 0-7.726562-3.460938-7.726562-7.730469 0-4.265625 3.457031-7.726563 7.726562-7.726563h112.882813c4.269531 0 7.726562 3.460938 7.726562 7.726563 0 4.269531-3.457031 7.730469-7.726562 7.730469zm0 0"/><path d="m311.183594 205.738281h-112.882813c-4.269531 0-7.726562-3.460937-7.726562-7.726562 0-4.269531 3.457031-7.726563 7.726562-7.726563h112.882813c4.269531 0 7.726562 3.457032 7.726562 7.726563 0 4.265625-3.457031 7.726562-7.726562 7.726562zm0 0"/></g><path d="m380.347656 177.667969c0 23.941406-19.414062 43.355469-43.355468 43.355469-23.945313 0-43.355469-19.414063-43.355469-43.355469 0-23.945313 19.410156-43.355469 43.355469-43.355469 23.941406 0 43.355468 19.410156 43.355468 43.355469zm0 0" fill="#f25c5c"/><path d="m324.542969 177.667969c0-18.5 11.589843-34.28125 27.902343-40.507813-4.800781-1.835937-10.007812-2.847656-15.453124-2.847656-23.945313 0-43.355469 19.410156-43.355469 43.355469 0 23.941406 19.410156 43.355469 43.355469 43.355469 5.445312 0 10.652343-1.015626 15.453124-2.847657-16.3125-6.226562-27.902343-22.011719-27.902343-40.507812zm0 0" fill="#e54a4a"/><path d="m336.992188 201.628906c-4.269532 0-7.726563-3.457031-7.726563-7.726562v-24.898438c-3.535156-.710937-6.195313-3.832031-6.195313-7.574218 0-4.265626 3.460938-7.726563 7.730469-7.726563h6.191407c4.265624 0 7.726562 3.460937 7.726562 7.726563v32.472656c0 4.269531-3.460938 7.726562-7.726562 7.726562zm0 0" fill="#e4eaf8"/></svg>