<?xml version="1.0" encoding="utf-8"?>
<!-- Generator: Adobe Illustrator 21.0.0, SVG Export Plug-In . SVG Version: 6.00 Build 0)  -->
<svg version="1.1" id="Layer_1" xmlns="http://www.w3.org/2000/svg" xmlns:xlink="http://www.w3.org/1999/xlink" x="0px" y="0px"
	 viewBox="0 0 500 438" style="enable-background:new 0 0 500 438;" xml:space="preserve">
<style type="text/css">
	.st0{fill:#EBF6FB;}
	.st1{fill:#4C89B9;}
	.st2{fill:#C1D881;}
	.st3{opacity:0.3;fill:#5F93A3;}
	.st4{fill:#FFFFFF;}
	.st5{fill:#CCDF96;}
	.st6{fill:#FFD6B8;}
	.st7{fill:#FFBA87;}
	.st8{fill:#9FD3ED;}
	.st9{fill:#EA7673;}
	.st10{opacity:0.3;fill:#FFFFFF;}
	.st11{fill:#65B8E3;}
	.st12{fill:#F8CF6A;}
	.st13{fill:#C1906F;}
	.st14{fill:#A07558;}
	.st15{fill:none;stroke:#E5BDA1;stroke-width:1.1007;stroke-miterlimit:10;}
	.st16{fill:#FFA969;}
	.st17{fill:#5C658F;}
	.st18{fill:#E8C0A6;}
	.st19{fill:#ED8A87;}
	.st20{fill:#D1A180;}
	.st21{fill:#ECF8FF;}
	.st22{fill:none;stroke:#5872CE;stroke-width:1.1007;stroke-miterlimit:10;}
	.st23{fill:none;stroke:#E0B79B;stroke-width:1.1007;stroke-miterlimit:10;}
	.st24{fill:#E0B79B;}
	.st25{fill:#E5BA9C;}
	.st26{fill:#7A6A5E;}
	.st27{fill:#605147;}
	.st28{fill:#A89286;}
	.st29{opacity:0.2;fill:#ED8A87;}
	.st30{fill:#FCEFCD;}
	.st31{fill:#D8BFAF;}
	.st32{fill:#A58D7F;}
	.st33{fill:#C1AA9D;}
	.st34{fill:#E9EBEE;}
	.st35{fill:#F4AF08;}
	.st36{fill:#D8EDF8;}
</style>
<path class="st0" d="M47.8,170.9c7.3-35.5,91.4,2.5,110.2-19.2c21.2-24.5,7.1-97.8,50.8-102.9c43.7-5.1,52.8,74,67,75.6
	c14.2,1.6,64.8-40.6,85.8-22.1c21,18.5-19.5,105.5-9.6,113.8c9.8,8.2,59.4,54.1,31.9,90.2c-21.1,27.8-111.2-20.1-130.2-11.8
	c-30.4,13.4-91.5,70.1-120.8,55.7c-30.4-14.8-5.9-75.2-15.7-96.5C105.7,228.6,39,213.8,47.8,170.9z"/>
<path class="st0" d="M328.5,322.3c-3.3,9.3,22,13.7,24.3,8.1C355.2,324.8,331,315.2,328.5,322.3z"/>
<path class="st0" d="M266.7,58.6c9.9-2.6,10.8,25,3.4,25.6C262.6,84.9,256.8,61.2,266.7,58.6z"/>
<path class="st0" d="M68.1,115.5c-5.5,7.5,12.6,19.9,18.8,12.6C93.1,120.8,73.6,108,68.1,115.5z"/>
<g>
	<g>
		<g>
			<path class="st1" d="M279.4,340.5c-0.1,0-0.3-0.1-0.4-0.2c-0.2-0.2-0.2-0.6,0-0.8l0.8-0.8c0.2-0.2,0.6-0.2,0.8,0
				c0.2,0.2,0.2,0.6,0,0.8l-0.8,0.8C279.7,340.4,279.6,340.5,279.4,340.5z"/>
		</g>
		<g>
			<path class="st1" d="M173.1,339c-0.3,0-0.6-0.2-0.6-0.6c0-0.3,0.2-0.5,0.6-0.5c0,0,0,0,0,0c0.7,0,1.4,0,2.1-0.1
				c0.3,0,0.6,0.2,0.6,0.5c0,0.3-0.2,0.6-0.5,0.6C174.5,339,173.8,339,173.1,339z M168.7,338.7C168.6,338.7,168.6,338.7,168.7,338.7
				c-0.8-0.1-1.5-0.2-2.3-0.4c-0.3-0.1-0.5-0.3-0.4-0.6c0.1-0.3,0.3-0.5,0.6-0.4c0.7,0.1,1.4,0.3,2.1,0.4c0.3,0,0.5,0.3,0.5,0.6
				C169.2,338.5,168.9,338.7,168.7,338.7z M179.6,338.3c-0.3,0-0.5-0.2-0.5-0.4c-0.1-0.3,0.1-0.6,0.4-0.6c0.7-0.1,1.4-0.3,2.1-0.5
				c0.3-0.1,0.6,0.1,0.7,0.4c0.1,0.3-0.1,0.6-0.4,0.7c-0.7,0.2-1.5,0.4-2.2,0.5C179.7,338.3,179.6,338.3,179.6,338.3z M162.3,337.2
				c-0.1,0-0.1,0-0.2,0c-0.7-0.2-1.4-0.5-2.1-0.8c-0.3-0.1-0.4-0.4-0.3-0.7c0.1-0.3,0.4-0.4,0.7-0.3c0.7,0.3,1.3,0.5,2,0.8
				c0.3,0.1,0.4,0.4,0.3,0.7C162.7,337,162.5,337.2,162.3,337.2z M283.3,336.6c-0.1,0-0.3-0.1-0.4-0.2c-0.2-0.2-0.2-0.6,0-0.8
				l1.6-1.6c0.2-0.2,0.6-0.2,0.8,0c0.2,0.2,0.2,0.6,0,0.8l-1.6,1.6C283.6,336.5,283.4,336.6,283.3,336.6z M185.9,336.4
				c-0.2,0-0.4-0.1-0.5-0.3c-0.1-0.3,0-0.6,0.3-0.7c0.7-0.3,1.3-0.6,2-0.9c0.3-0.1,0.6,0,0.7,0.2c0.1,0.3,0,0.6-0.2,0.7
				c-0.7,0.3-1.3,0.7-2,0.9C186,336.4,186,336.4,185.9,336.4z M156.3,334.4c-0.1,0-0.2,0-0.3-0.1c-0.6-0.4-1.3-0.8-1.9-1.2
				c-0.3-0.2-0.3-0.5-0.1-0.8c0.2-0.3,0.5-0.3,0.8-0.1c0.6,0.4,1.2,0.8,1.8,1.2c0.3,0.2,0.3,0.5,0.2,0.8
				C156.7,334.3,156.5,334.4,156.3,334.4z M191.7,333.2c-0.2,0-0.3-0.1-0.5-0.2c-0.2-0.3-0.1-0.6,0.1-0.8c0.6-0.4,1.2-0.8,1.7-1.3
				c0.2-0.2,0.6-0.1,0.8,0.1c0.2,0.2,0.1,0.6-0.1,0.8c-0.6,0.5-1.2,0.9-1.8,1.3C191.9,333.2,191.8,333.2,191.7,333.2z M288,331.9
				c-0.1,0-0.3-0.1-0.4-0.2c-0.2-0.2-0.2-0.6,0-0.8l1.6-1.6c0.2-0.2,0.6-0.2,0.8,0c0.2,0.2,0.2,0.6,0,0.8l-1.6,1.6
				C288.2,331.9,288.1,331.9,288,331.9z M151,330.5c-0.1,0-0.3,0-0.4-0.1c-0.4-0.4-0.9-0.8-1.3-1.2l-0.3-0.3c-0.2-0.2-0.2-0.6,0-0.8
				c0.2-0.2,0.6-0.2,0.8,0l0.3,0.3c0.4,0.4,0.8,0.8,1.3,1.2c0.2,0.2,0.2,0.6,0,0.8C151.3,330.5,151.2,330.5,151,330.5z M196.7,329
				c-0.1,0-0.3-0.1-0.4-0.2c-0.2-0.2-0.2-0.6,0-0.8l1.6-1.6c0.2-0.2,0.6-0.2,0.8,0c0.2,0.2,0.2,0.6,0,0.8l-1.6,1.6
				C197,328.9,196.8,329,196.7,329z M292.6,327.3c-0.1,0-0.3-0.1-0.4-0.2c-0.2-0.2-0.2-0.6,0-0.8l1.6-1.6c0.2-0.2,0.6-0.2,0.8,0
				s0.2,0.6,0,0.8l-1.6,1.6C292.9,327.2,292.8,327.3,292.6,327.3z M146.5,325.7c-0.2,0-0.3-0.1-0.4-0.2c-0.5-0.6-0.9-1.2-1.3-1.8
				c-0.2-0.3-0.1-0.6,0.1-0.8c0.3-0.2,0.6-0.1,0.8,0.1c0.4,0.6,0.8,1.2,1.3,1.7c0.2,0.2,0.1,0.6-0.1,0.8
				C146.7,325.7,146.6,325.7,146.5,325.7z M201.3,324.3c-0.1,0-0.3-0.1-0.4-0.2c-0.2-0.2-0.2-0.6,0-0.8l1.6-1.6
				c0.2-0.2,0.6-0.2,0.8,0c0.2,0.2,0.2,0.6,0,0.8l-1.6,1.6C201.6,324.3,201.5,324.3,201.3,324.3z M297.3,322.6
				c-0.1,0-0.3-0.1-0.4-0.2c-0.2-0.2-0.2-0.6,0-0.8l1.6-1.6c0.2-0.2,0.6-0.2,0.8,0c0.2,0.2,0.2,0.6,0,0.8l-1.6,1.6
				C297.6,322.6,297.4,322.6,297.3,322.6z M143,320.2c-0.2,0-0.4-0.1-0.5-0.3c-0.3-0.7-0.6-1.4-0.9-2c-0.1-0.3,0-0.6,0.3-0.7
				c0.3-0.1,0.6,0,0.7,0.3c0.3,0.7,0.6,1.3,0.9,2c0.1,0.3,0,0.6-0.2,0.7C143.2,320.1,143.1,320.2,143,320.2z M206,319.7
				c-0.1,0-0.3-0.1-0.4-0.2c-0.2-0.2-0.2-0.6,0-0.8l1.6-1.6c0.2-0.2,0.6-0.2,0.8,0c0.2,0.2,0.2,0.6,0,0.8l-1.6,1.6
				C206.3,319.6,206.1,319.7,206,319.7z M301.9,318c-0.1,0-0.3-0.1-0.4-0.2c-0.2-0.2-0.2-0.6,0-0.8l1.6-1.6c0.2-0.2,0.6-0.2,0.8,0
				c0.2,0.2,0.2,0.6,0,0.8l-1.6,1.6C302.2,317.9,302.1,318,301.9,318z M210.7,315c-0.1,0-0.3-0.1-0.4-0.2c-0.2-0.2-0.2-0.6,0-0.8
				l1.6-1.6c0.2-0.2,0.6-0.2,0.8,0c0.2,0.2,0.2,0.6,0,0.8l-1.6,1.6C210.9,315,210.8,315,210.7,315z M140.7,314
				c-0.2,0-0.5-0.2-0.5-0.4c-0.2-0.7-0.4-1.5-0.5-2.2c-0.1-0.3,0.1-0.6,0.4-0.6c0.3-0.1,0.6,0.1,0.6,0.4c0.1,0.7,0.3,1.4,0.5,2.1
				c0.1,0.3-0.1,0.6-0.4,0.7C140.8,314,140.7,314,140.7,314z M306.6,313.3c-0.1,0-0.3-0.1-0.4-0.2c-0.2-0.2-0.2-0.6,0-0.8l1.6-1.6
				c0.2-0.2,0.6-0.2,0.8,0c0.2,0.2,0.2,0.6,0,0.8l-1.6,1.6C306.9,313.3,306.7,313.3,306.6,313.3z M215.3,310.4
				c-0.1,0-0.3-0.1-0.4-0.2c-0.2-0.2-0.2-0.6,0-0.8l1.6-1.6c0.2-0.2,0.6-0.2,0.8,0c0.2,0.2,0.2,0.6,0,0.8l-1.6,1.6
				C215.6,310.3,215.5,310.4,215.3,310.4z M311.3,308.6c-0.1,0-0.3-0.1-0.4-0.2c-0.2-0.2-0.2-0.6,0-0.8l1.6-1.6
				c0.2-0.2,0.6-0.2,0.8,0s0.2,0.6,0,0.8l-1.6,1.6C311.5,308.6,311.4,308.6,311.3,308.6z M139.7,307.5c-0.3,0-0.5-0.2-0.5-0.5
				c0-0.7-0.1-1.3-0.1-2l0-0.2c0-0.3,0.2-0.5,0.6-0.5c0,0,0,0,0,0c0.3,0,0.5,0.3,0.5,0.6l0,0.2c0,0.6,0,1.3,0.1,1.9
				C140.2,307.2,140,307.5,139.7,307.5C139.7,307.5,139.7,307.5,139.7,307.5z M220,305.7c-0.1,0-0.3-0.1-0.4-0.2
				c-0.2-0.2-0.2-0.6,0-0.8l1.6-1.6c0.2-0.2,0.6-0.2,0.8,0c0.2,0.2,0.2,0.6,0,0.8l-1.6,1.6C220.3,305.7,220.1,305.7,220,305.7z
				 M315.9,304c-0.1,0-0.3-0.1-0.4-0.2c-0.2-0.2-0.2-0.6,0-0.8l1.6-1.6c0.2-0.2,0.6-0.2,0.8,0s0.2,0.6,0,0.8l-1.6,1.6
				C316.2,303.9,316.1,304,315.9,304z M224.6,301.1c-0.1,0-0.3-0.1-0.4-0.2c-0.2-0.2-0.2-0.6,0-0.8l1.6-1.6c0.2-0.2,0.6-0.2,0.8,0
				c0.2,0.2,0.2,0.6,0,0.8l-1.6,1.6C224.9,301,224.8,301.1,224.6,301.1z M139.9,300.9C139.9,300.9,139.9,300.9,139.9,300.9
				c-0.4,0-0.6-0.3-0.5-0.6c0.1-0.7,0.2-1.5,0.4-2.2c0.1-0.3,0.3-0.5,0.7-0.4c0.3,0.1,0.5,0.4,0.4,0.7c-0.1,0.7-0.3,1.4-0.4,2.1
				C140.4,300.7,140.2,300.9,139.9,300.9z M320.6,299.3c-0.1,0-0.3-0.1-0.4-0.2c-0.2-0.2-0.2-0.6,0-0.8l1.6-1.6
				c0.2-0.2,0.6-0.2,0.8,0c0.2,0.2,0.2,0.6,0,0.8l-1.6,1.6C320.9,299.3,320.7,299.3,320.6,299.3z M229.3,296.4
				c-0.1,0-0.3-0.1-0.4-0.2c-0.2-0.2-0.2-0.6,0-0.8l1.6-1.6c0.2-0.2,0.6-0.2,0.8,0c0.2,0.2,0.2,0.6,0,0.8l-1.6,1.6
				C229.6,296.3,229.4,296.4,229.3,296.4z M325.2,294.7c-0.1,0-0.3-0.1-0.4-0.2c-0.2-0.2-0.2-0.6,0-0.8l1.6-1.6
				c0.2-0.2,0.6-0.2,0.8,0c0.2,0.2,0.2,0.6,0,0.8l-1.6,1.6C325.5,294.6,325.4,294.7,325.2,294.7z M141.5,294.6c-0.1,0-0.1,0-0.2,0
				c-0.3-0.1-0.4-0.4-0.3-0.7c0.2-0.7,0.5-1.4,0.8-2.1c0.1-0.3,0.4-0.4,0.7-0.3c0.3,0.1,0.4,0.4,0.3,0.7c-0.3,0.7-0.5,1.3-0.8,2
				C141.9,294.4,141.7,294.6,141.5,294.6z M233.9,291.7c-0.1,0-0.3-0.1-0.4-0.2c-0.2-0.2-0.2-0.6,0-0.8l1.6-1.6
				c0.2-0.2,0.6-0.2,0.8,0c0.2,0.2,0.2,0.6,0,0.8l-1.6,1.6C234.2,291.7,234.1,291.7,233.9,291.7z M329.9,290c-0.1,0-0.3-0.1-0.4-0.2
				c-0.2-0.2-0.2-0.6,0-0.8l1.6-1.6c0.2-0.2,0.6-0.2,0.8,0c0.2,0.2,0.2,0.6,0,0.8l-1.6,1.6C330.2,290,330,290,329.9,290z
				 M144.3,288.6c-0.1,0-0.2,0-0.3-0.1c-0.3-0.2-0.3-0.5-0.2-0.8c0.4-0.6,0.8-1.3,1.2-1.9c0.2-0.2,0.5-0.3,0.8-0.1
				c0.2,0.2,0.3,0.5,0.1,0.8c-0.4,0.6-0.8,1.2-1.2,1.8C144.6,288.5,144.4,288.6,144.3,288.6z M238.6,287.1c-0.1,0-0.3-0.1-0.4-0.2
				c-0.2-0.2-0.2-0.6,0-0.8l1.6-1.6c0.2-0.2,0.6-0.2,0.8,0c0.2,0.2,0.2,0.6,0,0.8l-1.6,1.6C238.9,287,238.7,287.1,238.6,287.1z
				 M334.5,285.4c-0.1,0-0.3-0.1-0.4-0.2c-0.2-0.2-0.2-0.6,0-0.8l1.6-1.6c0.2-0.2,0.6-0.2,0.8,0s0.2,0.6,0,0.8l-1.6,1.6
				C334.8,285.3,334.7,285.4,334.5,285.4z M148.2,283.3c-0.1,0-0.3,0-0.4-0.1c-0.2-0.2-0.2-0.6,0-0.8c0.4-0.4,0.7-0.8,1.1-1.1
				l0.5-0.5c0.2-0.2,0.6-0.2,0.8,0c0.2,0.2,0.2,0.6,0,0.8l-0.5,0.5c-0.4,0.4-0.7,0.7-1,1.1C148.5,283.3,148.3,283.3,148.2,283.3z
				 M243.3,282.4c-0.1,0-0.3-0.1-0.4-0.2c-0.2-0.2-0.2-0.6,0-0.8l1.6-1.6c0.2-0.2,0.6-0.2,0.8,0c0.2,0.2,0.2,0.6,0,0.8l-1.6,1.6
				C243.5,282.4,243.4,282.4,243.3,282.4z M339.2,280.7c-0.1,0-0.3-0.1-0.4-0.2c-0.2-0.2-0.2-0.6,0-0.8l1.6-1.6
				c0.2-0.2,0.6-0.2,0.8,0c0.2,0.2,0.2,0.6,0,0.8l-1.6,1.6C339.5,280.6,339.3,280.7,339.2,280.7z M152.8,278.6
				c-0.1,0-0.3-0.1-0.4-0.2c-0.2-0.2-0.2-0.6,0-0.8l1.6-1.6c0.2-0.2,0.6-0.2,0.8,0c0.2,0.2,0.2,0.6,0,0.8l-1.6,1.6
				C153.1,278.6,153,278.6,152.8,278.6z M247.9,277.8c-0.1,0-0.3-0.1-0.4-0.2c-0.2-0.2-0.2-0.6,0-0.8l1.6-1.6c0.2-0.2,0.6-0.2,0.8,0
				s0.2,0.6,0,0.8l-1.6,1.6C248.2,277.7,248.1,277.8,247.9,277.8z M343.9,276c-0.1,0-0.3-0.1-0.4-0.2c-0.2-0.2-0.2-0.6,0-0.8
				l1.6-1.6c0.2-0.2,0.6-0.2,0.8,0c0.2,0.2,0.2,0.6,0,0.8l-1.6,1.6C344.1,276,344,276,343.9,276z M157.5,274c-0.1,0-0.3-0.1-0.4-0.2
				c-0.2-0.2-0.2-0.6,0-0.8l1.6-1.6c0.2-0.2,0.6-0.2,0.8,0c0.2,0.2,0.2,0.6,0,0.8l-1.6,1.6C157.8,273.9,157.6,274,157.5,274z
				 M252.6,273.1c-0.1,0-0.3-0.1-0.4-0.2c-0.2-0.2-0.2-0.6,0-0.8l1.6-1.6c0.2-0.2,0.6-0.2,0.8,0c0.2,0.2,0.2,0.6,0,0.8l-1.6,1.6
				C252.9,273.1,252.7,273.1,252.6,273.1z M348.5,271.4c-0.1,0-0.3-0.1-0.4-0.2c-0.2-0.2-0.2-0.6,0-0.8l1.6-1.6
				c0.2-0.2,0.6-0.2,0.8,0c0.2,0.2,0.2,0.6,0,0.8l-1.6,1.6C348.8,271.3,348.7,271.4,348.5,271.4z M162.1,269.3
				c-0.1,0-0.3-0.1-0.4-0.2c-0.2-0.2-0.2-0.6,0-0.8l1.6-1.6c0.2-0.2,0.6-0.2,0.8,0c0.2,0.2,0.2,0.6,0,0.8l-1.6,1.6
				C162.4,269.3,162.3,269.3,162.1,269.3z M257.2,268.4c-0.1,0-0.3-0.1-0.4-0.2c-0.2-0.2-0.2-0.6,0-0.8l1.6-1.6
				c0.2-0.2,0.6-0.2,0.8,0c0.2,0.2,0.2,0.6,0,0.8l-1.6,1.6C257.5,268.4,257.4,268.4,257.2,268.4z M353.2,266.7
				c-0.1,0-0.3-0.1-0.4-0.2c-0.2-0.2-0.2-0.6,0-0.8l1.6-1.6c0.2-0.2,0.6-0.2,0.8,0c0.2,0.2,0.2,0.6,0,0.8l-1.6,1.6
				C353.5,266.7,353.3,266.7,353.2,266.7z M166.8,264.7c-0.1,0-0.3-0.1-0.4-0.2c-0.2-0.2-0.2-0.6,0-0.8l1.6-1.6
				c0.2-0.2,0.6-0.2,0.8,0c0.2,0.2,0.2,0.6,0,0.8l-1.6,1.6C167.1,264.6,166.9,264.7,166.8,264.7z M261.9,263.8
				c-0.1,0-0.3-0.1-0.4-0.2c-0.2-0.2-0.2-0.6,0-0.8l1.6-1.6c0.2-0.2,0.6-0.2,0.8,0c0.2,0.2,0.2,0.6,0,0.8l-1.6,1.6
				C262.2,263.7,262,263.8,261.9,263.8z M357.8,262.1c-0.1,0-0.3-0.1-0.4-0.2c-0.2-0.2-0.2-0.6,0-0.8l1.6-1.6c0.2-0.2,0.6-0.2,0.8,0
				s0.2,0.6,0,0.8l-1.6,1.6C358.1,262,358,262.1,357.8,262.1z M171.5,260c-0.1,0-0.3-0.1-0.4-0.2c-0.2-0.2-0.2-0.6,0-0.8l1.6-1.6
				c0.2-0.2,0.6-0.2,0.8,0c0.2,0.2,0.2,0.6,0,0.8l-1.6,1.6C171.7,260,171.6,260,171.5,260z M266.6,259.1c-0.1,0-0.3-0.1-0.4-0.2
				c-0.2-0.2-0.2-0.6,0-0.8l1.6-1.6c0.2-0.2,0.6-0.2,0.8,0c0.2,0.2,0.2,0.6,0,0.8l-1.6,1.6C266.8,259.1,266.7,259.1,266.6,259.1z
				 M362.5,257.4c-0.1,0-0.3-0.1-0.4-0.2c-0.2-0.2-0.2-0.6,0-0.8l1.6-1.6c0.2-0.2,0.6-0.2,0.8,0c0.2,0.2,0.2,0.6,0,0.8l-1.6,1.6
				C362.8,257.4,362.6,257.4,362.5,257.4z M176.1,255.4c-0.1,0-0.3-0.1-0.4-0.2c-0.2-0.2-0.2-0.6,0-0.8l1.6-1.6
				c0.2-0.2,0.6-0.2,0.8,0c0.2,0.2,0.2,0.6,0,0.8l-1.6,1.6C176.4,255.3,176.2,255.4,176.1,255.4z M271.2,254.5
				c-0.1,0-0.3-0.1-0.4-0.2c-0.2-0.2-0.2-0.6,0-0.8l1.6-1.6c0.2-0.2,0.6-0.2,0.8,0c0.2,0.2,0.2,0.6,0,0.8l-1.6,1.6
				C271.5,254.4,271.4,254.5,271.2,254.5z M367.2,252.8c-0.1,0-0.3-0.1-0.4-0.2c-0.2-0.2-0.2-0.6,0-0.8l1.6-1.6
				c0.2-0.2,0.6-0.2,0.8,0s0.2,0.6,0,0.8l-1.6,1.6C367.4,252.7,367.3,252.8,367.2,252.8z M180.8,250.7c-0.1,0-0.3-0.1-0.4-0.2
				c-0.2-0.2-0.2-0.6,0-0.8l1.6-1.6c0.2-0.2,0.6-0.2,0.8,0c0.2,0.2,0.2,0.6,0,0.8l-1.6,1.6C181,250.6,180.9,250.7,180.8,250.7z
				 M275.9,249.8c-0.1,0-0.3-0.1-0.4-0.2c-0.2-0.2-0.2-0.6,0-0.8l1.6-1.6c0.2-0.2,0.6-0.2,0.8,0c0.2,0.2,0.2,0.6,0,0.8l-1.6,1.6
				C276.2,249.8,276,249.8,275.9,249.8z M371.8,248.1c-0.1,0-0.3-0.1-0.4-0.2c-0.2-0.2-0.2-0.6,0-0.8l1.6-1.6c0.2-0.2,0.6-0.2,0.8,0
				c0.2,0.2,0.2,0.6,0,0.8l-1.6,1.6C372.1,248,371.9,248.1,371.8,248.1z M185.4,246c-0.1,0-0.3-0.1-0.4-0.2c-0.2-0.2-0.2-0.6,0-0.8
				l1.6-1.6c0.2-0.2,0.6-0.2,0.8,0c0.2,0.2,0.2,0.6,0,0.8l-1.6,1.6C185.7,246,185.6,246,185.4,246z M280.5,245.2
				c-0.1,0-0.3-0.1-0.4-0.2c-0.2-0.2-0.2-0.6,0-0.8l1.6-1.6c0.2-0.2,0.6-0.2,0.8,0s0.2,0.6,0,0.8l-1.6,1.6
				C280.8,245.1,280.7,245.2,280.5,245.2z M376.5,243.4c-0.1,0-0.3-0.1-0.4-0.2c-0.2-0.2-0.2-0.6,0-0.8l1.6-1.6
				c0.2-0.2,0.6-0.2,0.8,0c0.2,0.2,0.2,0.6,0,0.8l-1.6,1.6C376.7,243.4,376.6,243.4,376.5,243.4z M190.1,241.4
				c-0.1,0-0.3-0.1-0.4-0.2c-0.2-0.2-0.2-0.6,0-0.8l1.6-1.6c0.2-0.2,0.6-0.2,0.8,0c0.2,0.2,0.2,0.6,0,0.8l-1.6,1.6
				C190.4,241.3,190.2,241.4,190.1,241.4z M285.2,240.5c-0.1,0-0.3-0.1-0.4-0.2c-0.2-0.2-0.2-0.6,0-0.8l1.6-1.6
				c0.2-0.2,0.6-0.2,0.8,0c0.2,0.2,0.2,0.6,0,0.8l-1.6,1.6C285.5,240.4,285.3,240.5,285.2,240.5z M381.1,238.8
				c-0.1,0-0.3-0.1-0.4-0.2c-0.2-0.2-0.2-0.6,0-0.8l1.6-1.6c0.2-0.2,0.6-0.2,0.8,0c0.2,0.2,0.2,0.6,0,0.8l-1.6,1.6
				C381.4,238.7,381.3,238.8,381.1,238.8z M194.7,236.7c-0.1,0-0.3-0.1-0.4-0.2c-0.2-0.2-0.2-0.6,0-0.8l1.6-1.6
				c0.2-0.2,0.6-0.2,0.8,0c0.2,0.2,0.2,0.6,0,0.8l-1.6,1.6C195,236.7,194.9,236.7,194.7,236.7z M289.8,235.8c-0.1,0-0.3-0.1-0.4-0.2
				c-0.2-0.2-0.2-0.6,0-0.8l1.6-1.6c0.2-0.2,0.6-0.2,0.8,0c0.2,0.2,0.2,0.6,0,0.8l-1.6,1.6C290.1,235.8,290,235.8,289.8,235.8z
				 M385.8,234.1c-0.1,0-0.3-0.1-0.4-0.2c-0.2-0.2-0.2-0.6,0-0.8l1.6-1.6c0.2-0.2,0.6-0.2,0.8,0c0.2,0.2,0.2,0.6,0,0.8l-1.6,1.6
				C386.1,234.1,385.9,234.1,385.8,234.1z M199.4,232.1c-0.1,0-0.3-0.1-0.4-0.2c-0.2-0.2-0.2-0.6,0-0.8l1.6-1.6
				c0.2-0.2,0.6-0.2,0.8,0c0.2,0.2,0.2,0.6,0,0.8l-1.6,1.6C199.7,232,199.5,232.1,199.4,232.1z M294.5,231.2c-0.1,0-0.3-0.1-0.4-0.2
				c-0.2-0.2-0.2-0.6,0-0.8l1.6-1.6c0.2-0.2,0.6-0.2,0.8,0c0.2,0.2,0.2,0.6,0,0.8l-1.6,1.6C294.8,231.1,294.6,231.2,294.5,231.2z
				 M106.1,231.1c-0.1,0-0.3-0.1-0.4-0.2c-0.2-0.2-0.2-0.6,0-0.8l1.6-1.6c0.2-0.2,0.6-0.2,0.8,0c0.2,0.2,0.2,0.6,0,0.8l-1.6,1.6
				C106.4,231.1,106.3,231.1,106.1,231.1z M390.4,229.5c-0.1,0-0.3-0.1-0.4-0.2c-0.2-0.2-0.2-0.6,0-0.8l1.6-1.6
				c0.2-0.2,0.6-0.2,0.8,0c0.2,0.2,0.2,0.6,0,0.8l-1.6,1.6C390.7,229.4,390.6,229.5,390.4,229.5z M204.1,227.4
				c-0.1,0-0.3-0.1-0.4-0.2c-0.2-0.2-0.2-0.6,0-0.8l1.6-1.6c0.2-0.2,0.6-0.2,0.8,0c0.2,0.2,0.2,0.6,0,0.8l-1.6,1.6
				C204.3,227.4,204.2,227.4,204.1,227.4z M299.2,226.5c-0.1,0-0.3-0.1-0.4-0.2c-0.2-0.2-0.2-0.6,0-0.8l1.6-1.6
				c0.2-0.2,0.6-0.2,0.8,0c0.2,0.2,0.2,0.6,0,0.8l-1.6,1.6C299.4,226.5,299.3,226.5,299.2,226.5z M110.8,226.5
				c-0.1,0-0.3-0.1-0.4-0.2c-0.2-0.2-0.2-0.6,0-0.8l1.6-1.6c0.2-0.2,0.6-0.2,0.8,0c0.2,0.2,0.2,0.6,0,0.8l-1.6,1.6
				C111.1,226.4,110.9,226.5,110.8,226.5z M395,224.7c-0.1,0-0.2,0-0.3-0.1c-0.2-0.2-0.3-0.5-0.1-0.8c0.5-0.6,0.9-1.1,1.3-1.7
				c0.2-0.2,0.5-0.3,0.8-0.1c0.2,0.2,0.3,0.5,0.1,0.8c-0.4,0.6-0.9,1.2-1.4,1.8C395.3,224.6,395.1,224.7,395,224.7z M208.7,222.8
				c-0.1,0-0.3-0.1-0.4-0.2c-0.2-0.2-0.2-0.6,0-0.8l1.6-1.6c0.2-0.2,0.6-0.2,0.8,0c0.2,0.2,0.2,0.6,0,0.8l-1.6,1.6
				C209,222.7,208.9,222.8,208.7,222.8z M303.8,221.9c-0.1,0-0.3-0.1-0.4-0.2c-0.2-0.2-0.2-0.6,0-0.8l1.6-1.6c0.2-0.2,0.6-0.2,0.8,0
				c0.2,0.2,0.2,0.6,0,0.8l-1.6,1.6C304.1,221.8,304,221.9,303.8,221.9z M115.4,221.8c-0.1,0-0.3-0.1-0.4-0.2
				c-0.2-0.2-0.2-0.6,0-0.8l1.6-1.6c0.2-0.2,0.6-0.2,0.8,0c0.2,0.2,0.2,0.6,0,0.8l-1.6,1.6C115.7,221.7,115.6,221.8,115.4,221.8z
				 M398.6,219.2c-0.1,0-0.2,0-0.3-0.1c-0.3-0.1-0.4-0.5-0.2-0.7c0.3-0.6,0.7-1.3,0.9-1.9c0.1-0.3,0.5-0.4,0.7-0.3
				c0.3,0.1,0.4,0.4,0.3,0.7c-0.3,0.7-0.6,1.3-1,2C399,219.1,398.8,219.2,398.6,219.2z M213.4,218.1c-0.1,0-0.3-0.1-0.4-0.2
				c-0.2-0.2-0.2-0.6,0-0.8l1.6-1.6c0.2-0.2,0.6-0.2,0.8,0c0.2,0.2,0.2,0.6,0,0.8l-1.6,1.6C213.7,218,213.5,218.1,213.4,218.1z
				 M308.5,217.2c-0.1,0-0.3-0.1-0.4-0.2c-0.2-0.2-0.2-0.6,0-0.8l1.6-1.6c0.2-0.2,0.6-0.2,0.8,0c0.2,0.2,0.2,0.6,0,0.8l-1.6,1.6
				C308.8,217.2,308.6,217.2,308.5,217.2z M120.1,217.1c-0.1,0-0.3-0.1-0.4-0.2c-0.2-0.2-0.2-0.6,0-0.8l1.6-1.6
				c0.2-0.2,0.6-0.2,0.8,0c0.2,0.2,0.2,0.6,0,0.8l-1.6,1.6C120.4,217.1,120.2,217.1,120.1,217.1z M218,213.4c-0.1,0-0.3-0.1-0.4-0.2
				c-0.2-0.2-0.2-0.6,0-0.8l1.6-1.6c0.2-0.2,0.6-0.2,0.8,0c0.2,0.2,0.2,0.6,0,0.8l-1.6,1.6C218.3,213.4,218.2,213.4,218,213.4z
				 M401.1,213.1c-0.1,0-0.1,0-0.2,0c-0.3-0.1-0.5-0.4-0.4-0.7c0.2-0.7,0.4-1.4,0.5-2.1c0.1-0.3,0.4-0.5,0.7-0.4
				c0.3,0.1,0.5,0.4,0.4,0.7c-0.2,0.7-0.3,1.4-0.6,2.2C401.6,213,401.4,213.1,401.1,213.1z M313.1,212.6c-0.1,0-0.3-0.1-0.4-0.2
				c-0.2-0.2-0.2-0.6,0-0.8l1.6-1.6c0.2-0.2,0.6-0.2,0.8,0c0.2,0.2,0.2,0.6,0,0.8l-1.6,1.6C313.4,212.5,313.3,212.6,313.1,212.6z
				 M124.8,212.5c-0.1,0-0.3-0.1-0.4-0.2c-0.2-0.2-0.2-0.6,0-0.8l1.6-1.6c0.2-0.2,0.6-0.2,0.8,0c0.2,0.2,0.2,0.6,0,0.8l-1.6,1.6
				C125,212.4,124.9,212.5,124.8,212.5z M222.7,208.8c-0.1,0-0.3-0.1-0.4-0.2c-0.2-0.2-0.2-0.6,0-0.8l1.6-1.6c0.2-0.2,0.6-0.2,0.8,0
				c0.2,0.2,0.2,0.6,0,0.8l-1.6,1.6C223,208.7,222.8,208.8,222.7,208.8z M317.8,207.9c-0.1,0-0.3-0.1-0.4-0.2
				c-0.2-0.2-0.2-0.6,0-0.8l1.6-1.6c0.2-0.2,0.6-0.2,0.8,0c0.2,0.2,0.2,0.6,0,0.8l-1.6,1.6C318.1,207.8,317.9,207.9,317.8,207.9z
				 M129.4,207.8c-0.1,0-0.3-0.1-0.4-0.2c-0.2-0.2-0.2-0.6,0-0.8l1.6-1.6c0.2-0.2,0.6-0.2,0.8,0c0.2,0.2,0.2,0.6,0,0.8l-1.6,1.6
				C129.7,207.8,129.6,207.8,129.4,207.8z M402.3,206.7C402.3,206.7,402.3,206.7,402.3,206.7c-0.4,0-0.6-0.3-0.5-0.6
				c0.1-0.7,0.1-1.4,0.1-2.2c0-0.3,0.3-0.5,0.6-0.5c0,0,0,0,0,0c0.3,0,0.5,0.3,0.5,0.6c0,0.7-0.1,1.5-0.1,2.2
				C402.9,206.5,402.6,206.7,402.3,206.7z M227.3,204.1c-0.1,0-0.3-0.1-0.4-0.2c-0.2-0.2-0.2-0.6,0-0.8l1.6-1.6
				c0.2-0.2,0.6-0.2,0.8,0c0.2,0.2,0.2,0.6,0,0.8l-1.6,1.6C227.6,204.1,227.5,204.1,227.3,204.1z M322.4,203.2
				c-0.1,0-0.3-0.1-0.4-0.2c-0.2-0.2-0.2-0.6,0-0.8l1.6-1.6c0.2-0.2,0.6-0.2,0.8,0c0.2,0.2,0.2,0.6,0,0.8l-1.6,1.6
				C322.7,203.2,322.6,203.2,322.4,203.2z M134.1,203.2c-0.1,0-0.3-0.1-0.4-0.2c-0.2-0.2-0.2-0.6,0-0.8l1.6-1.6
				c0.2-0.2,0.6-0.2,0.8,0c0.2,0.2,0.2,0.6,0,0.8l-1.6,1.6C134.4,203.1,134.2,203.2,134.1,203.2z M402.3,200.1
				c-0.3,0-0.5-0.2-0.5-0.5c-0.1-0.7-0.2-1.4-0.3-2.1c-0.1-0.3,0.1-0.6,0.4-0.6c0.3-0.1,0.6,0.1,0.6,0.4c0.1,0.7,0.2,1.5,0.3,2.2
				C402.8,199.8,402.6,200.1,402.3,200.1C402.3,200.1,402.3,200.1,402.3,200.1z M232,199.5c-0.1,0-0.3-0.1-0.4-0.2
				c-0.2-0.2-0.2-0.6,0-0.8l1.6-1.6c0.2-0.2,0.6-0.2,0.8,0c0.2,0.2,0.2,0.6,0,0.8l-1.6,1.6C232.3,199.4,232.1,199.5,232,199.5z
				 M327.1,198.6c-0.1,0-0.3-0.1-0.4-0.2c-0.2-0.2-0.2-0.6,0-0.8l1.6-1.6c0.2-0.2,0.6-0.2,0.8,0c0.2,0.2,0.2,0.6,0,0.8l-1.6,1.6
				C327.4,198.5,327.2,198.6,327.1,198.6z M138.7,198.5c-0.1,0-0.3-0.1-0.4-0.2c-0.2-0.2-0.2-0.6,0-0.8l1.6-1.6
				c0.2-0.2,0.6-0.2,0.8,0c0.2,0.2,0.2,0.6,0,0.8l-1.6,1.6C139,198.5,138.9,198.5,138.7,198.5z M236.7,194.8c-0.1,0-0.3-0.1-0.4-0.2
				c-0.2-0.2-0.2-0.6,0-0.8l1.6-1.6c0.2-0.2,0.6-0.2,0.8,0c0.2,0.2,0.2,0.6,0,0.8l-1.6,1.6C236.9,194.7,236.8,194.8,236.7,194.8z
				 M331.8,193.9c-0.1,0-0.3-0.1-0.4-0.2c-0.2-0.2-0.2-0.6,0-0.8l1.6-1.6c0.2-0.2,0.6-0.2,0.8,0c0.2,0.2,0.2,0.6,0,0.8l-1.6,1.6
				C332,193.9,331.9,193.9,331.8,193.9z M143.4,193.9c-0.1,0-0.3-0.1-0.4-0.2c-0.2-0.2-0.2-0.6,0-0.8l1.6-1.6c0.2-0.2,0.6-0.2,0.8,0
				c0.2,0.2,0.2,0.6,0,0.8l-1.6,1.6C143.7,193.8,143.5,193.9,143.4,193.9z M400.9,193.7c-0.2,0-0.4-0.1-0.5-0.4
				c-0.2-0.7-0.5-1.4-0.7-2c-0.1-0.3,0-0.6,0.3-0.7c0.3-0.1,0.6,0,0.7,0.3c0.3,0.7,0.5,1.4,0.8,2.1c0.1,0.3-0.1,0.6-0.4,0.7
				C401,193.7,400.9,193.7,400.9,193.7z M241.3,190.1c-0.1,0-0.3-0.1-0.4-0.2c-0.2-0.2-0.2-0.6,0-0.8l1.6-1.6c0.2-0.2,0.6-0.2,0.8,0
				c0.2,0.2,0.2,0.6,0,0.8l-1.6,1.6C241.6,190.1,241.5,190.1,241.3,190.1z M336.4,189.3c-0.1,0-0.3-0.1-0.4-0.2
				c-0.2-0.2-0.2-0.6,0-0.8l1.6-1.6c0.2-0.2,0.6-0.2,0.8,0c0.2,0.2,0.2,0.6,0,0.8l-1.6,1.6C336.7,189.2,336.6,189.3,336.4,189.3z
				 M148,189.2c-0.1,0-0.3-0.1-0.4-0.2c-0.2-0.2-0.2-0.6,0-0.8l1.6-1.6c0.2-0.2,0.6-0.2,0.8,0c0.2,0.2,0.2,0.6,0,0.8l-1.6,1.6
				C148.3,189.1,148.2,189.2,148,189.2z M398.3,187.6c-0.2,0-0.4-0.1-0.5-0.3c-0.4-0.6-0.7-1.2-1.1-1.8c-0.2-0.3-0.1-0.6,0.2-0.8
				c0.3-0.2,0.6-0.1,0.8,0.2c0.4,0.6,0.8,1.3,1.2,1.9c0.1,0.3,0.1,0.6-0.2,0.7C398.5,187.6,398.4,187.6,398.3,187.6z M246,185.5
				c-0.1,0-0.3-0.1-0.4-0.2c-0.2-0.2-0.2-0.6,0-0.8l1.6-1.6c0.2-0.2,0.6-0.2,0.8,0c0.2,0.2,0.2,0.6,0,0.8l-1.6,1.6
				C246.3,185.4,246.1,185.5,246,185.5z M341.1,184.6c-0.1,0-0.3-0.1-0.4-0.2c-0.2-0.2-0.2-0.6,0-0.8l1.6-1.6c0.2-0.2,0.6-0.2,0.8,0
				c0.2,0.2,0.2,0.6,0,0.8l-1.6,1.6C341.4,184.6,341.2,184.6,341.1,184.6z M152.7,184.5c-0.1,0-0.3-0.1-0.4-0.2
				c-0.2-0.2-0.2-0.6,0-0.8l1.6-1.6c0.2-0.2,0.6-0.2,0.8,0c0.2,0.2,0.2,0.6,0,0.8l-1.6,1.6C153,184.5,152.8,184.5,152.7,184.5z
				 M394.5,182.3c-0.2,0-0.3-0.1-0.4-0.2c-0.5-0.5-1-1.1-1.5-1.6c-0.2-0.2-0.2-0.6,0-0.8c0.2-0.2,0.6-0.2,0.8,0
				c0.5,0.5,1,1.1,1.5,1.6c0.2,0.2,0.2,0.6-0.1,0.8C394.7,182.2,394.6,182.3,394.5,182.3z M250.6,180.8c-0.1,0-0.3-0.1-0.4-0.2
				c-0.2-0.2-0.2-0.6,0-0.8l1.6-1.6c0.2-0.2,0.6-0.2,0.8,0c0.2,0.2,0.2,0.6,0,0.8l-1.6,1.6C250.9,180.8,250.8,180.8,250.6,180.8z
				 M345.7,179.9c-0.1,0-0.3-0.1-0.4-0.2c-0.2-0.2-0.2-0.6,0-0.8c0.5-0.5,1.1-1,1.6-1.5c0.2-0.2,0.6-0.2,0.8,0.1
				c0.2,0.2,0.2,0.6-0.1,0.8c-0.5,0.5-1.1,1-1.6,1.5C346,179.9,345.9,179.9,345.7,179.9z M157.4,179.9c-0.1,0-0.3-0.1-0.4-0.2
				c-0.2-0.2-0.2-0.6,0-0.8l1.6-1.6c0.2-0.2,0.6-0.2,0.8,0c0.2,0.2,0.2,0.6,0,0.8l-1.6,1.6C157.6,179.8,157.5,179.9,157.4,179.9z
				 M389.8,177.7c-0.1,0-0.2,0-0.3-0.1c-0.6-0.5-1.1-0.9-1.7-1.3c-0.2-0.2-0.3-0.5-0.1-0.8c0.2-0.2,0.5-0.3,0.8-0.1
				c0.6,0.4,1.2,0.9,1.8,1.3c0.2,0.2,0.3,0.5,0.1,0.8C390.1,177.6,389.9,177.7,389.8,177.7z M255.3,176.2c-0.1,0-0.3-0.1-0.4-0.2
				c-0.2-0.2-0.2-0.6,0-0.8l1.6-1.6c0.2-0.2,0.6-0.2,0.8,0c0.2,0.2,0.2,0.6,0,0.8l-1.6,1.6C255.6,176.1,255.4,176.2,255.3,176.2z
				 M350.8,175.8c-0.2,0-0.4-0.1-0.5-0.2c-0.2-0.3-0.1-0.6,0.2-0.8c0.6-0.4,1.3-0.8,1.9-1.2c0.3-0.2,0.6-0.1,0.8,0.2
				c0.2,0.3,0.1,0.6-0.2,0.8c-0.6,0.4-1.2,0.7-1.8,1.1C351,175.8,350.9,175.8,350.8,175.8z M162,175.2c-0.1,0-0.3-0.1-0.4-0.2
				c-0.2-0.2-0.2-0.6,0-0.8l1.6-1.6c0.2-0.2,0.6-0.2,0.8,0c0.2,0.2,0.2,0.6,0,0.8l-1.6,1.6C162.3,175.2,162.2,175.2,162,175.2z
				 M384.3,174.1c-0.1,0-0.2,0-0.3-0.1c-0.6-0.3-1.3-0.6-1.9-0.9c-0.3-0.1-0.4-0.4-0.3-0.7c0.1-0.3,0.5-0.4,0.7-0.3
				c0.7,0.3,1.4,0.6,2,1c0.3,0.1,0.4,0.5,0.2,0.7C384.7,174,384.5,174.1,384.3,174.1z M356.6,172.7c-0.2,0-0.4-0.1-0.5-0.3
				c-0.1-0.3,0-0.6,0.3-0.7c0.7-0.3,1.4-0.5,2.1-0.8c0.3-0.1,0.6,0.1,0.7,0.4c0.1,0.3-0.1,0.6-0.4,0.7c-0.7,0.2-1.4,0.5-2,0.7
				C356.8,172.7,356.7,172.7,356.6,172.7z M378.2,171.6c-0.1,0-0.1,0-0.2,0c-0.7-0.2-1.4-0.4-2.1-0.5c-0.3-0.1-0.5-0.4-0.4-0.7
				c0.1-0.3,0.4-0.5,0.7-0.4c0.7,0.2,1.5,0.3,2.2,0.5c0.3,0.1,0.5,0.4,0.4,0.7C378.6,171.5,378.4,171.6,378.2,171.6z M260,171.5
				c-0.1,0-0.3-0.1-0.4-0.2c-0.2-0.2-0.2-0.6,0-0.8l1.6-1.6c0.2-0.2,0.6-0.2,0.8,0c0.2,0.2,0.2,0.6,0,0.8l-1.6,1.6
				C260.2,171.5,260.1,171.5,260,171.5z M363,170.9c-0.3,0-0.5-0.2-0.5-0.4c-0.1-0.3,0.1-0.6,0.4-0.6c0.7-0.1,1.5-0.2,2.2-0.3
				c0.3,0,0.6,0.2,0.6,0.5c0,0.3-0.2,0.6-0.5,0.6c-0.7,0.1-1.4,0.2-2.1,0.3C363,170.9,363,170.9,363,170.9z M166.7,170.6
				c-0.1,0-0.3-0.1-0.4-0.2c-0.2-0.2-0.2-0.6,0-0.8l1.6-1.6c0.2-0.2,0.6-0.2,0.8,0c0.2,0.2,0.2,0.6,0,0.8l-1.6,1.6
				C167,170.5,166.8,170.6,166.7,170.6z M371.7,170.4C371.7,170.4,371.7,170.4,371.7,170.4c-0.8-0.1-1.5-0.1-2.2-0.1
				c-0.3,0-0.5-0.3-0.5-0.6c0-0.3,0.3-0.5,0.6-0.5c0.7,0,1.5,0,2.2,0.1c0.3,0,0.5,0.3,0.5,0.6C372.2,170.2,372,170.4,371.7,170.4z
				 M264.6,166.9c-0.1,0-0.3-0.1-0.4-0.2c-0.2-0.2-0.2-0.6,0-0.8l1.6-1.6c0.2-0.2,0.6-0.2,0.8,0c0.2,0.2,0.2,0.6,0,0.8l-1.6,1.6
				C264.9,166.8,264.7,166.9,264.6,166.9z M171.3,165.9c-0.1,0-0.3-0.1-0.4-0.2c-0.2-0.2-0.2-0.6,0-0.8l1.6-1.6
				c0.2-0.2,0.6-0.2,0.8,0c0.2,0.2,0.2,0.6,0,0.8l-1.6,1.6C171.6,165.9,171.5,165.9,171.3,165.9z M269.3,162.2
				c-0.1,0-0.3-0.1-0.4-0.2c-0.2-0.2-0.2-0.6,0-0.8l1.6-1.6c0.2-0.2,0.6-0.2,0.8,0c0.2,0.2,0.2,0.6,0,0.8l-1.6,1.6
				C269.5,162.1,269.4,162.2,269.3,162.2z M176,161.2c-0.1,0-0.3-0.1-0.4-0.2c-0.2-0.2-0.2-0.6,0-0.8l1.6-1.6c0.2-0.2,0.6-0.2,0.8,0
				c0.2,0.2,0.2,0.6,0,0.8l-1.6,1.6C176.3,161.2,176.1,161.2,176,161.2z M273.9,157.5c-0.1,0-0.3-0.1-0.4-0.2
				c-0.2-0.2-0.2-0.6,0-0.8l1.6-1.6c0.2-0.2,0.6-0.2,0.8,0c0.2,0.2,0.2,0.6,0,0.8l-1.6,1.6C274.2,157.5,274.1,157.5,273.9,157.5z
				 M180.7,156.6c-0.1,0-0.3-0.1-0.4-0.2c-0.2-0.2-0.2-0.6,0-0.8l1.6-1.6c0.2-0.2,0.6-0.2,0.8,0s0.2,0.6,0,0.8l-1.6,1.6
				C180.9,156.5,180.8,156.6,180.7,156.6z M278.6,152.9c-0.1,0-0.3-0.1-0.4-0.2c-0.2-0.2-0.2-0.6,0-0.8l1.6-1.6
				c0.2-0.2,0.6-0.2,0.8,0c0.2,0.2,0.2,0.6,0,0.8l-1.6,1.6C278.9,152.8,278.7,152.9,278.6,152.9z M185.3,151.9
				c-0.1,0-0.3-0.1-0.4-0.2c-0.2-0.2-0.2-0.6,0-0.8l1.6-1.6c0.2-0.2,0.6-0.2,0.8,0c0.2,0.2,0.2,0.6,0,0.8l-1.6,1.6
				C185.6,151.9,185.5,151.9,185.3,151.9z M283.2,148.2c-0.1,0-0.3-0.1-0.4-0.2c-0.2-0.2-0.2-0.6,0-0.8l1.6-1.6
				c0.2-0.2,0.6-0.2,0.8,0c0.2,0.2,0.2,0.6,0,0.8l-1.6,1.6C283.5,148.2,283.4,148.2,283.2,148.2z M190,147.3c-0.1,0-0.3-0.1-0.4-0.2
				c-0.2-0.2-0.2-0.6,0-0.8l1.6-1.6c0.2-0.2,0.6-0.2,0.8,0c0.2,0.2,0.2,0.6,0,0.8l-1.6,1.6C190.3,147.2,190.1,147.3,190,147.3z
				 M287.9,143.6c-0.1,0-0.3-0.1-0.4-0.2c-0.2-0.2-0.2-0.6,0-0.8l1.6-1.6c0.2-0.2,0.6-0.2,0.8,0s0.2,0.6,0,0.8l-1.6,1.6
				C288.2,143.5,288,143.6,287.9,143.6z M194.6,142.6c-0.1,0-0.3-0.1-0.4-0.2c-0.2-0.2-0.2-0.6,0-0.8l1.6-1.6c0.2-0.2,0.6-0.2,0.8,0
				c0.2,0.2,0.2,0.6,0,0.8l-1.6,1.6C194.9,142.6,194.8,142.6,194.6,142.6z M292.6,138.9c-0.1,0-0.3-0.1-0.4-0.2
				c-0.2-0.2-0.2-0.6,0-0.8l1.6-1.6c0.2-0.2,0.6-0.2,0.8,0c0.2,0.2,0.2,0.6,0,0.8l-1.6,1.6C292.8,138.9,292.7,138.9,292.6,138.9z
				 M199.3,138c-0.1,0-0.3-0.1-0.4-0.2c-0.2-0.2-0.2-0.6,0-0.8l1.6-1.6c0.2-0.2,0.6-0.2,0.8,0c0.2,0.2,0.2,0.6,0,0.8l-1.6,1.6
				C199.6,137.9,199.4,138,199.3,138z M297.2,134.3c-0.1,0-0.3-0.1-0.4-0.2c-0.2-0.2-0.2-0.6,0-0.8l1.5-1.5c0.2-0.2,0.6-0.2,0.8,0
				c0.2,0.2,0.2,0.6,0,0.8l-1.6,1.6C297.5,134.2,297.4,134.3,297.2,134.3z M203.9,133.3c-0.1,0-0.3-0.1-0.4-0.2
				c-0.2-0.2-0.2-0.6,0-0.8l1.6-1.6c0.2-0.2,0.6-0.2,0.8,0c0.2,0.2,0.2,0.6,0,0.8l-1.6,1.6C204.2,133.2,204.1,133.3,203.9,133.3z
				 M301.6,129.4c-0.1,0-0.2,0-0.3-0.1c-0.2-0.2-0.3-0.5-0.1-0.8c0.4-0.6,0.9-1.2,1.2-1.8c0.2-0.3,0.5-0.3,0.8-0.2
				c0.3,0.2,0.3,0.5,0.2,0.8c-0.4,0.6-0.8,1.2-1.3,1.8C302,129.3,301.8,129.4,301.6,129.4z M208.6,128.6c-0.1,0-0.3-0.1-0.4-0.2
				c-0.2-0.2-0.2-0.6,0-0.8l1.6-1.6c0.2-0.2,0.6-0.2,0.8,0c0.2,0.2,0.2,0.6,0,0.8l-1.6,1.6C208.9,128.6,208.7,128.6,208.6,128.6z
				 M213.3,124c-0.1,0-0.3-0.1-0.4-0.2c-0.2-0.2-0.2-0.6,0-0.8l1.6-1.6c0.2-0.2,0.6-0.2,0.8,0c0.2,0.2,0.2,0.6,0,0.8l-1.6,1.6
				C213.5,123.9,213.4,124,213.3,124z M305,123.8c-0.1,0-0.2,0-0.2-0.1c-0.3-0.1-0.4-0.5-0.3-0.7c0.3-0.7,0.6-1.3,0.9-2
				c0.1-0.3,0.4-0.4,0.7-0.3c0.3,0.1,0.4,0.4,0.3,0.7c-0.3,0.7-0.6,1.4-0.9,2C305.4,123.6,305.3,123.8,305,123.8z M217.9,119.3
				c-0.1,0-0.3-0.1-0.4-0.2c-0.2-0.2-0.2-0.6,0-0.8l1.6-1.6c0.2-0.2,0.6-0.2,0.8,0c0.2,0.2,0.2,0.6,0,0.8l-1.6,1.6
				C218.2,119.3,218.1,119.3,217.9,119.3z M307.3,117.6c0,0-0.1,0-0.1,0c-0.3-0.1-0.5-0.4-0.4-0.7c0.2-0.7,0.3-1.4,0.5-2.1
				c0.1-0.3,0.3-0.5,0.6-0.4c0.3,0.1,0.5,0.3,0.4,0.6c-0.1,0.7-0.3,1.5-0.5,2.2C307.7,117.4,307.5,117.6,307.3,117.6z M222.6,114.7
				c-0.1,0-0.3-0.1-0.4-0.2c-0.2-0.2-0.2-0.6,0-0.8l1.6-1.6c0.2-0.2,0.6-0.2,0.8,0c0.2,0.2,0.2,0.6,0,0.8l-1.6,1.6
				C222.9,114.6,222.7,114.7,222.6,114.7z M308.2,111.1C308.2,111.1,308.2,111.1,308.2,111.1c-0.3,0-0.6-0.3-0.5-0.6
				c0-0.5,0-1,0-1.5c0-0.2,0-0.5,0-0.7c0-0.3,0.2-0.6,0.5-0.6c0.3,0,0.6,0.2,0.6,0.5c0,0.2,0,0.5,0,0.7c0,0.5,0,1,0,1.5
				C308.8,110.8,308.5,111.1,308.2,111.1z M227.2,110c-0.1,0-0.3-0.1-0.4-0.2c-0.2-0.2-0.2-0.6,0-0.8l1.6-1.6c0.2-0.2,0.6-0.2,0.8,0
				s0.2,0.6,0,0.8l-1.6,1.6C227.5,110,227.4,110,227.2,110z M231.9,105.4c-0.1,0-0.3-0.1-0.4-0.2c-0.2-0.2-0.2-0.6,0-0.8l1.6-1.6
				c0.2-0.2,0.6-0.2,0.8,0c0.2,0.2,0.2,0.6,0,0.8l-1.6,1.6C232.2,105.3,232,105.4,231.9,105.4z M307.9,104.5c-0.3,0-0.5-0.2-0.5-0.5
				c-0.1-0.7-0.2-1.4-0.4-2.1c-0.1-0.3,0.1-0.6,0.4-0.7c0.3-0.1,0.6,0.1,0.7,0.4c0.2,0.7,0.3,1.5,0.4,2.2
				C308.4,104.2,308.2,104.4,307.9,104.5C307.9,104.5,307.9,104.5,307.9,104.5z M236.5,100.7c-0.1,0-0.3-0.1-0.4-0.2
				c-0.2-0.2-0.2-0.6,0-0.8l1.6-1.6c0.2-0.2,0.6-0.2,0.8,0c0.2,0.2,0.2,0.6,0,0.8l-1.6,1.6C236.8,100.6,236.7,100.7,236.5,100.7z
				 M306.2,98.1c-0.2,0-0.4-0.1-0.5-0.4c-0.2-0.7-0.5-1.3-0.8-2c-0.1-0.3,0-0.6,0.3-0.7c0.3-0.1,0.6,0,0.7,0.3
				c0.3,0.7,0.6,1.4,0.8,2.1c0.1,0.3,0,0.6-0.3,0.7C306.3,98.1,306.3,98.1,306.2,98.1z M241.2,96c-0.1,0-0.3-0.1-0.4-0.2
				c-0.2-0.2-0.2-0.6,0-0.8l1.6-1.6c0.2-0.2,0.6-0.2,0.8,0c0.2,0.2,0.2,0.6,0,0.8l-1.6,1.6C241.5,96,241.3,96,241.2,96z M303.3,92.2
				c-0.2,0-0.4-0.1-0.5-0.3c-0.4-0.6-0.8-1.2-1.2-1.8c-0.2-0.2-0.1-0.6,0.1-0.8c0.2-0.2,0.6-0.1,0.8,0.1c0.4,0.6,0.8,1.2,1.2,1.9
				c0.2,0.3,0.1,0.6-0.2,0.8C303.5,92.2,303.4,92.2,303.3,92.2z M245.9,91.4c-0.1,0-0.3-0.1-0.4-0.2c-0.2-0.2-0.2-0.6,0-0.8l1.6-1.6
				c0.2-0.2,0.6-0.2,0.8,0s0.2,0.6,0,0.8l-1.6,1.6C246.1,91.3,246,91.4,245.9,91.4z M299.3,87c-0.1,0-0.3-0.1-0.4-0.2
				c-0.2-0.3-0.5-0.5-0.7-0.7l-0.8-0.8c-0.2-0.2-0.2-0.6,0-0.8c0.2-0.2,0.6-0.2,0.8,0l0.8,0.8c0.3,0.3,0.5,0.5,0.8,0.8
				c0.2,0.2,0.2,0.6,0,0.8C299.6,86.9,299.5,87,299.3,87z M250.5,86.7c-0.1,0-0.3-0.1-0.4-0.2c-0.2-0.2-0.2-0.6,0-0.8l1-1
				c0.2-0.2,0.4-0.4,0.6-0.6c0.2-0.2,0.6-0.2,0.8,0c0.2,0.2,0.2,0.6,0,0.8c-0.2,0.2-0.4,0.4-0.6,0.6l-1,1
				C250.8,86.7,250.7,86.7,250.5,86.7z M294.4,82.6c-0.1,0-0.2,0-0.3-0.1c-0.6-0.4-1.2-0.8-1.8-1.2c-0.3-0.2-0.3-0.5-0.2-0.8
				c0.2-0.3,0.5-0.3,0.8-0.2c0.6,0.4,1.2,0.8,1.8,1.3c0.2,0.2,0.3,0.5,0.1,0.8C294.8,82.5,294.6,82.6,294.4,82.6z M255.5,82.4
				c-0.2,0-0.3-0.1-0.4-0.2c-0.2-0.2-0.1-0.6,0.1-0.8c0.6-0.4,1.2-0.9,1.8-1.2c0.3-0.2,0.6-0.1,0.8,0.2c0.2,0.3,0.1,0.6-0.2,0.8
				c-0.6,0.4-1.2,0.8-1.8,1.2C255.7,82.3,255.6,82.4,255.5,82.4z M288.8,79.2c-0.1,0-0.2,0-0.2-0.1c-0.7-0.3-1.3-0.6-2-0.8
				c-0.3-0.1-0.4-0.4-0.3-0.7c0.1-0.3,0.4-0.4,0.7-0.3c0.7,0.3,1.4,0.6,2.1,0.9c0.3,0.1,0.4,0.5,0.3,0.7
				C289.2,79.1,289,79.2,288.8,79.2z M261.1,79.1c-0.2,0-0.4-0.1-0.5-0.3c-0.1-0.3,0-0.6,0.3-0.7c0.7-0.3,1.4-0.6,2.1-0.9
				c0.3-0.1,0.6,0,0.7,0.3c0.1,0.3,0,0.6-0.3,0.7c-0.7,0.3-1.3,0.5-2,0.8C261.3,79,261.2,79.1,261.1,79.1z M282.6,77
				c0,0-0.1,0-0.1,0c-0.7-0.2-1.4-0.3-2.1-0.4c-0.3-0.1-0.5-0.3-0.4-0.6c0.1-0.3,0.3-0.5,0.6-0.4c0.7,0.1,1.5,0.3,2.2,0.5
				c0.3,0.1,0.5,0.4,0.4,0.7C283.1,76.9,282.8,77,282.6,77z M267.4,76.9c-0.3,0-0.5-0.2-0.5-0.4c-0.1-0.3,0.1-0.6,0.4-0.7
				c0.7-0.2,1.5-0.3,2.2-0.4c0.3,0,0.6,0.2,0.6,0.5c0,0.3-0.2,0.6-0.5,0.6c-0.7,0.1-1.4,0.3-2.1,0.4
				C267.4,76.9,267.4,76.9,267.4,76.9z M276.1,76.1C276.1,76.1,276.1,76.1,276.1,76.1c-0.7,0-1.5,0-2.2,0c-0.3,0-0.6-0.2-0.6-0.5
				c0-0.3,0.2-0.6,0.5-0.6c0.7,0,1.5,0,2.2,0c0.3,0,0.5,0.3,0.5,0.6C276.6,75.9,276.4,76.1,276.1,76.1z"/>
		</g>
		<g>
			<path class="st1" d="M102.1,235.1c-0.1,0-0.3-0.1-0.4-0.2c-0.2-0.2-0.2-0.6,0-0.8l0.8-0.8c0.2-0.2,0.6-0.2,0.8,0
				c0.2,0.2,0.2,0.6,0,0.8l-0.8,0.8C102.4,235,102.3,235.1,102.1,235.1z"/>
		</g>
	</g>
</g>
<g>
	<g>
		<rect x="125.9" y="358.1" class="st1" width="226.7" height="1.1"/>
	</g>
</g>
<path class="st2" d="M253.3,128.8c-0.5-0.1-0.9-0.1-1.4-0.1c-5.7,0-10.6,4.3-11.2,10c-0.7,6.2,3.7,11.9,9.9,12.6
	c0.5,0.1,0.9,0.1,1.4,0.1c5.7,0,10.6-4.3,11.2-10C263.9,135.2,259.5,129.6,253.3,128.8z M261.1,141.2c-0.6,4.7-4.5,8.2-9.2,8.2
	c-0.4,0-0.7,0-1.1-0.1c-5.1-0.6-8.7-5.2-8.1-10.3c0.6-4.7,4.5-8.2,9.2-8.2c0.4,0,0.7,0,1.1,0.1C258.1,131.5,261.7,136.1,261.1,141.2
	z"/>
<g>
	<g>
		<path class="st2" d="M313.7,194.3l1.9-7.2c0.1-0.4-0.2-0.7-0.6-0.6l-7.2,1.9c-0.4,0.1-0.5,0.6-0.2,0.8l0.6,0.6
			c0.2,0.2,0.2,0.5,0,0.7l-2.7,2.7c-0.2,0.2-0.2,0.5,0,0.7l2.6,2.6c0.2,0.2,0.5,0.2,0.7,0l2.7-2.7c0.2-0.2,0.5-0.2,0.7,0l0.6,0.6
			C313.2,194.8,313.6,194.7,313.7,194.3z"/>
		<path class="st2" d="M302.3,197.9c0.3,0.4,0.6,0.7,0.9,1c4.1,4.1,10.5,4.4,15,0.9c4.9-3.9,5.8-11,1.9-15.9c-0.3-0.4-0.6-0.7-0.9-1
			c-4.1-4.1-10.5-4.4-15-0.9C299.3,185.9,298.5,193,302.3,197.9z M305.5,183.6c3.7-2.9,9-2.6,12.3,0.7c0.3,0.3,0.5,0.5,0.7,0.8
			c3.2,4,2.5,9.9-1.6,13c-3.7,2.9-9,2.6-12.3-0.7c-0.3-0.3-0.5-0.5-0.7-0.8C300.8,192.6,301.5,186.8,305.5,183.6z"/>
	</g>
</g>
<path class="st2" d="M159.7,206.1c-0.5-0.1-0.9-0.1-1.4-0.1c-5.7,0-10.6,4.3-11.2,10c-0.7,6.2,3.7,11.9,9.9,12.6
	c0.5,0.1,0.9,0.1,1.4,0.1c5.7,0,10.6-4.3,11.2-10C170.4,212.5,165.9,206.8,159.7,206.1z M167.6,218.4c-0.6,4.7-4.5,8.2-9.2,8.2
	c-0.4,0-0.7,0-1.1-0.1c-5.1-0.6-8.7-5.2-8.1-10.3c0.6-4.7,4.5-8.2,9.2-8.2c0.4,0,0.7,0,1.1,0.1C164.6,208.7,168.2,213.4,167.6,218.4
	z M164.4,217.9c0,0.4-0.1,0.7-0.3,1s-0.4,0.5-0.6,0.7c-0.2,0.2-0.5,0.4-0.8,0.5c-0.3,0.1-0.6,0.2-0.9,0.2c-0.5,0-1-0.1-1.3-0.2
	c-0.3-0.1-0.6-0.3-0.7-0.5c-0.1,0.1-0.1,0.2-0.2,0.3c-0.1,0.1-0.2,0.2-0.4,0.3c-0.2,0.1-0.3,0.2-0.6,0.2c-0.2,0.1-0.5,0.1-0.9,0.1
	c-0.4,0-0.7-0.1-1-0.2c-0.3-0.1-0.6-0.4-0.8-0.6c-0.2-0.3-0.4-0.6-0.5-1c-0.1-0.4-0.2-0.8-0.2-1.3c0-0.5,0.1-0.9,0.2-1.3
	c0.1-0.4,0.3-0.7,0.5-1c0.2-0.3,0.4-0.5,0.7-0.6c0.3-0.2,0.6-0.2,1-0.2c0.4,0,0.7,0.1,0.9,0.2c0.2,0.1,0.4,0.3,0.6,0.5v-0.1
	c0-0.1,0-0.2,0.1-0.3c0.1-0.1,0.2-0.1,0.3-0.1h1.1c0.1,0,0.2,0,0.3,0.1c0.1,0.1,0.1,0.2,0.1,0.3v3c0,0.5,0.2,0.8,0.7,0.8
	c0.2,0,0.4-0.1,0.5-0.2c0.1-0.1,0.2-0.3,0.2-0.6c0-0.3,0-0.5,0-0.8c0-0.3,0-0.5,0-0.8c0-0.6-0.1-1.1-0.3-1.5c-0.1-0.4-0.4-0.8-0.7-1
	c-0.3-0.3-0.8-0.5-1.3-0.6s-1.2-0.2-2-0.2c-0.7,0-1.2,0.1-1.7,0.3c-0.5,0.2-0.9,0.4-1.2,0.7c-0.3,0.3-0.6,0.6-0.7,1
	c-0.2,0.4-0.3,0.8-0.3,1.3c0,0.1,0,0.3,0,0.5c0,0.2,0,0.5,0,0.7c0,0.2,0,0.5,0,0.7c0,0.2,0,0.4,0,0.6c0.1,0.5,0.2,1,0.4,1.4
	c0.2,0.4,0.4,0.7,0.8,1c0.3,0.3,0.8,0.5,1.3,0.6s1.1,0.2,1.8,0.2c0.4,0,0.8,0,1.1,0c0.3,0,0.5-0.1,0.8-0.1c0.2-0.1,0.4-0.1,0.6-0.2
	c0.2-0.1,0.3-0.2,0.5-0.3c0.1-0.1,0.2-0.1,0.3-0.2c0.1,0,0.2-0.1,0.3-0.1h1.5c0.1,0,0.2,0,0.3,0.1c0.1,0.1,0.1,0.2,0.1,0.3
	c0,0.1,0,0.1,0,0.1c0,0,0,0.1-0.1,0.1c-0.2,0.3-0.5,0.5-0.8,0.8c-0.3,0.3-0.7,0.5-1.1,0.7c-0.4,0.2-0.9,0.3-1.5,0.5
	c-0.5,0.1-1.2,0.2-1.8,0.2c-1,0-1.9-0.1-2.7-0.4c-0.8-0.3-1.4-0.6-1.9-1.1c-0.5-0.5-0.9-1-1.1-1.6c-0.3-0.6-0.4-1.3-0.5-1.9
	c0-0.1,0-0.3,0-0.6c0-0.2,0-0.5,0-0.8c0-0.3,0-0.5,0-0.7c0-0.2,0-0.4,0-0.6c0.1-0.6,0.2-1.2,0.5-1.8c0.3-0.6,0.6-1.1,1.1-1.6
	c0.5-0.5,1.1-0.9,1.8-1.2c0.7-0.3,1.6-0.5,2.5-0.5c1.2,0,2.1,0.1,2.9,0.4c0.8,0.3,1.4,0.6,1.8,1.1c0.5,0.5,0.8,1,1,1.6
	c0.2,0.6,0.3,1.3,0.4,1.9c0,0.3,0,0.6,0,0.9S164.4,217.6,164.4,217.9z M157.3,217.3c0,0.5,0.1,0.8,0.3,1c0.2,0.2,0.4,0.3,0.7,0.3
	c0.3,0,0.5-0.1,0.7-0.3c0.2-0.2,0.3-0.5,0.3-1c0-0.5-0.1-0.8-0.3-1c-0.2-0.2-0.4-0.3-0.7-0.3c-0.3,0-0.5,0.1-0.7,0.3
	C157.4,216.5,157.3,216.8,157.3,217.3z"/>
<path class="st3" d="M277.9,349.1h-66.1c-9.5,0-17.2-8.5-17.2-19V200.6c0-10.5,7.7-19,17.2-19h66.1c9.5,0,17.2,8.5,17.2,19V330
	C295,340.5,287.3,349.1,277.9,349.1z"/>
<g>
	<path class="st4" d="M272.4,349.1h-66.1c-9.5,0-17.2-8.5-17.2-19V200.6c0-10.5,7.7-19,17.2-19h66.1c9.5,0,17.2,8.5,17.2,19V330
		C289.5,340.5,281.8,349.1,272.4,349.1z"/>
	<path class="st1" d="M272.4,349.6h-66.1c-9.8,0-17.7-8.8-17.7-19.6V200.6c0-10.8,7.9-19.6,17.7-19.6h66.1c9.8,0,17.7,8.8,17.7,19.6
		V330C290.1,340.8,282.1,349.6,272.4,349.6z M206.3,182.1c-9.2,0-16.6,8.3-16.6,18.5V330c0,10.2,7.5,18.5,16.6,18.5h66.1
		c9.2,0,16.6-8.3,16.6-18.5V200.6c0-10.2-7.5-18.5-16.6-18.5H206.3z"/>
</g>
<g>
	<g>
		<path class="st1" d="M286.2,201.2c-0.3,0-0.6-0.2-0.6-0.6c0-1.4-0.2-2.8-0.5-4.2c-0.1-0.3,0.1-0.6,0.4-0.7
			c0.3-0.1,0.6,0.1,0.7,0.4c0.4,1.4,0.5,2.9,0.5,4.4C286.8,200.9,286.5,201.2,286.2,201.2z"/>
	</g>
</g>
<g>
	<g>
		<path class="st1" d="M284.5,193.5c-0.2,0-0.4-0.1-0.5-0.3c-2.1-4.2-5.8-7.1-9.9-7.7c-0.3,0-0.5-0.3-0.5-0.6c0-0.3,0.3-0.5,0.6-0.5
			c4.5,0.7,8.5,3.8,10.7,8.3c0.1,0.3,0,0.6-0.3,0.7C284.7,193.5,284.6,193.5,284.5,193.5z"/>
	</g>
</g>
<g>
	<rect x="189.1" y="205.2" class="st5" width="100.4" height="124.8"/>
	<path class="st1" d="M290.1,330.6H188.5V204.7h101.5V330.6z M189.6,329.5H289V205.8h-99.3V329.5z"/>
</g>
<g>
	<g>
		<g>
			<path class="st1" d="M235.4,194.5h-11.5c-0.3,0-0.6-0.2-0.6-0.6c0-0.3,0.2-0.6,0.6-0.6h11.5c0.3,0,0.6,0.2,0.6,0.6
				C235.9,194.3,235.7,194.5,235.4,194.5z"/>
		</g>
		<g>
			<path class="st1" d="M243.1,194.5h-3c-0.3,0-0.6-0.2-0.6-0.6c0-0.3,0.2-0.6,0.6-0.6h3c0.3,0,0.6,0.2,0.6,0.6
				C243.6,194.3,243.4,194.5,243.1,194.5z"/>
		</g>
		<g>
			<path class="st1" d="M252,197.5c-1.8,0-3.3-1.6-3.3-3.6s1.5-3.6,3.3-3.6c1.8,0,3.3,1.6,3.3,3.6S253.8,197.5,252,197.5z
				 M252,191.5c-1.2,0-2.2,1.1-2.2,2.5c0,1.4,1,2.5,2.2,2.5c1.2,0,2.2-1.1,2.2-2.5C254.2,192.6,253.2,191.5,252,191.5z"/>
		</g>
	</g>
</g>
<path class="st3" d="M249.5,346.1h-20.4c-2,0-3.6-1.8-3.6-4v-0.1c0-2.2,1.6-4,3.6-4h20.4c2,0,3.6,1.8,3.6,4v0.1
	C253.1,344.4,251.5,346.1,249.5,346.1z"/>
<g>
	<path class="st4" d="M249.5,343.9h-20.4c-2,0-3.6-1.8-3.6-4v-0.1c0-2.2,1.6-4,3.6-4h20.4c2,0,3.6,1.8,3.6,4v0.1
		C253.1,342.2,251.5,343.9,249.5,343.9z"/>
	<path class="st1" d="M249.5,344.5h-20.4c-2.3,0-4.1-2-4.1-4.5c0-2.6,1.8-4.6,4.1-4.6h20.4c2.3,0,4.1,2,4.1,4.5
		C253.6,342.5,251.8,344.5,249.5,344.5z M229.1,336.5c-1.7,0-3,1.5-3,3.4c0,2,1.4,3.5,3,3.5h20.4c1.7,0,3-1.5,3-3.4
		c0-2-1.4-3.5-3-3.5H229.1z"/>
</g>
<path class="st3" d="M158.3,394.3l15.4-28.5c0,0-2.4-49.9,0.1-55.1c2.5-5.1,15.3-26.3,15.3-26.3v35.6l9,9.4c0,0,11-17.5,12.8-21.2
	c1.8-3.7,8.1-17.6,12.5-20.5c4.4-2.9,14.1-1.4,10,10c-4.1,11.4-14.8,27.5-14.7,32.8c0.1,5.3,5,27.3-11,52.2
	c-15.9,24.9-20.8,32.9-20.8,32.9L158.3,394.3z"/>
<rect x="158.5" y="373.1" transform="matrix(0.5344 -0.8452 0.8452 0.5344 -254.5741 338.3975)" class="st3" width="42.8" height="54.4"/>
<path class="st6" d="M153.9,394.3l15.4-28.5c0,0-2.4-49.9,0.1-55.1c2.5-5.1,19.6-26.3,19.6-26.3v39.2l4.6,5.8c0,0,11-17.5,12.8-21.2
	c1.8-3.7,8.1-17.6,12.5-20.5c4.4-2.9,14.1-1.4,10,10c-4.1,11.4-14.8,27.5-14.7,32.8c0.1,5.3,5,27.3-11,52.2
	c-15.9,24.9-20.8,32.9-20.8,32.9L153.9,394.3z"/>
<g>
	<path class="st7" d="M224.3,286.6c1.4,1.8,1.9,4.7,0.3,9c-4.1,11.4-14.8,27.5-14.7,32.8c0.1,5.3,5,27.3-11,52.2
		c-13.2,20.6-18.8,29.7-20.3,32.2l3.9,3c0,0,4.8-8.1,20.8-32.9c15.9-24.9,11.1-46.9,11-52.2c-0.1-5.3,10.7-21.4,14.7-32.8
		C231.7,290.2,228.2,287,224.3,286.6z"/>
</g>
<g>
	<g>
		<path class="st1" d="M182.6,416.5l-29.5-22.1l15.6-28.7c-0.2-3.6-2.3-50.1,0.2-55.2c2.5-5.1,19-25.5,19.7-26.4l1-1.2v40.6l4,5
			c2-3.2,10.8-17.3,12.3-20.5l0.6-1.2c2.4-5,8-16.9,12.1-19.6c1.3-0.9,3.1-1.4,4.8-1.4c2.5,0,4.6,1,5.8,2.7c1.1,1.5,2,4.3,0.2,9.3
			c-1.8,5.1-4.9,11.1-7.9,16.8c-3.5,6.7-6.8,13-6.7,15.7c0,0.7,0.1,1.6,0.2,2.9c0.8,8.3,2.7,27.9-11.3,49.6
			C188,407.6,183,415.9,183,416L182.6,416.5z M154.6,394.1l27.8,20.8c1.3-2.1,6.9-11.2,20.5-32.4c13.7-21.4,11.9-40.7,11.1-48.9
			c-0.1-1.3-0.2-2.2-0.2-3c0-3,3.2-9.2,6.9-16.3c3-5.7,6.1-11.6,7.9-16.7c1.3-3.5,1.3-6.4-0.1-8.3c-1-1.4-2.8-2.2-4.9-2.2
			c-1.5,0-3.1,0.4-4.2,1.2c-3.9,2.5-9.6,14.6-11.7,19.1l-0.6,1.2c-1.8,3.7-12.4,20.5-12.8,21.2l-0.4,0.7l-5.2-6.5v-37.9
			c-3.7,4.6-16.5,20.6-18.6,25c-1.9,4-0.9,37.6-0.1,54.8l0,0.2L154.6,394.1z"/>
	</g>
</g>
<rect x="154.1" y="373.1" transform="matrix(0.5344 -0.8452 0.8452 0.5344 -256.6242 334.6759)" class="st1" width="42.8" height="54.4"/>
<g>
	<path class="st8" d="M218.9,260.7c-1.8,0-3.2,1.6-2.9,3.4c2,12.2,12.5,21.6,25.3,21.6c12.8,0,23.4-9.3,25.3-21.6
		c0.3-1.8-1.1-3.4-2.9-3.4H218.9z"/>
	<path class="st1" d="M241.3,286.2c-12.9,0-23.8-9.3-25.9-22c-0.2-1,0.1-2,0.8-2.8c0.7-0.8,1.6-1.2,2.7-1.2h44.8c1,0,2,0.4,2.7,1.2
		c0.7,0.8,0.9,1.8,0.8,2.8C265.2,276.9,254.3,286.2,241.3,286.2z M218.9,261.2c-0.7,0-1.4,0.3-1.8,0.8c-0.5,0.5-0.6,1.2-0.5,1.9
		c2,12.2,12.4,21.1,24.8,21.1c12.4,0,22.8-8.9,24.8-21.1c0.1-0.7-0.1-1.4-0.5-1.9c-0.5-0.5-1.1-0.8-1.8-0.8H218.9z"/>
</g>
<g>
	<g>
		<path class="st1" d="M232.2,244.8c-0.6,0-1.1-0.5-1.1-1.1c0-3.8-3.1-7-7-7c-3.1,0-5.8,2-6.7,5c-0.2,0.6-0.8,0.9-1.4,0.7
			c-0.6-0.2-0.9-0.8-0.7-1.4c1.1-3.9,4.8-6.6,8.8-6.6c5.1,0,9.2,4.1,9.2,9.2C233.3,244.3,232.8,244.8,232.2,244.8z"/>
	</g>
</g>
<g>
	<g>
		<path class="st1" d="M250.5,244.8c-0.6,0-1.1-0.5-1.1-1.1c0-5.1,4.1-9.2,9.2-9.2c4,0,7.6,2.7,8.8,6.6c0.2,0.6-0.2,1.2-0.7,1.4
			c-0.6,0.2-1.2-0.2-1.4-0.7c-0.9-2.9-3.6-5-6.7-5c-3.8,0-7,3.1-7,7C251.6,244.3,251.1,244.8,250.5,244.8z"/>
	</g>
</g>
<g>
	<path class="st9" d="M229.7,282.8c3.5,1.8,7.5,2.8,11.7,2.8c4.2,0,8.2-1,11.7-2.8c-0.5-5.4-5.6-9.6-11.7-9.6
		C235.2,273.2,230.2,277.4,229.7,282.8z"/>
	<path class="st1" d="M241.3,286.2c-4.2,0-8.2-1-11.9-2.9l-0.3-0.2l0-0.4c0.6-5.8,5.8-10.1,12.2-10.1c6.4,0,11.7,4.4,12.2,10.1
		l0,0.4l-0.3,0.2C249.5,285.2,245.5,286.2,241.3,286.2z M230.3,282.5c3.5,1.7,7.2,2.6,11.1,2.6c3.9,0,7.6-0.9,11.1-2.6
		c-0.7-5-5.5-8.8-11.1-8.8S231,277.5,230.3,282.5z"/>
</g>
<g>
	<g>
		<path class="st1" d="M265.4,228.5c-0.3,0-0.6-0.1-0.8-0.4c-4.5-4.9-10.9-3-11.2-2.9c-0.6,0.2-1.2-0.1-1.4-0.7
			c-0.2-0.6,0.1-1.2,0.7-1.4c0.3-0.1,8.1-2.4,13.5,3.5c0.4,0.4,0.4,1.1-0.1,1.6C265.9,228.4,265.6,228.5,265.4,228.5z"/>
	</g>
</g>
<g>
	<g>
		<path class="st1" d="M217.3,228.5c-0.3,0-0.5-0.1-0.7-0.3c-0.4-0.4-0.5-1.1-0.1-1.6c5.4-5.9,13.2-3.6,13.5-3.5
			c0.6,0.2,0.9,0.8,0.7,1.4c-0.2,0.6-0.8,0.9-1.4,0.7c-0.3-0.1-6.8-2-11.2,2.9C217.9,228.4,217.6,228.5,217.3,228.5z"/>
	</g>
</g>
<ellipse class="st10" cx="241.4" cy="278.3" rx="4.7" ry="3.3"/>
<ellipse class="st10" cx="248.7" cy="281.4" rx="1.8" ry="1.3"/>
<g>
	<g>
		<polygon class="st11" points="181.4,378.7 180.5,378.1 157.7,414.3 158.6,414.9 		"/>
		<polygon class="st11" points="169.8,371.4 168.9,370.8 146.1,407 147.1,407.6 		"/>
		<polygon class="st11" points="175.6,375.1 174.7,374.5 151.9,410.7 152.9,411.3 		"/>
		<polygon class="st11" points="163.9,367.7 141,403.8 141.3,404 164.1,367.8 		"/>
		<polygon class="st11" points="187.2,382.4 186.3,381.8 163.5,418 164.4,418.6 		"/>
		<polygon class="st11" points="209.9,396.7 209.4,396.4 186.6,432.6 187,432.9 		"/>
		<polygon class="st11" points="198.8,389.7 197.8,389.1 175.1,425.3 176,425.9 		"/>
		<polygon class="st11" points="204.5,393.4 203.6,392.8 180.8,429 181.8,429.6 		"/>
		<polygon class="st11" points="193,386 192,385.4 169.3,421.7 170.2,422.2 		"/>
	</g>
</g>
<g>
	<g>
		<path class="st1" d="M187.2,433.6L140.3,404l23.4-37.1l46.9,29.6L187.2,433.6z M141.8,403.6l45,28.5l22.3-35.2l-45-28.5
			L141.8,403.6z"/>
	</g>
</g>
<g>
	<circle class="st4" cx="198.2" cy="402.5" r="3.9"/>
	<path class="st1" d="M198.2,406.9c-2.4,0-4.4-2-4.4-4.4s2-4.4,4.4-4.4s4.4,2,4.4,4.4S200.6,406.9,198.2,406.9z M198.2,399.2
		c-1.8,0-3.3,1.5-3.3,3.3c0,1.8,1.5,3.3,3.3,3.3c1.8,0,3.3-1.5,3.3-3.3C201.5,400.7,200,399.2,198.2,399.2z"/>
</g>
<g>
	<g>
		<path class="st1" d="M295,261.2c-0.3,0-0.6-0.2-0.6-0.6v-17c0-0.3,0.2-0.6,0.6-0.6c0.3,0,0.6,0.2,0.6,0.6v17
			C295.6,261,295.3,261.2,295,261.2z"/>
	</g>
</g>
<g>
	<g>
		<path class="st1" d="M295,271.1c-0.3,0-0.6-0.2-0.6-0.6v-2.9c0-0.3,0.2-0.6,0.6-0.6c0.3,0,0.6,0.2,0.6,0.6v2.9
			C295.6,270.8,295.3,271.1,295,271.1z"/>
	</g>
</g>
<g>
	<g>
		<path class="st1" d="M197.8,172.6c-0.1,0-0.3-0.1-0.4-0.2L195,170c-0.2-0.2-0.2-0.6,0-0.8c0.2-0.2,0.6-0.2,0.8,0l2.4,2.4
			c0.2,0.2,0.2,0.6,0,0.8C198.1,172.5,197.9,172.6,197.8,172.6z"/>
	</g>
</g>
<g>
	<g>
		<path class="st1" d="M195.4,176.3c-0.1,0-0.3-0.1-0.4-0.2c-0.2-0.2-0.2-0.6,0-0.8l2.4-2.4c0.2-0.2,0.6-0.2,0.8,0
			c0.2,0.2,0.2,0.6,0,0.8l-2.4,2.4C195.7,176.3,195.5,176.3,195.4,176.3z"/>
	</g>
</g>
<g>
	<g>
		<path class="st1" d="M201.5,176.3c-0.1,0-0.3-0.1-0.4-0.2l-2.4-2.4c-0.2-0.2-0.2-0.6,0-0.8c0.2-0.2,0.6-0.2,0.8,0l2.4,2.4
			c0.2,0.2,0.2,0.6,0,0.8C201.8,176.3,201.7,176.3,201.5,176.3z"/>
	</g>
</g>
<g>
	<g>
		<path class="st1" d="M199.1,172.6c-0.1,0-0.3-0.1-0.4-0.2c-0.2-0.2-0.2-0.6,0-0.8l2.4-2.4c0.2-0.2,0.6-0.2,0.8,0
			c0.2,0.2,0.2,0.6,0,0.8l-2.4,2.4C199.4,172.5,199.3,172.6,199.1,172.6z"/>
	</g>
</g>
<g>
	<path class="st4" d="M170.9,313.1c-0.1,0-0.2,0-0.3-0.1c-0.3-0.2-0.3-0.5-0.2-0.8l2.8-4.4c0.2-0.3,0.5-0.3,0.8-0.2
		c0.3,0.2,0.3,0.5,0.2,0.8l-2.8,4.4C171.2,313,171.1,313.1,170.9,313.1z"/>
</g>
<g>
	<path class="st4" d="M199.1,223.5c-0.1,0-0.3-0.1-0.4-0.2c-0.2-0.2-0.2-0.6,0-0.8l6.8-6.8c0.2-0.2,0.6-0.2,0.8,0
		c0.2,0.2,0.2,0.6,0,0.8l-6.8,6.8C199.4,223.5,199.2,223.5,199.1,223.5z"/>
</g>
<g>
	<path class="st4" d="M194.7,223.5c-0.1,0-0.3-0.1-0.4-0.2c-0.2-0.2-0.2-0.6,0-0.8l11.2-11.2c0.2-0.2,0.6-0.2,0.8,0
		c0.2,0.2,0.2,0.6,0,0.8l-11.2,11.2C195,223.5,194.8,223.5,194.7,223.5z"/>
</g>
<g>
	<g>
		
			<ellipse transform="matrix(0.9985 -5.560724e-02 5.560724e-02 0.9985 -17.7021 16.4516)" class="st11" cx="286.8" cy="326.3" rx="16.7" ry="16.7"/>
		<path class="st1" d="M286.8,343.6c-9.2,0-16.7-7.2-17.2-16.3c-0.5-9.5,6.8-17.7,16.3-18.2c9.6-0.5,17.7,6.8,18.2,16.3
			c0.3,4.6-1.3,9-4.4,12.5c-3.1,3.4-7.3,5.5-11.9,5.7C287.4,343.6,287.1,343.6,286.8,343.6z M286.8,310.1c-0.3,0-0.6,0-0.9,0
			c-8.9,0.5-15.7,8.1-15.3,17.1c0.5,8.9,8.1,15.8,17.1,15.3c8.9-0.5,15.7-8.1,15.3-17.1C302.4,316.9,295.4,310.1,286.8,310.1z"/>
	</g>
	<path class="st8" d="M286,313.3c8.6-0.5,16.1,5.6,17.4,14c0-0.6,0-1.2,0-1.8c-0.5-9.2-8.4-16.3-17.6-15.8
		c-9.2,0.5-16.3,8.4-15.8,17.6c0,0.6,0.1,1.2,0.2,1.8C270.7,320.6,277.4,313.7,286,313.3z"/>
	<path class="st1" d="M287.8,343.9c-9.7,0.5-18.1-6.9-18.6-16.6c-0.5-9.7,6.9-18.1,16.6-18.6c9.7-0.5,18.1,6.9,18.6,16.6
		C304.9,335.1,297.5,343.4,287.8,343.9z M285.9,310.5c-8.7,0.5-15.4,8-14.9,16.7c0.5,8.7,8,15.4,16.7,14.9c8.7-0.5,15.4-8,14.9-16.7
		C302.1,316.7,294.6,310,285.9,310.5z"/>
</g>
<g>
	<g>
		<g>
			<path class="st3" d="M121.2,326.3H31c-2.7,0-4.9-2.2-4.9-4.9V213.2c0-2.7,2.2-4.9,4.9-4.9h90.2c2.7,0,4.9,2.2,4.9,4.9v108.2
				C126,324.1,123.8,326.3,121.2,326.3z"/>
			<g>
				<path class="st12" d="M117.9,323H27.7c-2.7,0-4.9-2.2-4.9-4.9V209.9c0-2.7,2.2-4.9,4.9-4.9h90.2c2.7,0,4.9,2.2,4.9,4.9v108.2
					C122.7,320.8,120.5,323,117.9,323z"/>
				<path class="st1" d="M117.9,323.5H27.7c-3,0-5.4-2.4-5.4-5.4V209.9c0-3,2.4-5.4,5.4-5.4h90.2c3,0,5.4,2.4,5.4,5.4v108.2
					C123.3,321.1,120.8,323.5,117.9,323.5z M27.7,205.5c-2.4,0-4.3,1.9-4.3,4.3v108.2c0,2.4,1.9,4.3,4.3,4.3h90.2
					c2.4,0,4.3-1.9,4.3-4.3V209.9c0-2.4-1.9-4.3-4.3-4.3H27.7z"/>
			</g>
			<g>
				<circle class="st4" cx="71.6" cy="254.8" r="37.4"/>
				<path class="st1" d="M71.6,292.7c-20.9,0-38-17-38-38s17-38,38-38c20.9,0,38,17,38,38S92.5,292.7,71.6,292.7z M71.6,217.9
					c-20.3,0-36.9,16.5-36.9,36.9c0,20.3,16.5,36.9,36.9,36.9c20.3,0,36.9-16.5,36.9-36.9C108.5,234.4,91.9,217.9,71.6,217.9z"/>
			</g>
			<g>
				<path class="st4" d="M40.8,311.7h-8.4c-1.5,0-2.8-1.2-2.8-2.8v-8.4c0-1.5,1.2-2.8,2.8-2.8h8.4c1.5,0,2.8,1.2,2.8,2.8v8.4
					C43.6,310.5,42.4,311.7,40.8,311.7z"/>
				<path class="st1" d="M40.8,312.3h-8.4c-1.8,0-3.3-1.5-3.3-3.3v-8.4c0-1.8,1.5-3.3,3.3-3.3h8.4c1.8,0,3.3,1.5,3.3,3.3v8.4
					C44.1,310.8,42.7,312.3,40.8,312.3z M32.4,298.4c-1.2,0-2.2,1-2.2,2.2v8.4c0,1.2,1,2.2,2.2,2.2h8.4c1.2,0,2.2-1,2.2-2.2v-8.4
					c0-1.2-1-2.2-2.2-2.2H32.4z"/>
			</g>
			<g>
				<g>
					<path class="st1" d="M78.5,302H47c-0.3,0-0.6-0.2-0.6-0.6c0-0.3,0.2-0.6,0.6-0.6h31.5c0.3,0,0.6,0.2,0.6,0.6
						C79,301.8,78.8,302,78.5,302z"/>
				</g>
			</g>
			<g>
				<g>
					<path class="st1" d="M68.3,308.7H47c-0.3,0-0.6-0.2-0.6-0.6c0-0.3,0.2-0.6,0.6-0.6h21.3c0.3,0,0.6,0.2,0.6,0.6
						C68.9,308.4,68.6,308.7,68.3,308.7z"/>
				</g>
			</g>
			<g>
				<g>
					<g>
						<path class="st13" d="M104.1,273.6H39.4v-34.1c0-17.7,14.4-32.1,32.1-32.1h0.6c17.7,0,32.1,14.4,32.1,32.1V273.6z"/>
					</g>
					<g>
						<g>
							<path class="st14" d="M104.7,274.1H38.8v-34.6c0-18,14.6-32.6,32.6-32.6h0.6c18,0,32.6,14.6,32.6,32.6V274.1z M39.9,273h63.7
								v-33.5c0-17.4-14.1-31.5-31.5-31.5h-0.6c-17.4,0-31.5,14.1-31.5,31.5V273z"/>
						</g>
					</g>
				</g>
			</g>
			<g>
				<path class="st6" d="M101.4,238.9c-0.1,0-0.2,0-0.3,0c-2-14.4-14.3-25.4-29.2-25.4h-0.6c-14.9,0-27.2,11.1-29.2,25.4
					c-0.1,0-0.2,0-0.3,0c-4.6,0-8.4,3.7-8.4,8.4c0,4.6,3.7,8.4,8.4,8.4v1.7c0,16.3,13.2,29.5,29.5,29.5h0.6
					c16.3,0,29.5-13.2,29.5-29.5v-1.7c4.6,0,8.4-3.7,8.4-8.4C109.8,242.7,106,238.9,101.4,238.9z"/>
			</g>
			<g>
				<g>
					<path class="st6" d="M101.4,238.9c-0.1,0-0.2,0-0.3,0c-2-14.4-14.3-25.4-29.2-25.4h-0.6c-14.9,0-27.2,11.1-29.2,25.4
						c-0.1,0-0.2,0-0.3,0c-4.6,0-8.4,3.7-8.4,8.4c0,4.6,3.7,8.4,8.4,8.4v1.7c0,16.3,13.2,29.5,29.5,29.5h0.6
						c16.3,0,29.5-13.2,29.5-29.5v-1.7c4.6,0,8.4-3.7,8.4-8.4C109.8,242.7,106,238.9,101.4,238.9z"/>
				</g>
				<g>
					<path class="st6" d="M101.4,238.9c-0.1,0-0.2,0-0.3,0c-2-14.4-14.3-25.4-29.2-25.4h-0.6c-14.9,0-27.2,11.1-29.2,25.4
						c-0.1,0-0.2,0-0.3,0c-4.6,0-8.4,3.7-8.4,8.4c0,4.6,3.7,8.4,8.4,8.4v1.7c0,16.3,13.2,29.5,29.5,29.5h0.6
						c16.3,0,29.5-13.2,29.5-29.5v-1.7c4.6,0,8.4-3.7,8.4-8.4C109.8,242.7,106,238.9,101.4,238.9z"/>
				</g>
				<g>
					<path class="st15" d="M101.4,238.9c-0.1,0-0.2,0-0.3,0c-2-14.4-14.3-25.4-29.2-25.4h-0.6c-14.9,0-27.2,11.1-29.2,25.4
						c-0.1,0-0.2,0-0.3,0c-4.6,0-8.4,3.7-8.4,8.4c0,4.6,3.7,8.4,8.4,8.4v1.7c0,16.3,13.2,29.5,29.5,29.5h0.6
						c16.3,0,29.5-13.2,29.5-29.5v-1.7c4.6,0,8.4-3.7,8.4-8.4C109.8,242.7,106,238.9,101.4,238.9z"/>
				</g>
			</g>
			<path class="st16" d="M66.6,253.8L66.6,253.8c0,2.9,2.3,5.1,5.1,5.1h0.1c2.8,0,5.1-2.3,5.1-5.1v-0.1H66.6z"/>
			<path class="st16" d="M101,252.5L101,252.5c2.9,0,5.1-2.3,5.1-5.1v-0.1c0-2.8-2.3-5.1-5.1-5.1H101V252.5z"/>
			<path class="st16" d="M41.8,252.5L41.8,252.5c-2.9,0-5.1-2.3-5.1-5.1v-0.1c0-2.8,2.3-5.1,5.1-5.1h0.1V252.5z"/>
			<circle class="st17" cx="61.4" cy="245.8" r="1.9"/>
			<circle class="st17" cx="82.7" cy="245.8" r="1.9"/>
			<g>
				<path class="st18" d="M87.7,240.5c-0.1,0-0.3-0.1-0.4-0.2c-4.8-4.9-9.3-1.4-9.5-1.3c-0.2,0.2-0.6,0.1-0.8-0.1
					c-0.2-0.2-0.1-0.6,0.1-0.8c0.1,0,5.5-4.2,11,1.4c0.2,0.2,0.2,0.6,0,0.8C88,240.4,87.8,240.5,87.7,240.5z"/>
			</g>
			<g>
				<path class="st18" d="M56.3,240.5c-0.1,0-0.3-0.1-0.4-0.2c-0.2-0.2-0.2-0.6,0-0.8c5.5-5.6,10.9-1.4,11-1.4
					c0.2,0.2,0.3,0.5,0.1,0.8c-0.2,0.2-0.5,0.3-0.8,0.1c-0.2-0.1-4.7-3.6-9.5,1.3C56.6,240.4,56.5,240.5,56.3,240.5z"/>
			</g>
			<g>
				<g>
					<path class="st1" d="M98.6,302H85c-0.3,0-0.6-0.2-0.6-0.6c0-0.3,0.2-0.6,0.6-0.6h13.5c0.3,0,0.6,0.2,0.6,0.6
						C99.1,301.8,98.9,302,98.6,302z"/>
				</g>
			</g>
			<g>
				<g>
					<path class="st1" d="M80.2,308.7h-4.1c-0.3,0-0.6-0.2-0.6-0.6c0-0.3,0.2-0.6,0.6-0.6h4.1c0.3,0,0.6,0.2,0.6,0.6
						C80.7,308.4,80.5,308.7,80.2,308.7z"/>
				</g>
			</g>
			<g>
				<g>
					<path class="st1" d="M87.8,308.7H85c-0.3,0-0.6-0.2-0.6-0.6c0-0.3,0.2-0.6,0.6-0.6h2.8c0.3,0,0.6,0.2,0.6,0.6
						C88.4,308.4,88.1,308.7,87.8,308.7z"/>
				</g>
			</g>
			<g>
				<path class="st4" d="M53.5,246.4c0.1,4.2,3.6,7.6,7.9,7.6c4.3,0,7.7-3.4,7.9-7.6H53.5z"/>
				<path class="st1" d="M61.4,254.6c-4.6,0-8.3-3.6-8.4-8.2l0-0.6h16.9l0,0.6C69.7,251,66,254.6,61.4,254.6z M54.1,246.9
					c0.4,3.7,3.5,6.5,7.3,6.5c3.8,0,6.9-2.8,7.3-6.5H54.1z"/>
			</g>
			<g>
				<path class="st4" d="M74.8,246.4c0.1,4.2,3.6,7.6,7.9,7.6c4.3,0,7.7-3.4,7.9-7.6H74.8z"/>
				<path class="st1" d="M82.7,254.6c-4.6,0-8.3-3.6-8.4-8.2l0-0.6h16.9l0,0.6C91,251,87.3,254.6,82.7,254.6z M75.4,246.9
					c0.4,3.7,3.5,6.5,7.3,6.5c3.8,0,6.9-2.8,7.3-6.5H75.4z"/>
			</g>
			<g>
				<g>
					<path class="st1" d="M75.5,246.9h-6.4c-0.3,0-0.6-0.2-0.6-0.6c0-0.3,0.2-0.6,0.6-0.6h6.4c0.3,0,0.6,0.2,0.6,0.6
						C76,246.7,75.8,246.9,75.5,246.9z"/>
				</g>
			</g>
			<g>
				<circle class="st4" cx="101" cy="255.6" r="3.3"/>
				<path class="st1" d="M101,259.5c-2.1,0-3.8-1.7-3.8-3.8s1.7-3.8,3.8-3.8c2.1,0,3.8,1.7,3.8,3.8S103.2,259.5,101,259.5z
					 M101,252.9c-1.5,0-2.7,1.2-2.7,2.7c0,1.5,1.2,2.7,2.7,2.7c1.5,0,2.7-1.2,2.7-2.7C103.8,254.1,102.5,252.9,101,252.9z"/>
			</g>
			<g>
				<g>
					<path class="st1" d="M90.6,246.9c-0.2,0-0.4-0.1-0.5-0.3c-0.2-0.3-0.1-0.6,0.2-0.8l12-7.4c0.3-0.2,0.6-0.1,0.8,0.2
						c0.2,0.3,0.1,0.6-0.2,0.8l-12,7.4C90.8,246.9,90.7,246.9,90.6,246.9z"/>
				</g>
			</g>
			<ellipse class="st19" cx="71.7" cy="266.8" rx="3.9" ry="2.5"/>
			<circle class="st19" cx="90.4" cy="258.3" r="2.6"/>
			<circle class="st19" cx="54.1" cy="258.3" r="2.6"/>
			<g>
				<path class="st13" d="M72.1,207.4h-0.6c-17.6,0-31.9,14.2-32,31.8c-0.2,8.1,0,34.3,0,34.3h0.2c8.4,0,15.2-6.8,15.2-15.2v-24.5
					c0-11.8,17.6-17.3,25.8-19.2c0,0,0,0,0.1,0c1.5,5.9,7.3,25,20.5,24.1c0,0,0,0,0,0c0.1,0,0.2,0,0.3,0c0.9,0,1.9,0.2,2.7,0.5
					C104,221.7,89.7,207.4,72.1,207.4z"/>
				<path class="st14" d="M39.5,274.1h-0.7l0-0.5c0-0.3-0.2-26.4,0-34.3c0.1-17.8,14.8-32.4,32.6-32.4h0.6
					c17.9,0,32.5,14.6,32.6,32.5l0,0.8l-0.7-0.2c-0.8-0.3-1.7-0.4-2.5-0.4l-0.3,0c-0.3,0-0.6,0-0.9,0c-12.6,0-18.4-17.9-20-24.1
					c-7.9,1.9-24.9,7.2-24.9,18.5v24.5C55.2,267.1,48.2,274.1,39.5,274.1z M71.4,208c-17.2,0-31.4,14-31.5,31.3
					c-0.2,7.3,0,29.9,0,33.7c7.9-0.2,14.2-6.7,14.2-14.6v-24.5c0-12.3,18.3-17.9,26.2-19.7l0.2,0l0.4,0.2l0.1,0.3
					c1.4,5.7,7.2,24.6,20,23.7l0.1,0c0.8,0,1.6,0.1,2.3,0.3c-0.5-17-14.4-30.6-31.5-30.6H71.4z"/>
			</g>
			<g>
				<path class="st18" d="M71.9,267.3c-3.4,0-6.7-1.2-8.9-3.3c-0.2-0.2-0.2-0.6,0-0.8c0.2-0.2,0.6-0.2,0.8,0c2,1.9,5,3,8.2,3
					c3,0,5.9-1,7.9-2.8c0.2-0.2,0.6-0.2,0.8,0.1c0.2,0.2,0.2,0.6-0.1,0.8C78.3,266.2,75.1,267.3,71.9,267.3z"/>
			</g>
		</g>
		<g>
			<g>
				<path class="st20" d="M100.9,237.7c-13.9-4.3-17.6-23.3-17.8-24.1l1.1-0.2c0,0.2,3.7,19.2,17,23.2L100.9,237.7z"/>
			</g>
		</g>
		<g>
			<g>
				<path class="st20" d="M52,231.3l-1.1-0.3c4.2-15,24.3-18,24.5-18l0.2,1.1C75.3,214.1,55.9,216.9,52,231.3z"/>
			</g>
		</g>
		<g>
			<g>
				<path class="st20" d="M99.9,233.7c-7.7-3.5-12.5-17.8-12.7-18.4l1-0.3c0,0.1,4.8,14.5,12.1,17.7L99.9,233.7z"/>
			</g>
		</g>
		<g>
			<g>
				<path class="st20" d="M50.1,224.7l-1-0.5c7.5-13.6,25.5-14,25.6-14l0,1.1C74.7,211.3,57.4,211.7,50.1,224.7z"/>
			</g>
		</g>
	</g>
	<path class="st3" d="M67.1,182.9H10.6c-1.5,0-2.8,1.2-2.8,2.8v18.7c0,1.5,1.2,2.8,2.8,2.8h21.8l4.6,7.8c0.7,1.2,2.4,1.2,3.1,0
		l4.6-7.8h22.4c1.5,0,2.8-1.2,2.8-2.8v-18.7C69.8,184.1,68.6,182.9,67.1,182.9z"/>
	<g>
		<path class="st4" d="M64.9,180.7H8.4c-1.5,0-2.8,1.2-2.8,2.8v18.7c0,1.5,1.2,2.8,2.8,2.8h21.8l4.6,7.8c0.7,1.2,2.4,1.2,3.1,0
			l4.6-7.8h22.4c1.5,0,2.8-1.2,2.8-2.8v-18.7C67.6,181.9,66.4,180.7,64.9,180.7z"/>
		<path class="st1" d="M36.3,214.1c-0.8,0-1.6-0.4-2-1.1l-4.4-7.5H8.4c-1.8,0-3.3-1.5-3.3-3.3v-18.7c0-1.8,1.5-3.3,3.3-3.3h56.5
			c1.8,0,3.3,1.5,3.3,3.3v18.7c0,1.8-1.5,3.3-3.3,3.3H42.8l-4.4,7.5C37.9,213.6,37.2,214.1,36.3,214.1z M8.4,181.2
			c-1.2,0-2.2,1-2.2,2.2v18.7c0,1.2,1,2.2,2.2,2.2h22.1l4.8,8c0.5,0.8,1.7,0.8,2.1,0l4.8-8h22.7c1.2,0,2.2-1,2.2-2.2v-18.7
			c0-1.2-1-2.2-2.2-2.2H8.4z"/>
	</g>
	<g>
		<g>
			<path class="st1" d="M19.6,193.5H14c-0.3,0-0.6-0.2-0.6-0.6c0-0.3,0.2-0.6,0.6-0.6h5.7c0.3,0,0.6,0.2,0.6,0.6
				C20.2,193.2,20,193.5,19.6,193.5z"/>
		</g>
	</g>
	<g>
		<g>
			<path class="st1" d="M46.8,193.5H24.2c-0.3,0-0.6-0.2-0.6-0.6c0-0.3,0.2-0.6,0.6-0.6h22.6c0.3,0,0.6,0.2,0.6,0.6
				C47.3,193.2,47.1,193.5,46.8,193.5z"/>
		</g>
	</g>
	<g>
		<g>
			<path class="st1" d="M51.6,193.5h-1.9c-0.3,0-0.6-0.2-0.6-0.6c0-0.3,0.2-0.6,0.6-0.6h1.9c0.3,0,0.6,0.2,0.6,0.6
				C52.2,193.2,51.9,193.5,51.6,193.5z"/>
		</g>
	</g>
	<g>
		<g>
			<path class="st1" d="M55.5,193.5h-1.9c-0.3,0-0.6-0.2-0.6-0.6c0-0.3,0.2-0.6,0.6-0.6h1.9c0.3,0,0.6,0.2,0.6,0.6
				C56,193.2,55.8,193.5,55.5,193.5z"/>
		</g>
	</g>
	<g>
		<g>
			<path class="st1" d="M59.3,193.5h-1.9c-0.3,0-0.6-0.2-0.6-0.6c0-0.3,0.2-0.6,0.6-0.6h1.9c0.3,0,0.6,0.2,0.6,0.6
				C59.9,193.2,59.6,193.5,59.3,193.5z"/>
		</g>
	</g>
</g>
<g>
	<path class="st3" d="M238.3,124.4h-90.2c-2.7,0-4.9-2.2-4.9-4.9V11.3c0-2.7,2.2-4.9,4.9-4.9h90.2c2.7,0,4.9,2.2,4.9,4.9v108.2
		C243.2,122.2,241,124.4,238.3,124.4z"/>
	<g>
		<path class="st8" d="M235,121.1h-90.2c-2.7,0-4.9-2.2-4.9-4.9V8c0-2.7,2.2-4.9,4.9-4.9H235c2.7,0,4.9,2.2,4.9,4.9v108.2
			C239.9,118.9,237.7,121.1,235,121.1z"/>
		<path class="st1" d="M235,121.6h-90.2c-3,0-5.4-2.4-5.4-5.4V8c0-3,2.4-5.4,5.4-5.4H235c3,0,5.4,2.4,5.4,5.4v108.2
			C240.4,119.2,238,121.6,235,121.6z M144.8,3.6c-2.4,0-4.3,1.9-4.3,4.3v108.2c0,2.4,1.9,4.3,4.3,4.3H235c2.4,0,4.3-1.9,4.3-4.3V8
			c0-2.4-1.9-4.3-4.3-4.3H144.8z"/>
	</g>
	<g>
		<g>
			<circle class="st4" cx="188.8" cy="52.9" r="37.4"/>
		</g>
		<g>
			<circle class="st21" cx="188.8" cy="52.9" r="37.4"/>
		</g>
		<g>
			<circle class="st22" cx="188.8" cy="52.9" r="37.4"/>
		</g>
	</g>
	<g>
		<path class="st4" d="M158,109.9h-8.4c-1.5,0-2.8-1.2-2.8-2.8v-8.4c0-1.5,1.2-2.8,2.8-2.8h8.4c1.5,0,2.8,1.2,2.8,2.8v8.4
			C160.8,108.6,159.5,109.9,158,109.9z"/>
		<path class="st1" d="M158,110.4h-8.4c-1.8,0-3.3-1.5-3.3-3.3v-8.4c0-1.8,1.5-3.3,3.3-3.3h8.4c1.8,0,3.3,1.5,3.3,3.3v8.4
			C161.3,108.9,159.8,110.4,158,110.4z M149.6,96.5c-1.2,0-2.2,1-2.2,2.2v8.4c0,1.2,1,2.2,2.2,2.2h8.4c1.2,0,2.2-1,2.2-2.2v-8.4
			c0-1.2-1-2.2-2.2-2.2H149.6z"/>
	</g>
	<g>
		<g>
			<g>
				<path class="st1" d="M219.4,100.1h-55.2c-0.3,0-0.6-0.2-0.6-0.6c0-0.3,0.2-0.6,0.6-0.6h55.2c0.3,0,0.6,0.2,0.6,0.6
					C219.9,99.9,219.7,100.1,219.4,100.1z"/>
			</g>
			<g>
				<path class="st1" d="M180.9,106.8h-16.7c-0.3,0-0.6-0.2-0.6-0.6c0-0.3,0.2-0.6,0.6-0.6h16.7c0.3,0,0.6,0.2,0.6,0.6
					C181.4,106.5,181.2,106.8,180.9,106.8z"/>
			</g>
			<g>
				<path class="st1" d="M199.1,106.8h-11.8c-0.3,0-0.6-0.2-0.6-0.6c0-0.3,0.2-0.6,0.6-0.6h11.8c0.3,0,0.6,0.2,0.6,0.6
					C199.7,106.5,199.4,106.8,199.1,106.8z"/>
			</g>
		</g>
	</g>
	<g>
		<path class="st6" d="M218.6,37c-0.1,0-0.2,0-0.3,0c-2-14.4-14.3-25.4-29.2-25.4h-0.6c-14.9,0-27.2,11.1-29.2,25.4
			c-0.1,0-0.2,0-0.3,0c-4.6,0-8.4,3.7-8.4,8.4s3.7,8.4,8.4,8.4v1.7c0,16.3,13.2,29.5,29.5,29.5h0.6c16.3,0,29.5-13.2,29.5-29.5v-1.7
			c4.6,0,8.4-3.7,8.4-8.4S223.2,37,218.6,37z"/>
	</g>
	<g>
		<g>
			<path class="st6" d="M218.6,37c-0.1,0-0.2,0-0.3,0c-2-14.4-14.3-25.4-29.2-25.4h-0.6c-14.9,0-27.2,11.1-29.2,25.4
				c-0.1,0-0.2,0-0.3,0c-4.6,0-8.4,3.7-8.4,8.4s3.7,8.4,8.4,8.4v1.7c0,16.3,13.2,29.5,29.5,29.5h0.6c16.3,0,29.5-13.2,29.5-29.5
				v-1.7c4.6,0,8.4-3.7,8.4-8.4S223.2,37,218.6,37z"/>
		</g>
		<g>
			<path class="st6" d="M218.6,37c-0.1,0-0.2,0-0.3,0c-2-14.4-14.3-25.4-29.2-25.4h-0.6c-14.9,0-27.2,11.1-29.2,25.4
				c-0.1,0-0.2,0-0.3,0c-4.6,0-8.4,3.7-8.4,8.4s3.7,8.4,8.4,8.4v1.7c0,16.3,13.2,29.5,29.5,29.5h0.6c16.3,0,29.5-13.2,29.5-29.5
				v-1.7c4.6,0,8.4-3.7,8.4-8.4S223.2,37,218.6,37z"/>
		</g>
		<g>
			<path class="st23" d="M218.6,37c-0.1,0-0.2,0-0.3,0c-2-14.4-14.3-25.4-29.2-25.4h-0.6c-14.9,0-27.2,11.1-29.2,25.4
				c-0.1,0-0.2,0-0.3,0c-4.6,0-8.4,3.7-8.4,8.4s3.7,8.4,8.4,8.4v1.7c0,16.3,13.2,29.5,29.5,29.5h0.6c16.3,0,29.5-13.2,29.5-29.5
				v-1.7c4.6,0,8.4-3.7,8.4-8.4S223.2,37,218.6,37z"/>
		</g>
	</g>
	<path class="st24" d="M183.7,51.9L183.7,51.9c0,2.9,2.3,5.1,5.1,5.1h0.1c2.8,0,5.1-2.3,5.1-5.1v-0.1H183.7z"/>
	<path class="st24" d="M218.2,50.6L218.2,50.6c2.9,0,5.1-2.3,5.1-5.1v-0.1c0-2.8-2.3-5.1-5.1-5.1h-0.1V50.6z"/>
	<path class="st24" d="M158.9,50.6L158.9,50.6c-2.9,0-5.1-2.3-5.1-5.1v-0.1c0-2.8,2.3-5.1,5.1-5.1h0.1V50.6z"/>
	<g>
		<g>
			<path class="st4" d="M184.3,64.6c0.6,2,2.4,3.5,4.6,3.5c2.2,0,4-1.5,4.6-3.5l-4.5,0.3L184.3,64.6z"/>
			<path class="st24" d="M188.8,68.6c-2.3,0-4.4-1.6-5.1-3.9l-0.2-0.8l5.4,0.4l5.2-0.4l-0.2,0.8C193.3,67,191.2,68.6,188.8,68.6z
				 M185.1,65.2c0.7,1.4,2.2,2.3,3.7,2.3c1.6,0,3-0.9,3.7-2.3l-3.6,0.3L185.1,65.2z"/>
		</g>
	</g>
	<g>
		<path class="st24" d="M189,65.5c-3.4,0-6.7-1.2-8.9-3.3c-0.2-0.2-0.2-0.6,0-0.8c0.2-0.2,0.6-0.2,0.8,0c2,1.9,5,3,8.2,3
			c3,0,5.9-1,7.9-2.8c0.2-0.2,0.6-0.2,0.8,0.1c0.2,0.2,0.2,0.6-0.1,0.8C195.4,64.3,192.3,65.5,189,65.5z"/>
	</g>
	<path class="st25" d="M218,42.7L218,42.7h0.2v-6c-0.9-5.8-3.4-11-7.1-15.1c-0.1,0-0.1-0.1-0.2-0.1c0-0.1,0-0.1,0-0.2
		c-5.4-5.9-13.1-9.6-21.8-9.6h-0.6c-11.2,0-21,6.3-25.9,15.5c1.3-0.6,2.3-1.3,2.3-1.3s-3.1,5.2,3,5.4c6.1,0.2,12-4,12-4
		s-1.5,3.1,2.2,4s9.4-3.7,12.1-5.7c0,0-1.2,3.6,1.1,4.9c2.6,1.4,7.4,0.3,13.3-4.7l0.3,8.1C208.9,38.7,213,42.7,218,42.7z"/>
	<g>
		<path class="st26" d="M158.9,40.5h0.1c6,0,10.9-4.9,10.9-10.9v-11h-0.1c-6,0-10.9,4.9-10.9,10.9V40.5z"/>
		<path class="st27" d="M159,41h-0.7V29.5c0-6.3,5.1-11.4,11.4-11.4h0.7v11.5C170.5,35.9,165.3,41,159,41z M169.4,19.2
			c-5.5,0.2-9.9,4.8-9.9,10.3v10.4c5.5-0.2,9.9-4.8,9.9-10.3V19.2z"/>
	</g>
	<circle class="st27" cx="178.6" cy="44" r="1.9"/>
	<circle class="st27" cx="199.9" cy="44" r="1.9"/>
	<g>
		<path class="st26" d="M210.8,19.2c-0.7-4.8-5.1-12.1-21.1-12.1c-28.9,0-36.2,14.5-33.4,17.6c2.8,3.1,8.4-1.1,8.4-1.1
			s-3.1,5.2,3,5.4c6.1,0.2,12-4,12-4s-1.5,3.1,2.2,4s9.4-3.7,12.1-5.7c0,0-1.2,3.6,1.1,4.9c2.6,1.4,7.4,0.3,13.3-4.7l0.3,8.1
			c0.2,5,4.3,9,9.3,9h0.1h0.1v-11C218.2,24.7,215.1,20.7,210.8,19.2z"/>
		<path class="st27" d="M218.7,41h-0.7c-5.4,0-9.7-4.2-9.9-9.5l-0.3-7c-3.8,3-7.4,4.7-10.3,4.7c-1,0-1.9-0.2-2.7-0.6
			c-1.7-0.9-1.8-2.7-1.7-4.1c-2.8,2.1-6.9,5-10.2,5c-0.4,0-0.8,0-1.2-0.1c-1.3-0.3-2.2-0.9-2.6-1.9c-0.2-0.5-0.3-1.1-0.3-1.5
			c-2.1,1.2-6.5,3.5-11.1,3.4c-2-0.1-3.3-0.7-3.9-1.8c-0.5-0.9-0.4-1.9-0.2-2.8c-1.2,0.7-2.9,1.4-4.6,1.4c-1.3,0-2.3-0.4-3.1-1.3
			c-0.9-1-0.9-2.9,0-4.9c2.8-6.3,13.4-13.6,33.8-13.6c17.7,0,21,9,21.6,12.3c4.4,1.7,7.4,5.9,7.4,10.7V41z M208.9,22.3l0.3,9.2
			c0.2,4.6,3.8,8.2,8.4,8.4V29.5c0-4.4-2.8-8.3-7-9.8l-0.3-0.1l0-0.3c-0.4-2.7-3.1-11.7-20.5-11.7c-19.9,0-30.1,7-32.8,13
			c-0.7,1.6-0.8,3.1-0.2,3.7c0.6,0.6,1.3,1,2.3,1c2.5,0,5.4-2.2,5.4-2.2l2.2-1.7l-1.4,2.4c-0.3,0.6-1.1,2.3-0.5,3.3
			c0.4,0.7,1.4,1.1,3,1.2c5.8,0.2,11.6-3.9,11.6-3.9l1.8-1.2l-0.9,1.9c0,0-0.5,1.1-0.1,2c0.3,0.6,0.9,1,1.9,1.2
			c0.3,0.1,0.6,0.1,0.9,0.1c3.2,0,7.8-3.4,10.2-5.3l1.9-1.4l-0.5,1.7c0,0-1,3.2,0.8,4.2c0.6,0.3,1.3,0.5,2.2,0.5
			c2.9,0,6.6-1.8,10.5-5.1L208.9,22.3z"/>
	</g>
	<g>
		<path class="st28" d="M173.3,16.8l-0.5-1c0.1-0.1,11.5-6.2,25.7-3.8l-0.2,1.1C184.5,10.8,173.5,16.8,173.3,16.8z"/>
	</g>
	<g>
		<path class="st28" d="M185.9,20.3l-0.4-1c0.3-0.1,8.6-3.4,17.9-2.8l-0.1,1.1C194.3,17,186,20.3,185.9,20.3z"/>
	</g>
	<ellipse transform="matrix(0.9279 -0.3728 0.3728 0.9279 -5.916 80.9099)" class="st29" cx="206.2" cy="55.8" rx="4.4" ry="3.1"/>
	
		<ellipse transform="matrix(0.3728 -0.9279 0.9279 0.3728 55.8712 194.1627)" class="st29" cx="171.6" cy="55.8" rx="3.1" ry="4.4"/>
	<g>
		<path class="st3" d="M146,17.3h-39.7c-1.5,0-2.8,1.2-2.8,2.8v24.1c0,1.5,1.2,2.8,2.8,2.8h34.5l6.2,6.9c0.6,0.7,1.7,0.2,1.7-0.7v-9
			v-0.3V20C148.8,18.5,147.5,17.3,146,17.3z"/>
		<g>
			<path class="st4" d="M143.8,15h-39.7c-1.5,0-2.8,1.2-2.8,2.8v24.1c0,1.5,1.2,2.8,2.8,2.8h34.5l6.2,6.9c0.6,0.7,1.7,0.2,1.7-0.7
				v-9v-0.3V17.8C146.6,16.3,145.3,15,143.8,15z"/>
			<path class="st1" d="M145.6,52.4L145.6,52.4c-0.4,0-0.8-0.2-1.1-0.5l-6-6.7h-34.3c-1.8,0-3.3-1.5-3.3-3.3V17.8
				c0-1.8,1.5-3.3,3.3-3.3h39.7c1.8,0,3.3,1.5,3.3,3.3v33c0,0.4-0.2,0.8-0.5,1.1C146.3,52.2,146,52.4,145.6,52.4z M104.1,15.6
				c-1.2,0-2.2,1-2.2,2.2v24.1c0,1.2,1,2.2,2.2,2.2h34.8l6.4,7.1c0.2,0.2,0.5,0.2,0.6,0c0.1-0.1,0.1-0.2,0.1-0.3v-33
				c0-1.2-1-2.2-2.2-2.2H104.1z"/>
		</g>
	</g>
	<g>
		<g>
			<path class="st24" d="M202.2,37.4c-0.1,0-0.2,0-0.3-0.1c-2.2-1.7-3.8-0.1-3.9,0c-0.2,0.2-0.6,0.2-0.8,0c-0.2-0.2-0.2-0.6,0-0.8
				c0.8-0.8,3-1.9,5.4,0c0.2,0.2,0.3,0.5,0.1,0.8C202.5,37.3,202.3,37.4,202.2,37.4z"/>
		</g>
	</g>
	<g>
		<g>
			<path class="st24" d="M180.9,37.4c-0.1,0-0.2,0-0.3-0.1c-2.2-1.7-3.8-0.1-3.9,0c-0.2,0.2-0.6,0.2-0.8,0c-0.2-0.2-0.2-0.6,0-0.8
				c0.8-0.8,3-1.9,5.4,0c0.2,0.2,0.3,0.5,0.1,0.8C181.2,37.3,181.1,37.4,180.9,37.4z"/>
		</g>
	</g>
	<g>
		<g>
			<path class="st1" d="M119.9,26.5h-14.5c-0.3,0-0.6-0.2-0.6-0.6c0-0.3,0.2-0.6,0.6-0.6h14.5c0.3,0,0.6,0.2,0.6,0.6
				C120.4,26.3,120.2,26.5,119.9,26.5z"/>
		</g>
	</g>
	<g>
		<g>
			<path class="st1" d="M127.9,26.5h-3.2c-0.3,0-0.6-0.2-0.6-0.6c0-0.3,0.2-0.6,0.6-0.6h3.2c0.3,0,0.6,0.2,0.6,0.6
				C128.5,26.3,128.2,26.5,127.9,26.5z"/>
		</g>
	</g>
	<g>
		<g>
			<path class="st1" d="M136.8,26.5h-5.4c-0.3,0-0.6-0.2-0.6-0.6c0-0.3,0.2-0.6,0.6-0.6h5.4c0.3,0,0.6,0.2,0.6,0.6
				C137.4,26.3,137.1,26.5,136.8,26.5z"/>
		</g>
	</g>
	<path class="st1" d="M135,30.8h-26.6c-0.3,0-0.6-0.2-0.6-0.6c0-0.3,0.2-0.6,0.6-0.6H135c0.3,0,0.6,0.2,0.6,0.6
		C135.5,30.6,135.3,30.8,135,30.8z"/>
	<path class="st1" d="M111.9,35.1h-2.6c-0.3,0-0.6-0.2-0.6-0.6c0-0.3,0.2-0.6,0.6-0.6h2.6c0.3,0,0.6,0.2,0.6,0.6
		C112.4,34.8,112.2,35.1,111.9,35.1z"/>
</g>
<g>
	<path class="st3" d="M441.5,208.9h-90.2c-2.7,0-4.9-2.2-4.9-4.9V95.8c0-2.7,2.2-4.9,4.9-4.9h90.2c2.7,0,4.9,2.2,4.9,4.9V204
		C446.3,206.7,444.2,208.9,441.5,208.9z"/>
	<g>
		<path class="st30" d="M438.2,205.6H348c-2.7,0-4.9-2.2-4.9-4.9V92.5c0-2.7,2.2-4.9,4.9-4.9h90.2c2.7,0,4.9,2.2,4.9,4.9v108.2
			C443,203.4,440.9,205.6,438.2,205.6z"/>
		<path class="st1" d="M438.2,206.1H348c-3,0-5.4-2.4-5.4-5.4V92.5c0-3,2.4-5.4,5.4-5.4h90.2c3,0,5.4,2.4,5.4,5.4v108.2
			C443.6,203.7,441.2,206.1,438.2,206.1z M348,88.2c-2.4,0-4.3,1.9-4.3,4.3v108.2c0,2.4,1.9,4.3,4.3,4.3h90.2c2.4,0,4.3-1.9,4.3-4.3
			V92.5c0-2.4-1.9-4.3-4.3-4.3H348z"/>
	</g>
	<g>
		<circle class="st4" cx="391.9" cy="137.4" r="37.4"/>
		<path class="st1" d="M391.9,175.4c-20.9,0-38-17-38-38s17-38,38-38s38,17,38,38S412.9,175.4,391.9,175.4z M391.9,100.5
			c-20.3,0-36.9,16.5-36.9,36.9c0,20.3,16.5,36.9,36.9,36.9s36.9-16.5,36.9-36.9C428.8,117,412.2,100.5,391.9,100.5z"/>
	</g>
	<g>
		<path class="st4" d="M361.2,194.4h-8.4c-1.5,0-2.8-1.2-2.8-2.8v-8.4c0-1.5,1.2-2.8,2.8-2.8h8.4c1.5,0,2.8,1.2,2.8,2.8v8.4
			C363.9,193.1,362.7,194.4,361.2,194.4z"/>
		<path class="st1" d="M361.1,194.9h-8.4c-1.8,0-3.3-1.5-3.3-3.3v-8.4c0-1.8,1.5-3.3,3.3-3.3h8.4c1.8,0,3.3,1.5,3.3,3.3v8.4
			C364.5,193.4,363,194.9,361.1,194.9z M352.7,181c-1.2,0-2.2,1-2.2,2.2v8.4c0,1.2,1,2.2,2.2,2.2h8.4c1.2,0,2.2-1,2.2-2.2v-8.4
			c0-1.2-1-2.2-2.2-2.2H352.7z"/>
	</g>
	<g>
		<g>
			<path class="st1" d="M381.4,184.6h-14.1c-0.3,0-0.6-0.2-0.6-0.6c0-0.3,0.2-0.6,0.6-0.6h14.1c0.3,0,0.6,0.2,0.6,0.6
				C381.9,184.4,381.7,184.6,381.4,184.6z"/>
		</g>
	</g>
	<g>
		<g>
			<path class="st1" d="M402.7,191.3h-21.3c-0.3,0-0.6-0.2-0.6-0.6c0-0.3,0.2-0.6,0.6-0.6h21.3c0.3,0,0.6,0.2,0.6,0.6
				C403.2,191,403,191.3,402.7,191.3z"/>
		</g>
	</g>
	<g>
		<path class="st6" d="M421.7,121.5c-0.1,0-0.2,0-0.3,0c-2-14.4-14.3-25.4-29.2-25.4h-0.6c-14.9,0-27.2,11.1-29.2,25.4
			c-0.1,0-0.2,0-0.3,0c-4.6,0-8.4,3.7-8.4,8.4c0,4.6,3.7,8.4,8.4,8.4v1.7c0,16.3,13.2,29.5,29.5,29.5h0.6
			c16.3,0,29.5-13.2,29.5-29.5v-1.7c4.6,0,8.4-3.7,8.4-8.4C430.1,125.3,426.4,121.5,421.7,121.5z"/>
	</g>
	<g>
		<path class="st31" d="M421.7,121.5c-0.1,0-0.2,0-0.3,0c-2-14.4-14.3-25.4-29.2-25.4h-0.6c-14.9,0-27.2,11.1-29.2,25.4
			c-0.1,0-0.2,0-0.3,0c-4.6,0-8.4,3.7-8.4,8.4c0,4.6,3.7,8.4,8.4,8.4v1.7c0,16.3,13.2,29.5,29.5,29.5h0.6
			c16.3,0,29.5-13.2,29.5-29.5v-1.7c4.6,0,8.4-3.7,8.4-8.4C430.1,125.3,426.4,121.5,421.7,121.5z"/>
		<path class="st32" d="M392.2,170.1h-0.6c-16.6,0-30.1-13.5-30.1-30.1v-1.2c-4.7-0.3-8.4-4.2-8.4-8.9c0-4.9,3.9-8.8,8.8-8.9
			c2.3-14.5,14.9-25.4,29.7-25.4h0.6c14.7,0,27.4,10.9,29.7,25.4c4.8,0.1,8.8,4.1,8.8,8.9c0,4.7-3.7,8.6-8.4,8.9v1.2
			C422.3,156.6,408.8,170.1,392.2,170.1z M362.1,122.1c-4.3,0-7.8,3.5-7.8,7.8c0,4.3,3.5,7.8,7.8,7.8h0.6v2.3c0,16,13,29,29,29h0.6
			c16,0,29-13,29-29v-2.3h0.6c4.3,0,7.8-3.5,7.8-7.8c0-4.3-3.5-7.8-7.8-7.8l-0.8,0l-0.1-0.5c-2-14.2-14.3-25-28.7-25h-0.6
			c-14.4,0-26.7,10.7-28.7,25l-0.1,0.5L362.1,122.1z"/>
	</g>
	<path class="st33" d="M386.9,136.4L386.9,136.4c0,2.9,2.3,5.1,5.1,5.1h0.1c2.8,0,5.1-2.3,5.1-5.1v-0.1H386.9z"/>
	<path class="st33" d="M421.3,135.1L421.3,135.1c2.9,0,5.1-2.3,5.1-5.1v-0.1c0-2.8-2.3-5.1-5.1-5.1h-0.1V135.1z"/>
	<path class="st33" d="M404.9,148.3L404.9,148.3c1.1-1.1,1.1-2.8,0.1-3.8l0,0c-1-1.1-2.7-1.1-3.8,0l0,0L404.9,148.3z"/>
	<path class="st33" d="M378.9,148.3L378.9,148.3c-1.1-1.1-1.1-2.8-0.1-3.8l0,0c1-1.1,2.7-1.1,3.8,0l0,0L378.9,148.3z"/>
	<path class="st33" d="M362.1,135.1L362.1,135.1c-2.9,0-5.1-2.3-5.1-5.1v-0.1c0-2.8,2.3-5.1,5.1-5.1h0.1V135.1z"/>
	<g>
		<g>
			<path class="st1" d="M418.9,184.6h-13.5c-0.3,0-0.6-0.2-0.6-0.6c0-0.3,0.2-0.6,0.6-0.6h13.5c0.3,0,0.6,0.2,0.6,0.6
				C419.4,184.4,419.2,184.6,418.9,184.6z"/>
		</g>
	</g>
	<g>
		<g>
			<path class="st1" d="M395.1,184.6h-8.9c-0.3,0-0.6-0.2-0.6-0.6c0-0.3,0.2-0.6,0.6-0.6h8.9c0.3,0,0.6,0.2,0.6,0.6
				C395.7,184.4,395.4,184.6,395.1,184.6z"/>
		</g>
	</g>
	<g>
		<g>
			<path class="st1" d="M400.4,184.6h-2.7c-0.3,0-0.6-0.2-0.6-0.6c0-0.3,0.2-0.6,0.6-0.6h2.7c0.3,0,0.6,0.2,0.6,0.6
				C401,184.4,400.7,184.6,400.4,184.6z"/>
		</g>
	</g>
	<path class="st33" d="M397.9,139h-11.9c-0.7,0-1.3-0.6-1.3-1.3v0c0-0.7,0.6-1.3,1.3-1.3h11.9c0.7,0,1.3,0.6,1.3,1.3v0
		C399.2,138.4,398.6,139,397.9,139z"/>
	<g>
		<path class="st26" d="M415.4,89.9h-0.1c-3.2,0-5.8,2.2-5.8,5v-3.6c0-2.8-2.6-5-5.8-5h-0.1c-3.2,0-5.8,2.2-5.8,5v-2.5
			c0-2.8-2.6-5-5.8-5H392c-3.2,0-5.8,2.2-5.8,5v2.5c0-2.8-2.6-5-5.8-5h-0.1c-3.2,0-5.8,2.2-5.8,5v3.6c0-2.8-2.6-5-5.8-5h-0.1
			c-3.2,0-5.8,2.2-5.8,5v13.3v7.3v11.6c0,1.6,1.3,2.8,2.8,2.8h0.1c1.6,0,2.8-1.3,2.8-2.8v-6.6c0,0,0.1,0,0.1,0h0.1
			c3.2,0,5.8-2.2,5.8-5v-3.6c0,2.8,2.6,5,5.8,5h0.1c3.2,0,5.8-2.2,5.8-5v-2.5c0,2.8,2.6,5,5.8,5h0.1c3.2,0,5.8-2.2,5.8-5v2.5
			c0,2.8,2.6,5,5.8,5h0.1c3.2,0,5.8-2.2,5.8-5v3.6c0,2.8,2.6,5,5.8,5h0.1c0,0,0.1,0,0.1,0v6.6c0,1.6,1.3,2.8,2.8,2.8h0.1
			c1.6,0,2.8-1.3,2.8-2.8v-11.6v-7.3V94.9C421.2,92.1,418.6,89.9,415.4,89.9z"/>
		<path class="st32" d="M418.4,130.5L418.4,130.5c-1.9,0-3.4-1.5-3.4-3.4v-6c-3.3-0.2-6-2.6-6-5.6V115c-1.1,1.5-3.1,2.4-5.2,2.4
			h-0.1c-3.3,0-6-2.2-6.3-5c-1.1,1.5-3.1,2.5-5.2,2.5H392c-2.2,0-4.1-1-5.3-2.5c-0.3,2.8-3,5-6.3,5h-0.1c-2.2,0-4.1-1-5.2-2.4v0.5
			c0,3-2.6,5.4-6,5.6v6c0,1.9-1.5,3.4-3.4,3.4c-1.9,0-3.4-1.5-3.4-3.4V94.9c0-3.1,2.8-5.6,6.3-5.6h0.1c2.2,0,4.1,1,5.2,2.4v-0.5
			c0-3.1,2.8-5.6,6.3-5.6h0.1c2.2,0,4.1,1,5.2,2.5c0.3-2.8,3-5,6.3-5h0.1c3.3,0,6,2.2,6.3,5c1.1-1.5,3.1-2.5,5.3-2.5h0.1
			c3.5,0,6.3,2.5,6.3,5.6v0.5c1.1-1.5,3.1-2.4,5.2-2.4h0.1c3.5,0,6.3,2.5,6.3,5.6v32.2C421.7,129,420.2,130.5,418.4,130.5z M416,120
			l0.1,0.6v6.6c0,1.2,1,2.3,2.3,2.3h0.1c1.2,0,2.3-1,2.3-2.3V94.9c0-2.5-2.3-4.5-5.2-4.5h-0.1c-2.9,0-5.2,2-5.2,4.5H409v-3.6
			c0-2.5-2.3-4.5-5.2-4.5h-0.1c-2.9,0-5.2,2-5.2,4.5h-1.1v-2.5c0-2.5-2.3-4.5-5.2-4.5H392c-2.9,0-5.2,2-5.2,4.5v2.5h-1.1
			c0-2.5-2.3-4.5-5.2-4.5h-0.1c-2.9,0-5.2,2-5.2,4.5v3.6H374c0-2.5-2.3-4.5-5.2-4.5h-0.1c-2.9,0-5.2,2-5.2,4.5v32.2
			c0,1.2,1,2.3,2.3,2.3c1.3,0,2.3-1,2.3-2.3V120l0.7,0c2.9,0,5.2-2,5.2-4.5v-3.6h1.1c0,2.5,2.3,4.5,5.2,4.5h0.1c2.9,0,5.2-2,5.2-4.5
			v-2.5h1.1c0,2.5,2.3,4.5,5.2,4.5h0.1c2.9,0,5.2-2,5.2-4.5h1.1v2.5c0,2.5,2.3,4.5,5.2,4.5h0.1c2.9,0,5.2-2,5.2-4.5h1.1v3.6
			c0,2.5,2.3,4.5,5.2,4.5L416,120z"/>
	</g>
	<g>
		<path class="st4" d="M386.4,148.1C386.4,148.1,386.4,148.1,386.4,148.1c0,3.1,2.5,5.6,5.5,5.6c3.1,0,5.5-2.5,5.5-5.5
			c0,0,0,0,0-0.1H386.4z"/>
		<path class="st32" d="M392,154.2c-3.4,0-6.1-2.7-6.1-6.1v-0.6l0.6-0.1H398v0.6C398,151.5,395.3,154.2,392,154.2z M387,148.6
			c0.3,2.5,2.4,4.5,5,4.5c2.6,0,4.7-2,5-4.5H387z"/>
	</g>
	<g>
		<g>
			<circle class="st26" cx="381.5" cy="129.9" r="1.9"/>
			<circle class="st26" cx="402.5" cy="129.9" r="1.9"/>
		</g>
	</g>
	<g>
		<path class="st32" d="M399.3,148.6h-14.5c-1.5,0-2.9-0.8-3.7-2.1c-0.2-0.3-0.1-0.6,0.2-0.8c0.3-0.2,0.6-0.1,0.8,0.2
			c0.6,1,1.6,1.5,2.7,1.5h14.5c1,0,1.9-0.4,2.5-1.2c0.2-0.2,0.5-0.3,0.8-0.1c0.2,0.2,0.3,0.5,0.1,0.8
			C401.9,148,400.7,148.6,399.3,148.6z"/>
	</g>
	<g>
		<path class="st32" d="M407.8,126.8c-0.3,0-0.6-0.1-0.8-0.3c-2.9-2.8-7.6-1.7-7.7-1.6c-0.6,0.2-1.2-0.2-1.3-0.8
			c-0.2-0.6,0.2-1.2,0.8-1.3c0.2-0.1,5.9-1.5,9.7,2.2c0.4,0.4,0.4,1.1,0,1.6C408.4,126.7,408.1,126.8,407.8,126.8z"/>
	</g>
	<g>
		<path class="st32" d="M377,126.8c-0.3,0-0.6-0.1-0.8-0.3c-0.4-0.4-0.4-1.1,0-1.6c3.8-3.7,9.5-2.3,9.7-2.2c0.6,0.2,0.9,0.8,0.8,1.3
			c-0.2,0.6-0.8,0.9-1.3,0.8l0,0c0,0-4.8-1.2-7.7,1.6C377.6,126.7,377.3,126.8,377,126.8z"/>
	</g>
	<path class="st3" d="M440.5,104.3h54.8c1.5,0,2.8,1.2,2.8,2.8v17.3c0,1.5-1.2,2.8-2.8,2.8h-48.4c-0.8,0-1.5,0.3-2,0.9l-4.8,5.4
		c-0.8,0.9-2.3,0.3-2.3-0.9v-8.2v-0.3v-17C437.7,105.6,439,104.3,440.5,104.3z"/>
	<g>
		<path class="st4" d="M438.3,102.1H493c1.5,0,2.8,1.2,2.8,2.8v17.3c0,1.5-1.2,2.8-2.8,2.8h-48.4c-0.8,0-1.5,0.3-2,0.9l-4.8,5.4
			c-0.8,0.9-2.3,0.3-2.3-0.9v-8.2v-0.3v-17C435.5,103.4,436.8,102.1,438.3,102.1z"/>
		<path class="st1" d="M436.8,132.2c-0.9,0-1.9-0.7-1.9-1.9v-25.5c0-1.8,1.5-3.3,3.3-3.3H493c1.8,0,3.3,1.5,3.3,3.3v17.3
			c0,1.8-1.5,3.3-3.3,3.3h-48.4c-0.6,0-1.2,0.3-1.6,0.7l-4.8,5.4C437.9,132,437.4,132.2,436.8,132.2z M438.3,102.7
			c-1.2,0-2.2,1-2.2,2.2v25.5c0,0.5,0.4,0.8,0.8,0.8c0.1,0,0.4,0,0.6-0.3l4.8-5.4c0.6-0.7,1.5-1.1,2.5-1.1H493c1.2,0,2.2-1,2.2-2.2
			v-17.3c0-1.2-1-2.2-2.2-2.2H438.3z"/>
	</g>
	<g>
		<g>
			<path class="st1" d="M457.7,111.7h-11.9c-0.3,0-0.6-0.2-0.6-0.6c0-0.3,0.2-0.6,0.6-0.6h11.9c0.3,0,0.6,0.2,0.6,0.6
				C458.3,111.4,458.1,111.7,457.7,111.7z"/>
		</g>
	</g>
	<g>
		<g>
			<path class="st1" d="M466.6,111.7h-3.5c-0.3,0-0.6-0.2-0.6-0.6c0-0.3,0.2-0.6,0.6-0.6h3.5c0.3,0,0.6,0.2,0.6,0.6
				C467.1,111.4,466.9,111.7,466.6,111.7z"/>
		</g>
	</g>
	<g>
		<g>
			<path class="st1" d="M485.5,111.7h-15.2c-0.3,0-0.6-0.2-0.6-0.6c0-0.3,0.2-0.6,0.6-0.6h15.2c0.3,0,0.6,0.2,0.6,0.6
				C486,111.4,485.8,111.7,485.5,111.7z"/>
		</g>
	</g>
	<path class="st1" d="M485.5,115.9h-7.6c-0.3,0-0.6-0.2-0.6-0.6c0-0.3,0.2-0.6,0.6-0.6h7.6c0.3,0,0.6,0.2,0.6,0.6
		C486,115.6,485.8,115.9,485.5,115.9z"/>
</g>
<g>
	<path class="st3" d="M129,112.7L129,112.7L129,112.7c-0.1,0-0.1-0.1-0.2-0.1l-0.2-0.1l0,0l-0.2-0.1l-11.6-6.2l-3.1-11.8
		c-0.3-1.3-1.7-2.1-3-1.7l-12.9,3.4l-7.1-3.8c-2-1-4.4-0.4-5.6,1.5l-4.3,6.8L68,104c-1.3,0.3-2.1,1.7-1.7,3l3.1,11.8l-7.1,11.1
		l-0.1,0.2l0,0l-0.1,0.2c0,0-0.1,0.1-0.1,0.1l0,0l0,0c-0.5,0.9-0.7,2-0.4,3.2l10,38c0.6,2.3,2.9,3.6,5.2,3l61.2-16.1
		c2.3-0.6,3.6-2.9,3-5.2l-10-38C130.6,114.1,129.9,113.2,129,112.7z"/>
	<g>
		<g>
			<path class="st4" d="M125.9,111.3L87.6,90.9c-1.8-0.9-4-0.4-5.1,1.3l-23.2,36.6L125.9,111.3z"/>
			<path class="st1" d="M59.7,129.2l-0.9-0.6L82,91.9c1.2-1.9,3.8-2.6,5.8-1.5l38.3,20.4l-0.5,1L87.3,91.4c-1.5-0.8-3.4-0.3-4.3,1.1
				L59.7,129.2z"/>
		</g>
		<g>
			<path class="st4" d="M134.8,156.3l-61.2,16.1c-2.1,0.5-4.2-0.7-4.7-2.7l-10-38c-0.5-2.1,0.7-4.2,2.7-4.7l61.2-16.1
				c2.1-0.5,4.2,0.7,4.7,2.7l10,38C138.1,153.6,136.9,155.8,134.8,156.3z"/>
			<path class="st1" d="M73.3,173.1c-2.2,0.3-4.3-1.1-4.9-3.2l-10-38c-0.3-1.1-0.1-2.3,0.5-3.3c0.6-1,1.5-1.7,2.7-2l61.2-16.1
				c2.4-0.6,4.8,0.8,5.4,3.1l10,38c0.6,2.3-0.8,4.8-3.1,5.4L73.8,173C73.6,173,73.4,173,73.3,173.1z M123.4,111.3
				c-0.1,0-0.2,0-0.4,0.1l-61.2,16.1c-0.9,0.2-1.6,0.8-2,1.5c-0.4,0.8-0.6,1.7-0.3,2.5l10,38c0.5,1.7,2.2,2.8,4,2.4l61.2-16.1
				c1.8-0.5,2.8-2.3,2.4-4l-10-38C126.6,112.1,125,111.1,123.4,111.3z"/>
		</g>
		<g>
			<path class="st4" d="M134.8,156.3l-61.2,16.1c-2.1,0.5-4.2-0.7-4.7-2.7l-10-38c-0.5-2.1,0.7-4.2,2.7-4.7l61.2-16.1
				c2.1-0.5,4.2,0.7,4.7,2.7l10,38C138.1,153.6,136.9,155.8,134.8,156.3z"/>
			<path class="st1" d="M73.3,173.1c-2.2,0.3-4.3-1.1-4.9-3.2l-10-38c-0.3-1.1-0.1-2.3,0.5-3.3c0.6-1,1.5-1.7,2.7-2l61.2-16.1
				c2.4-0.6,4.8,0.8,5.4,3.1l10,38c0.6,2.3-0.8,4.8-3.1,5.4L73.8,173C73.6,173,73.4,173,73.3,173.1z M123.4,111.3
				c-0.1,0-0.2,0-0.4,0.1l-61.2,16.1c-0.9,0.2-1.6,0.8-2,1.5c-0.4,0.8-0.6,1.7-0.3,2.5l10,38c0.5,1.7,2.2,2.8,4,2.4l61.2-16.1
				c1.8-0.5,2.8-2.3,2.4-4l-10-38C126.6,112.1,125,111.1,123.4,111.3z"/>
		</g>
		<g>
			<path class="st34" d="M123.1,110.8l-61.7,16.3c-0.6,0.2-1.2,0.6-1.6,1.1l11.6,6.2l25.9,13.8c1.8,0.9,4,0.4,5.1-1.3l15.7-24.8
				l7-11.1C124.5,110.7,123.8,110.7,123.1,110.8z"/>
			<path class="st1" d="M99.7,149.1L99.7,149.1c-0.9,0.1-1.9,0-2.7-0.5l-38.1-20.3l0.5-0.5c0.5-0.5,1.1-1,1.9-1.2l62-16.3
				c0.7-0.1,1.4,0,2,0.2l0.7,0.2l-23.1,36.5C102.1,148.2,101,148.9,99.7,149.1z M60.7,128l36.8,19.6c1.5,0.8,3.4,0.3,4.3-1.1
				l22.3-35.2c-0.3,0-0.5,0-0.8,0l-0.1,0l-61.7,16.3C61.2,127.7,61,127.9,60.7,128z"/>
		</g>
		<g>
			<g>
				
					<rect x="122.2" y="130.3" transform="matrix(0.4705 -0.8824 0.8824 0.4705 -64.4584 185.9987)" class="st1" width="1.1" height="32.8"/>
			</g>
		</g>
		<g>
			<g>
				
					<rect x="63" y="157.6" transform="matrix(0.5361 -0.8442 0.8442 0.5361 -96.6486 140.3981)" class="st1" width="32.8" height="1.1"/>
			</g>
		</g>
		<g>
			<path class="st30" d="M110.3,92.8l7.7,29.2l-15.7,24.8c-1.1,1.7-3.3,2.3-5.1,1.3l-25.9-13.8l-7.7-29.2c-0.3-1.1,0.4-2.2,1.5-2.5
				l42.8-11.3C108.9,91,110.1,91.7,110.3,92.8z"/>
			<path class="st1" d="M99.7,149.1c-0.9,0.1-1.9,0-2.7-0.5l-26.1-13.9l-7.8-29.5c-0.4-1.4,0.5-2.8,1.8-3.2l42.8-11.3
				c1.4-0.4,2.8,0.5,3.2,1.8l7.8,29.4l-15.9,25C102.1,148.2,101,148.9,99.7,149.1z M71.8,133.9l25.7,13.7c1.5,0.8,3.4,0.3,4.3-1.1
				l15.6-24.6l-7.6-29c-0.2-0.8-1-1.3-1.8-1.1l-42.8,11.3c-0.8,0.2-1.3,1-1.1,1.8L71.8,133.9z"/>
		</g>
		<g>
			<g>
				<path class="st1" d="M68.1,107.8c-0.3,0-0.5-0.1-0.6-0.4c-0.1-0.3,0.1-0.6,0.4-0.7l36-9.5c0.3-0.1,0.6,0.1,0.7,0.4
					c0.1,0.3-0.1,0.6-0.4,0.7L68.1,107.8C68.1,107.8,68.1,107.8,68.1,107.8z"/>
			</g>
		</g>
		<g>
			<g>
				<path class="st1" d="M69.4,112.5c-0.3,0-0.5-0.1-0.6-0.4c-0.1-0.3,0.1-0.6,0.4-0.7l24.1-6.4c0.3-0.1,0.6,0.1,0.7,0.4
					c0.1,0.3-0.1,0.6-0.4,0.7L69.4,112.5C69.5,112.5,69.4,112.5,69.4,112.5z"/>
			</g>
		</g>
		<g>
			<g>
				<path class="st1" d="M70.5,117.3c-0.3,0-0.5-0.1-0.6-0.4c-0.1-0.3,0.1-0.6,0.4-0.7l36-9.5c0.3-0.1,0.6,0.1,0.7,0.4
					c0.1,0.3-0.1,0.6-0.4,0.7L70.5,117.3C70.6,117.3,70.6,117.3,70.5,117.3z"/>
			</g>
		</g>
		<g>
			<g>
				<path class="st1" d="M73,126.7c-0.3,0-0.5-0.1-0.6-0.4c-0.1-0.3,0.1-0.6,0.4-0.7l36-9.5c0.3-0.1,0.6,0.1,0.7,0.4
					c0.1,0.3-0.1,0.6-0.4,0.7L73,126.7C73.1,126.7,73.1,126.7,73,126.7z"/>
			</g>
		</g>
		<g>
			<g>
				<path class="st1" d="M74.5,131.4c-0.3,0-0.5-0.1-0.6-0.4c-0.1-0.3,0.1-0.6,0.4-0.7l5.8-1.5c0.3-0.1,0.6,0.1,0.7,0.4
					c0.1,0.3-0.1,0.6-0.4,0.7L74.5,131.4C74.5,131.4,74.5,131.4,74.5,131.4z"/>
			</g>
		</g>
		<g>
			<g>
				<path class="st1" d="M81,139.8c-0.3,0-0.5-0.1-0.6-0.4c-0.1-0.3,0.1-0.6,0.4-0.7l29.7-7.8c0.3-0.1,0.6,0.1,0.7,0.4
					c0.1,0.3-0.1,0.6-0.4,0.7L81,139.8C81,139.8,81,139.8,81,139.8z"/>
			</g>
		</g>
		<g>
			<g>
				<path class="st1" d="M87.3,143.2c-0.3,0-0.5-0.1-0.6-0.4c-0.1-0.3,0.1-0.6,0.4-0.7l17.5-4.6c0.3-0.1,0.6,0.1,0.7,0.4
					c0.1,0.3-0.1,0.6-0.4,0.7L87.3,143.2C87.3,143.2,87.3,143.2,87.3,143.2z"/>
			</g>
		</g>
		<g>
			<g>
				<path class="st1" d="M93.3,146.7c-0.3,0-0.5-0.1-0.6-0.4c-0.1-0.3,0.1-0.6,0.4-0.7l7.9-2.1c0.3-0.1,0.6,0.1,0.7,0.4
					c0.1,0.3-0.1,0.6-0.4,0.7L93.3,146.7C93.4,146.7,93.3,146.7,93.3,146.7z"/>
			</g>
		</g>
		<g>
			<g>
				<g>
					<path class="st1" d="M76.8,135.8c-0.3,0-0.5-0.1-0.6-0.4c-0.1-0.3,0.1-0.6,0.4-0.7l30.2-8c0.3-0.1,0.6,0.1,0.7,0.4
						c0.1,0.3-0.1,0.6-0.4,0.7L76.8,135.8C76.9,135.8,76.9,135.8,76.8,135.8z"/>
				</g>
				<g>
					<path class="st1" d="M109.4,127.3c-0.3,0-0.5-0.1-0.6-0.4c-0.1-0.3,0.1-0.6,0.4-0.7l0.8-0.2c0.3-0.1,0.6,0.1,0.7,0.4
						c0.1,0.3-0.1,0.6-0.4,0.7L109.4,127.3C109.5,127.3,109.4,127.3,109.4,127.3z"/>
				</g>
			</g>
		</g>
		<g>
			<g>
				<g>
					<path class="st1" d="M71.8,122c-0.3,0-0.5-0.1-0.6-0.4c-0.1-0.3,0.1-0.6,0.4-0.7l5.8-1.5c0.3-0.1,0.6,0.1,0.7,0.4
						c0.1,0.3-0.1,0.6-0.4,0.7L71.8,122C71.8,122,71.8,122,71.8,122z"/>
				</g>
				<g>
					<path class="st1" d="M81.4,119.5c-0.3,0-0.5-0.1-0.6-0.4c-0.1-0.3,0.1-0.6,0.4-0.7l1.9-0.5c0.3-0.1,0.6,0.1,0.7,0.4
						c0.1,0.3-0.1,0.6-0.4,0.7L81.4,119.5C81.4,119.5,81.4,119.5,81.4,119.5z"/>
				</g>
				<g>
					<path class="st1" d="M88,117.7c-0.3,0-0.5-0.1-0.6-0.4c-0.1-0.3,0.1-0.6,0.4-0.7l19.8-5.2c0.3-0.1,0.6,0.1,0.7,0.4
						c0.1,0.3-0.1,0.6-0.4,0.7L88,117.7C88,117.7,88,117.7,88,117.7z"/>
				</g>
			</g>
		</g>
		<g>
			<g>
				<path class="st1" d="M97.7,105.1c-0.3,0-0.5-0.1-0.6-0.4c-0.1-0.3,0.1-0.6,0.4-0.7l1-0.3c0.3-0.1,0.6,0.1,0.7,0.4
					c0.1,0.3-0.1,0.6-0.4,0.7L97.7,105.1C97.7,105,97.7,105,97.7,105.1z"/>
			</g>
		</g>
	</g>
</g>
<g>
	<path class="st3" d="M328.4,109.1l-56.2-8.9c-3-0.5-5-3.3-4.6-6.3l7-44.3c0.5-3,3.3-5,6.3-4.6l56.2,8.9c3,0.5,5,3.3,4.6,6.3
		l-7,44.3C334.2,107.6,331.4,109.6,328.4,109.1z"/>
	<g>
		<path class="st4" d="M326.6,106.6l-56.2-8.9c-3-0.5-5-3.3-4.6-6.3l7-44.3c0.5-3,3.3-5,6.3-4.6l56.2,8.9c3,0.5,5,3.3,4.6,6.3
			l-7,44.3C332.4,105,329.6,107.1,326.6,106.6z"/>
		<path class="st1" d="M327.4,107.2c-0.3,0-0.6,0-1-0.1l-56.2-8.9c-3.3-0.5-5.6-3.6-5-6.9l7-44.3c0.5-3,3-5.1,6-5.1
			c0.3,0,0.6,0,1,0.1l56.2,8.9c3.3,0.5,5.6,3.6,5,6.9l-7,44.3C332.9,105.1,330.4,107.2,327.4,107.2z M278.3,43
			c-2.4,0-4.5,1.8-4.9,4.2l-7,44.3c-0.4,2.7,1.4,5.2,4.1,5.7l56.2,8.9c2.8,0.4,5.2-1.4,5.7-4.1l7-44.3c0.4-2.7-1.4-5.2-4.1-5.7
			l-56.2-8.9C278.8,43,278.5,43,278.3,43z"/>
	</g>
	<g>
		<path class="st8" d="M269.7,80.9l5.4-34c0.2-1.5,1.6-2.5,3.1-2.3l57.3,9.1c1.5,0.2,2.5,1.6,2.3,3.1l-5.4,34
			c-0.2,1.5-1.6,2.5-3.1,2.3L272,84.1C270.5,83.8,269.5,82.4,269.7,80.9z"/>
		<path class="st1" d="M329.7,93.7c-0.2,0-0.3,0-0.5,0l-57.3-9.1c-1.8-0.3-3-2-2.7-3.8l5.4-34c0.3-1.8,1.9-3,3.8-2.7l57.3,9.1
			c1.8,0.3,3,2,2.7,3.8l-5.4,34C332.7,92.6,331.3,93.7,329.7,93.7z M277.8,45.1c-1.1,0-2,0.8-2.2,1.9l-5.4,34
			c-0.2,1.2,0.6,2.3,1.8,2.5l57.3,9.1c1.2,0.2,2.3-0.6,2.5-1.8l5.4-34c0.2-1.2-0.6-2.3-1.8-2.5l-57.3-9.1
			C278.1,45.1,278,45.1,277.8,45.1z"/>
	</g>
	<g>
		<path class="st2" d="M272,84.1l57.3,9.1c1.5,0.2,2.9-0.8,3.1-2.3l2.7-18.2c-13.7-3.1-19.1,8.6-27.1,7.3
			c-8-1.2-11.8-15.8-21.9-17.4c-7.9-1.3-14.7,8.1-14.7,8.1l-1.6,10.2C269.5,82.4,270.5,83.8,272,84.1z"/>
		<path class="st1" d="M329.7,93.7L329.7,93.7c-0.2,0-0.3,0-0.5,0l-57.3-9.1c-1.8-0.3-3-2-2.7-3.8l1.6-10.3l0.1-0.1
			c0.3-0.3,6.3-8.5,13.7-8.5c0.5,0,1,0,1.6,0.1c5.6,0.9,9.2,5.4,12.7,9.8c2.9,3.7,5.7,7.1,9.2,7.7c0.4,0.1,0.7,0.1,1.1,0.1
			c2.7,0,5.2-1.5,8.1-3.3c3.6-2.2,7.7-4.7,13.3-4.7c1.5,0,3.1,0.2,4.7,0.6l0.5,0.1L332.9,91C332.7,92.6,331.3,93.7,329.7,93.7z
			 M271.9,71l-1.6,10c-0.2,1.2,0.6,2.3,1.8,2.5l57.3,9.1c1.2,0.2,2.3-0.6,2.5-1.8l2.6-17.6c-1.3-0.3-2.7-0.4-3.9-0.4
			c-5.3,0-9.3,2.4-12.7,4.5c-2.9,1.8-5.6,3.4-8.6,3.4h0c-0.4,0-0.8,0-1.3-0.1c-4-0.6-6.9-4.2-9.9-8.1c-3.4-4.2-6.8-8.6-12-9.4
			c-0.5-0.1-0.9-0.1-1.4-0.1C278.1,63.1,272.6,70,271.9,71z"/>
	</g>
	<g>
		<g>
			<ellipse transform="matrix(0.157 -0.9876 0.9876 0.157 205.75 367.9806)" class="st35" cx="318.4" cy="63.5" rx="5" ry="5"/>
			<path class="st1" d="M318.4,69c-0.3,0-0.6,0-0.9-0.1c-3-0.5-5.1-3.3-4.6-6.3c0.5-3,3.3-5.1,6.3-4.6c3,0.5,5.1,3.3,4.6,6.3
				C323.5,67,321.2,69,318.4,69z M318.4,59c-2.2,0-4,1.6-4.4,3.7c-0.4,2.4,1.3,4.7,3.7,5.1c2.5,0.4,4.7-1.3,5.1-3.7
				c0.4-2.4-1.3-4.7-3.7-5.1C318.9,59.1,318.7,59,318.4,59z"/>
		</g>
		<g>
			<g>
				<path class="st1" d="M319.6,56.8C319.5,56.8,319.5,56.8,319.6,56.8c-0.4-0.1-0.6-0.3-0.5-0.6l0.4-2.7c0-0.3,0.3-0.5,0.6-0.5
					c0.3,0,0.5,0.3,0.5,0.6l-0.4,2.7C320.1,56.6,319.8,56.8,319.6,56.8z"/>
			</g>
		</g>
		<g>
			<g>
				<path class="st1" d="M314.1,58.1c-0.2,0-0.3-0.1-0.4-0.2l-1.6-2.2c-0.2-0.2-0.1-0.6,0.1-0.8c0.2-0.2,0.6-0.1,0.8,0.1l1.6,2.2
					c0.2,0.2,0.1,0.6-0.1,0.8C314.3,58.1,314.2,58.1,314.1,58.1z"/>
			</g>
		</g>
		<g>
			<g>
				<path class="st1" d="M311.2,62.9C311.2,62.9,311.1,62.9,311.2,62.9l-2.8-0.4c-0.3,0-0.5-0.3-0.5-0.6c0-0.3,0.3-0.5,0.6-0.5
					l2.7,0.4c0.3,0,0.5,0.3,0.5,0.6C311.7,62.7,311.5,62.9,311.2,62.9z"/>
			</g>
		</g>
		<g>
			<g>
				<path class="st1" d="M310.3,69.9c-0.2,0-0.3-0.1-0.4-0.2c-0.2-0.2-0.1-0.6,0.1-0.8l2.2-1.6c0.2-0.2,0.6-0.1,0.8,0.1
					c0.2,0.2,0.1,0.6-0.1,0.8l-2.2,1.6C310.5,69.9,310.4,69.9,310.3,69.9z"/>
			</g>
		</g>
		<g>
			<g>
				<path class="st1" d="M316.8,74C316.8,74,316.8,74,316.8,74c-0.4-0.1-0.6-0.3-0.5-0.6l0.4-2.7c0-0.3,0.3-0.5,0.6-0.5
					c0.3,0,0.5,0.3,0.5,0.6l-0.4,2.7C317.3,73.8,317.1,74,316.8,74z"/>
			</g>
		</g>
		<g>
			<g>
				<path class="st1" d="M324.3,72.2c-0.2,0-0.3-0.1-0.4-0.2l-1.6-2.2c-0.2-0.2-0.1-0.6,0.1-0.8c0.2-0.2,0.6-0.1,0.8,0.1l1.6,2.2
					c0.2,0.2,0.1,0.6-0.1,0.8C324.6,72.1,324.5,72.2,324.3,72.2z"/>
			</g>
		</g>
		<g>
			<g>
				<path class="st1" d="M328.4,65.6C328.4,65.6,328.3,65.6,328.4,65.6l-2.8-0.4c-0.3,0-0.5-0.3-0.5-0.6c0-0.3,0.3-0.5,0.6-0.5
					l2.7,0.4c0.3,0,0.5,0.3,0.5,0.6C328.9,65.4,328.6,65.6,328.4,65.6z"/>
			</g>
		</g>
		<g>
			<g>
				<path class="st1" d="M324.4,59.7c-0.2,0-0.3-0.1-0.4-0.2c-0.2-0.2-0.1-0.6,0.1-0.8l2.2-1.6c0.2-0.2,0.6-0.1,0.8,0.1
					c0.2,0.2,0.1,0.6-0.1,0.8l-2.2,1.6C324.6,59.7,324.5,59.7,324.4,59.7z"/>
			</g>
		</g>
	</g>
</g>
<g>
	<path class="st3" d="M404.5,227.1l-51.3,4c-2,0.2-3.5,1.9-3.3,3.9l2.5,31.8c0.2,2,1.9,3.5,3.9,3.3l51.3-4c2-0.2,3.5-1.9,3.3-3.9
		l-2.5-31.8C408.2,228.4,406.4,226.9,404.5,227.1z"/>
	<g>
		<g>
			<path class="st4" d="M404.5,263l-51.3,4c-1.7,0.1-3.2-1.2-3.4-2.9l-2.5-31.8c-0.1-1.7,1.2-3.2,2.9-3.4l51.3-4
				c1.7-0.1,3.2,1.2,3.4,2.9l2.5,31.8C407.5,261.4,406.2,262.9,404.5,263z"/>
			<path class="st1" d="M404.8,263.5c-0.1,0-0.2,0-0.3,0l-51.3,4c-2,0.2-3.7-1.3-3.9-3.3l-2.5-31.8c-0.2-2,1.3-3.7,3.3-3.9l51.3-4
				c2-0.2,3.7,1.3,3.9,3.3l2.5,31.8C407.9,261.5,406.6,263.2,404.8,263.5z M350,229.5c-1.3,0.2-2.3,1.5-2.2,2.8l2.5,31.8
				c0.1,1.5,1.4,2.6,2.9,2.4l51.3-4c1.5-0.1,2.6-1.4,2.4-2.9l-2.5-31.8c-0.1-0.7-0.4-1.4-0.9-1.8c-0.5-0.5-1.2-0.7-1.9-0.6l-51.3,4
				C350.1,229.5,350,229.5,350,229.5z"/>
		</g>
		<path class="st3" d="M347.8,230.4c-0.1,0.2-0.2,0.4-0.3,0.6l28.3,22.3c1.3,1,3.1,0.9,4.2-0.3l24.4-26.4c-0.1-0.2-0.2-0.4-0.4-0.5
			L347.8,230.4z"/>
		<g>
			<path class="st4" d="M348,230.2l27.7,21.9c1.3,1,3.1,0.9,4.2-0.3l23.9-25.9L348,230.2z"/>
			<path class="st1" d="M378.2,253.1c-1,0.2-2-0.1-2.8-0.7l-27.7-21.9l0.6-0.7l27.7,21.9c1.1,0.9,2.7,0.7,3.6-0.3l23.9-25.9l0.7,0.6
				L380.2,252C379.7,252.6,378.9,253,378.2,253.1z"/>
		</g>
		<g>
			<g>
				
					<rect x="395.7" y="240.3" transform="matrix(0.6201 -0.7845 0.7845 0.6201 -48.4631 407.1591)" class="st1" width="0.9" height="26.7"/>
			</g>
		</g>
		<g>
			<g>
				
					<rect x="346.5" y="256" transform="matrix(0.6773 -0.7357 0.7357 0.6773 -72.5706 347.5241)" class="st1" width="26.7" height="0.9"/>
			</g>
		</g>
	</g>
</g>
<g>
	<path class="st3" d="M386.3,355.5l-52.9-21c-2.8-1.1-4.2-4.3-3.1-7.1l16.5-41.7c1.1-2.8,4.3-4.2,7.1-3.1l52.9,21
		c2.8,1.1,4.2,4.3,3.1,7.1l-16.5,41.7C392.3,355.3,389.1,356.6,386.3,355.5z"/>
	<path class="st4" d="M385,352.7l-52.9-21c-2.8-1.1-4.2-4.3-3.1-7.1l16.5-41.7c1.1-2.8,4.3-4.2,7.1-3.1l52.9,21
		c2.8,1.1,4.2,4.3,3.1,7.1l-16.5,41.7C391,352.4,387.8,353.8,385,352.7z"/>
	<path class="st1" d="M385.7,353.5c-0.3-0.1-0.6-0.2-0.9-0.3l-52.9-21c-3.1-1.2-4.6-4.8-3.4-7.9l16.5-41.7c1.1-2.8,4-4.3,6.9-3.7
		c0.3,0.1,0.6,0.2,0.9,0.3l52.9,21c3.1,1.2,4.6,4.8,3.4,7.9l-16.5,41.7C391.6,352.6,388.7,354.1,385.7,353.5z M351.8,280
		c-2.4-0.5-4.8,0.7-5.7,3l-16.5,41.7c-1,2.5,0.2,5.4,2.8,6.4l52.9,21c2.6,1,5.4-0.3,6.4-2.8l16.5-41.7c1-2.5-0.2-5.4-2.8-6.4
		l-52.9-21C352.3,280.2,352.1,280.1,351.8,280z"/>
	<path class="st36" d="M335.2,315.2l12.7-32c0.6-1.4,2.2-2.1,3.6-1.5l53.9,21.4c1.4,0.6,2.1,2.2,1.5,3.6l-12.7,32
		c-0.6,1.4-2.2,2.1-3.6,1.5l-53.9-21.4C335.3,318.2,334.6,316.6,335.2,315.2z"/>
	
		<ellipse transform="matrix(0.3775 -0.926 0.926 0.3775 -56.8985 537.0789)" class="st11" cx="371" cy="310.9" rx="14.1" ry="14.1"/>
	<polygon class="st4" points="370.4,302.1 380.1,314.6 364.5,316.7 	"/>
	<path class="st1" d="M390.9,340.8c-0.2,0-0.3-0.1-0.5-0.2l-53.9-21.4c-1.7-0.7-2.5-2.6-1.9-4.3l12.7-32c0.7-1.7,2.6-2.5,4.3-1.9
		l53.9,21.4c1.7,0.7,2.5,2.6,1.9,4.3l-12.7,32C394.1,340.3,392.5,341.1,390.9,340.8z M350.9,282c-1.1-0.2-2.1,0.3-2.5,1.3l-12.7,32
		c-0.4,1.1,0.1,2.4,1.2,2.9l53.9,21.4c1.2,0.5,2.4-0.1,2.9-1.2l12.7-32c0.4-1.1-0.1-2.4-1.2-2.9l-53.9-21.4
		C351.1,282.1,351,282,350.9,282z"/>
	<path class="st11" d="M334.7,328.4l-1.8-0.7l2.5-6.1l1.8,0.7L334.7,328.4z M340,323.5l-1.8-0.7l-2.5,6.1l1.8,0.7L340,323.5z
		 M351.1,328.1l-1.8-0.7l-2.5,6.1l1.8,0.7L351.1,328.1z M344,330.9l4-0.6l-2.5-3.2L344,330.9z M361.9,332.5l-4.5,1.7l2,4.4
		L361.9,332.5z M359.3,333.6l-2.3-0.9l-0.9,2.3l2.3,0.9L359.3,333.6z M362.3,332.7l-0.3,0.7c1,0.6,1.5,1.9,1,3.1
		c-0.5,1.2-1.7,1.8-2.9,1.5l-0.3,0.7c1.6,0.4,3.2-0.4,3.8-1.9C364.3,335.2,363.7,333.5,362.3,332.7z M361.7,334.1l-1.3,3.2
		c0.8,0.1,1.6-0.3,1.9-1.1C362.6,335.4,362.4,334.5,361.7,334.1z"/>
</g>
<g>
	<g>
		<path class="st2" d="M256.3,143.5c0.3,0.3,0.4,0.9,0,1.3c-0.4,0.4-1,0.4-1.3,0l-0.4-0.4c-0.8,0.5-1.7,0.8-2.6,0.8
			c-2.7,0-5-2.2-5-5c0-2.7,2.2-5,5-5s5,2.2,5,5c0,1.1-0.4,2.2-1,3L256.3,143.5z M253,142.8l-0.3-0.3c-0.4-0.4-0.3-0.9,0-1.3
			c0.4-0.4,0.9-0.4,1.3,0l0.3,0.3c0.3-0.4,0.4-0.9,0.4-1.4c0-1.6-1.3-2.8-2.9-2.8c-1.6,0-2.9,1.2-2.9,2.8c0,1.6,1.3,2.9,2.9,2.9
			C252.3,143,252.7,142.9,253,142.8z"/>
	</g>
</g>
<g>
	<path class="st4" d="M291.7,330.8h-7.2c0.3,1.3,1.5,2.4,3,2.4c0.7,0,1.8-0.3,2.4-0.9c0.6-0.5,1.4-0.5,2,0c0.6,0.5,0.5,1.4,0,2
		c-1.3,1.2-3.1,1.7-4.4,1.7c-3.2,0-5.8-2.6-5.8-5.9c0-3.2,2.6-5.9,5.8-5.9c0.4,0,0.7,0,1,0.1c1.6,0.3,2.9,1.3,3.8,2.7
		c0.4,0.7,0.8,1.5,0.7,2.3c0,0.2-0.1,0.4-0.2,0.7C292.7,330.4,292.3,330.8,291.7,330.8z M285,328.5h4.9c-0.5-0.9-1.3-1.4-2.4-1.4
		C286.5,327.1,285.5,327.6,285,328.5z"/>
	<path class="st4" d="M292,317.9c-1.7,0.1-7.3,0.1-7.8,0.1c-0.5,0.3-5.1,3.4-6.5,4.3c0,0.1,0,0.3,0.1,0.3c0,0,3.2,0.1,4.4,0.2
		c0,0-0.1,0.2-0.2,0.5c-0.1,0.3-0.2,0.9-0.2,1.1c0,0.4,0,1.5,0,1.6c0.6-0.9,2.2-2.1,4-2.8c1.9-0.5,3.9-0.4,4.9,0
		c0-0.1-0.6-1-0.9-1.3c-0.1-0.1-0.6-0.6-0.8-0.8c-0.3-0.2-0.5-0.3-0.4-0.3c0.5-0.4,1.4-1,2.2-1.6l0.1,0.4c-0.1,0.1-0.1,0.2-0.1,0.4
		c0,0.1,0.1,0.2,0.3,0.2l0.4,1.1c-0.3,0.3-0.2,0.6,0.1,1.5c0.1,0.2,0.6,2,0.9,2.7l0.9-0.3c-0.2-0.7-0.8-2.6-0.9-2.7
		c-0.2-0.8-0.3-1.2-0.8-1.2l-0.4-1.1c0.1-0.1,0.1-0.2,0.1-0.3c0-0.1-0.1-0.2-0.3-0.3L291,319c0.6-0.4,1.1-0.8,1.1-0.8
		C292.1,318.2,292,317.9,292,317.9z"/>
</g>
</svg>
