<svg width="27" height="16" viewBox="0 0 27 16" version="1.1" xmlns="http://www.w3.org/2000/svg" xmlns:xlink="http://www.w3.org/1999/xlink">
<title>arrival</title>
<desc>Created using Figma</desc>
<g id="Canvas" transform="translate(6744 870)">
<g id="arrival">
<use xlink:href="#path0_fill" transform="translate(-6744 -870)" fill="#202020"/>
</g>
</g>
<defs>
<path id="path0_fill" d="M 0.227018 3.84463C 0.398142 3.6828 0.63772 3.61657 0.867796 3.66716L 0.897617 3.67508C 0.964224 3.69582 2.53646 4.18923 3.33484 4.68831C 3.48629 4.78287 3.60649 4.92903 3.6822 5.10401L 5.16258 7.11618C 5.83249 7.2682 8.45585 7.58402 11.4407 8.27147L 8.25379 0.696904C 8.17277 0.498476 8.1983 0.296243 8.32238 0.156211C 8.44626 0.0161971 8.64373 -0.0336812 8.85062 0.0228224L 11.1605 0.652202C 11.3822 0.712626 11.6606 0.896645 11.8049 1.08157L 18.4567 9.90699C 20.6763 10.4337 22.4986 10.8797 23.2354 11.0931C 23.7763 11.2498 24.3297 11.5643 24.881 12.027C 25.7909 12.7904 26.6845 13.9859 26.5664 14.5444C 26.562 14.5659 25.7532 16.6328 21.1037 15.804L 5.40754 11.6618C 5.55874 11.6967 4.99513 11.563 4.68383 11.383C 4.15702 11.0784 3.6402 10.6846 3.12877 10.2554L 2.98054 10.131C 2.90962 10.0715 2.83991 10.013 2.77142 9.95556L 2.72521 9.91678L 2.7389 9.90046C 2.40802 9.62282 2.28506 9.27568 2.26869 9.2159L 0.00862957 4.48949L 0.00874614 4.47098C -0.0286259 4.23889 0.055559 4.00731 0.227018 3.84463Z"/>
</defs>
</svg>
