<svg width="31" height="21" viewBox="0 0 31 21" version="1.1" xmlns="http://www.w3.org/2000/svg" xmlns:xlink="http://www.w3.org/1999/xlink">
<title>bell</title>
<desc>Created using Figma</desc>
<g id="Canvas" transform="translate(6816 1012)">
<g id="bell">
<use xlink:href="#path0_fill" transform="translate(-6816 -1012)"/>
<use xlink:href="#path1_fill" transform="translate(-6816 -1012)"/>
<use xlink:href="#path2_fill" transform="translate(-6816 -1012)"/>
<use xlink:href="#path3_fill" transform="translate(-6816 -1012)"/>
<use xlink:href="#path4_fill" transform="translate(-6816 -1012)"/>
<use xlink:href="#path5_fill" transform="translate(-6816 -1012)"/>
</g>
</g>
<defs>
<path id="path0_fill" d="M 28.0722 9.98381C 28.5617 10.2399 29.166 10.0507 29.4218 9.5612C 31.2138 6.13567 29.8894 1.90593 26.4636 0.114182C 25.9743 -0.141922 25.3701 0.047287 25.114 0.536789C 24.8581 1.02605 25.0473 1.63029 25.5366 1.8864C 27.9836 3.16618 28.9297 6.18742 27.6496 8.6342C 27.3938 9.1237 27.583 9.72795 28.0722 9.98381Z"/>
<path id="path1_fill" d="M 26.4105 8.86198C 26.1771 9.36247 25.5821 9.57903 25.0816 9.34563C 24.5811 9.11223 24.3646 8.51726 24.598 8.01677C 25.2982 6.51506 24.6485 4.73015 23.1468 4.02995C 22.6463 3.79655 22.4298 3.20158 22.6632 2.7011C 22.8966 2.20061 23.4915 1.98405 23.9923 2.21745C 26.495 3.38445 27.5777 6.3593 26.4105 8.86198Z"/>
<path id="path2_fill" d="M 2.3049 8.08537C 1.82663 7.80925 1.21506 7.97307 0.938932 8.45134C -0.993929 11.7995 0.153043 16.0805 3.50119 18.0136C 3.97946 18.2897 4.59103 18.1259 4.86715 17.6476C 5.14328 17.1694 4.97946 16.5578 4.50119 16.2814C 2.10959 14.9008 1.29025 11.8429 2.67111 9.45134C 2.94723 8.97307 2.78317 8.3615 2.3049 8.08537Z"/>
<path id="path3_fill" d="M 5.40292 8.71941C 4.92465 8.44328 4.31308 8.6071 4.03695 9.08537C 2.6561 11.477 3.47543 14.5348 5.86703 15.9155C 6.3453 16.1918 6.95688 16.0278 7.233 15.5495C 7.50912 15.0712 7.3453 14.4596 6.86703 14.1835C 5.43197 13.3551 4.94052 11.5204 5.76889 10.0854C 6.04501 9.6071 5.88119 8.99553 5.40292 8.71941Z"/>
<path id="path4_fill" d="M 23.4419 11.8477L 21.8326 7.42632C 20.6309 4.1248 17.8912 1.99174 14.6015 2.36089L 14.3354 1.62968C 14.0106 0.737106 13.04 0.274216 12.1626 0.593674C 11.285 0.91301 10.8391 1.8914 11.164 2.78398L 11.4301 3.51518C 8.6622 5.35088 7.94125 8.73125 9.14682 12.0436L 10.7561 16.4649L 9.42453 19.3853L 9.86166 20.5862L 26.7761 14.4299L 26.339 13.2289L 23.4419 11.8477Z"/>
<path id="path5_fill" d="M 21.0101 17.5927C 21.4408 18.7758 20.8449 20.0989 19.682 20.5223C 18.5085 20.9494 17.2121 20.3149 16.7815 19.1318L 21.0101 17.5927Z"/>
</defs>
</svg>
