<svg width="23" height="26" viewBox="0 0 23 26" version="1.1" xmlns="http://www.w3.org/2000/svg" xmlns:xlink="http://www.w3.org/1999/xlink">
<title>bus</title>
<desc>Created using Figma</desc>
<g id="Canvas" transform="translate(6672 525)">
<g id="bus">
<use xlink:href="#path0_fill" transform="translate(-6672 -525)"/>
</g>
</g>
<defs>
<path id="path0_fill" d="M 21.8978 6.94168C 21.692 4.9298 21.3642 2.57571 20.8455 1.95999C 18.7072 -0.571644 3.72812 -0.73968 2.02742 1.97723C 1.61139 2.64286 1.31962 4.9914 1.12382 6.96224C 0.492016 7.03657 0 7.56853 0 8.21974L 0 10.6843C 0 11.2323 0.302819 11.6341 0.787624 11.8144C 0.787624 15.3587 0.787624 20.3649 0.787624 22.8411C 0.787624 23.6287 1.57525 23.6371 1.57525 23.6371L 2.4066 23.6371L 2.4066 24.7958C 2.4066 25.4614 3.09276 26 3.93812 26C 4.78459 26 5.47075 25.4614 5.47075 24.7958L 5.47075 23.6371L 17.4146 23.6371L 17.4146 24.7958C 17.4146 25.4614 18.1002 26 18.9467 26C 19.7921 26 20.4782 25.4614 20.4782 24.7958L 20.4782 23.6371L 21.2658 23.6199C 21.2658 23.6199 22.0535 23.6287 22.0535 22.8411C 22.0535 20.872 22.0535 16.1463 22.0535 11.8144C 22.5688 11.6529 22.8411 11.2556 22.8411 10.6843L 22.8411 8.21974C 22.8416 7.553 22.5518 6.99493 21.8978 6.94168ZM 5.51337 3.15887C 5.51337 2.72388 5.866 2.37124 6.30099 2.37124L 16.5401 2.37124C 16.9751 2.37124 17.3277 2.72388 17.3277 3.15887C 17.3277 3.59386 16.9751 3.94649 16.5401 3.94649L 6.30099 3.94649C 5.866 3.94649 5.51337 3.59386 5.51337 3.15887ZM 5.06221 21.1353C 4.15916 21.1353 3.42752 20.4031 3.42752 19.5001C 3.42752 18.5976 4.15916 17.8659 5.06221 17.8659C 5.96526 17.8659 7.48508 18.5976 7.48508 19.5001C 7.48508 20.4031 5.96581 21.1353 5.06221 21.1353ZM 17.9133 21.1353C 17.0108 21.1353 15.4899 20.4031 15.4899 19.5001C 15.4899 18.5976 17.0103 17.8659 17.9133 17.8659C 18.8164 17.8659 19.548 18.5976 19.548 19.5001C 19.5486 20.4031 18.8164 21.1353 17.9133 21.1353ZM 19.5806 13.0861C 19.6395 13.6748 19.1772 14.1856 18.5856 14.1856L 4.25548 14.1856C 3.66386 14.1856 3.20158 13.6748 3.26045 13.0861L 3.75802 8.11039C 3.86026 7.08799 4.72059 6.3094 5.7481 6.3094L 17.093 6.3094C 18.1205 6.3094 18.9808 7.08799 19.0831 8.11039L 19.5806 13.0861Z"/>
</defs>
</svg>
