<svg width="35" height="24" viewBox="0 0 35 24" version="1.1" xmlns="http://www.w3.org/2000/svg" xmlns:xlink="http://www.w3.org/1999/xlink">
<title>call</title>
<desc>Created using Figma</desc>
<g id="Canvas" transform="translate(6748 384)">
<g id="call">
<use xlink:href="#path0_fill" transform="translate(-6748 -384)"/>
<use xlink:href="#path1_fill" transform="translate(-6748 -384)"/>
<use xlink:href="#path2_fill" transform="translate(-6748 -384)"/>
<use xlink:href="#path3_fill" transform="translate(-6748 -384)"/>
</g>
</g>
<defs>
<path id="path0_fill" d="M 19.7554 15.2676L 23.4619 18.9828C 24.1982 19.7231 24.1763 20.9485 23.4126 21.7155L 22.3545 22.754L 22.3316 22.7338C 21.8848 23.084 21.3696 23.377 20.8189 23.5928C 20.3057 23.7924 19.8013 23.9185 19.2744 23.9816C 19.0327 24.0073 13.4273 24.5339 6.47218 17.5632C 1.44044 12.52 -0.413566 8.80359 0.0756915 4.73706C 0.13282 4.22998 0.25782 3.72388 0.458504 3.19361C 0.676277 2.63648 0.969246 2.11975 1.31934 1.67188L 1.29102 1.64344L 2.33546 0.590457C 3.10059 -0.176633 4.32374 -0.198972 5.06007 0.539065L 8.76661 4.25476C 9.50343 4.99378 9.48194 6.21875 8.7168 6.98584L 8.10108 7.60413L 6.84766 8.8584C 6.91309 8.97315 6.9795 9.09387 7.04835 9.21924L 7.05128 9.22449C 7.70606 10.4067 8.60255 12.0244 10.3037 13.7289C 12.002 15.4323 13.6157 16.3298 14.7949 16.9847L 15.1636 17.1902L 17.0308 15.319C 17.7949 14.5531 19.0171 14.5306 19.7554 15.2676Z"/>
<path id="path1_fill" d="M 32.7481 11L 34.5083 11L 34.5083 7.30396C 34.5083 7.05469 34.4863 6.80164 34.4424 6.54492C 34.3984 6.28101 34.3101 6.04627 34.1782 5.84095C 34.0537 5.6283 33.8701 5.45594 33.6284 5.32398C 33.3936 5.1847 33.082 5.11499 32.6934 5.11499C 32.2754 5.11499 31.8901 5.21033 31.5381 5.401C 31.1934 5.58435 30.915 5.84827 30.7022 6.193L 30.7022 2.96997L 28.9424 2.96997L 28.9424 11L 30.7022 11L 30.7022 7.68897C 30.7534 7.53491 30.8272 7.39563 30.9224 7.271C 31.0176 7.14637 31.1201 7.03992 31.2305 6.95203C 31.3477 6.85669 31.4649 6.78699 31.582 6.74292C 31.707 6.69165 31.8208 6.66602 31.9233 6.66602C 32.1802 6.66602 32.3818 6.75403 32.5283 6.92993C 32.6748 7.10596 32.7481 7.38098 32.7481 7.75501L 32.7481 11Z"/>
<path id="path2_fill" d="M 16.686 11C 16.686 10.6553 16.7119 10.3473 16.7632 10.0759C 16.8145 9.80469 16.9024 9.55896 17.0269 9.33899C 17.1519 9.1117 17.3203 8.90259 17.5332 8.71192C 17.7456 8.52137 18.0132 8.33435 18.3359 8.151L 19.1939 7.67798C 19.4287 7.55335 19.6118 7.44336 19.7441 7.34803C 19.8833 7.25269 19.9824 7.16834 20.041 7.09497C 20.0996 7.01429 20.1289 6.92261 20.1289 6.81995C 20.1289 6.61463 20.0557 6.44959 19.9092 6.32495C 19.7622 6.20032 19.5532 6.13794 19.2822 6.13794C 18.9741 6.13794 18.7066 6.21497 18.479 6.36902C 18.2515 6.51563 18.0317 6.70996 17.8189 6.95203L 16.6973 5.65393C 16.8145 5.52198 16.9722 5.39368 17.1699 5.26892C 17.3682 5.14429 17.5918 5.0343 17.8408 4.93897C 18.0903 4.83631 18.3618 4.75562 18.6553 4.69702C 18.9556 4.63831 19.2676 4.60901 19.5899 4.60901C 20.3818 4.60901 20.9868 4.78125 21.4053 5.12598C 21.8306 5.47058 22.043 5.93628 22.043 6.52295C 22.043 6.76502 22.0029 6.98133 21.9219 7.172C 21.8486 7.36267 21.7495 7.53491 21.625 7.68897C 21.5005 7.8357 21.3608 7.96765 21.207 8.08496C 21.0532 8.19495 20.8955 8.29761 20.7339 8.39295C 20.624 8.45899 20.4922 8.53601 20.3379 8.62403C 20.1841 8.71192 20.0303 8.80359 19.876 8.89893C 19.7295 8.98694 19.5899 9.07862 19.458 9.17395C 19.3335 9.26197 19.2378 9.34265 19.1719 9.41602L 22.1641 9.41602L 22.1641 11L 16.686 11Z"/>
<path id="path3_fill" fill-rule="evenodd" d="M 25.5308 12.397L 25.5308 10.89L 22.5059 10.89L 22.5059 9.31702L 26.0918 4.719L 27.291 4.719L 27.291 9.30603L 28.2588 9.30603L 28.2588 10.89L 27.291 10.89L 27.291 12.397L 25.5308 12.397ZM 24.2437 9.30603L 25.7398 9.30603L 25.7398 7.35901L 24.2437 9.30603Z"/>
</defs>
</svg>
