<svg width="24" height="22" viewBox="0 0 24 22" version="1.1" xmlns="http://www.w3.org/2000/svg" xmlns:xlink="http://www.w3.org/1999/xlink">
<title>camera</title>
<desc>Created using Figma</desc>
<g id="Canvas" transform="translate(6673 593)">
<g id="camera">
<use xlink:href="#path0_fill" transform="translate(-6673 -593)"/>
<use xlink:href="#path1_fill" transform="translate(-6673 -593)"/>
</g>
</g>
<defs>
<path id="path0_fill" d="M 15.84 12C 15.84 14.1208 14.1208 15.8401 12 15.8401C 9.8792 15.8401 8.15999 14.1208 8.15999 12C 8.15999 9.87935 9.8792 8.16006 12 8.16006C 14.1208 8.16006 15.84 9.87935 15.84 12Z"/>
<path id="path1_fill" fill-rule="evenodd" d="M 6.20402 2.4L 8.4 0L 15.6 0L 17.796 2.4L 21.6 2.4C 22.92 2.4 24 3.48003 24 4.8L 24 19.2C 24 20.52 22.92 21.6 21.6 21.6L 2.4 21.6C 1.07999 21.6 0 20.52 0 19.2L 0 4.8C 0 3.48003 1.07999 2.4 2.4 2.4L 6.20402 2.4ZM 6 12C 6 15.312 8.68799 18 12 18C 15.312 18 18 15.312 18 12C 18 8.68799 15.312 6 12 6C 8.68799 6 6 8.68799 6 12Z"/>
</defs>
</svg>
