<svg width="30" height="20" viewBox="0 0 30 20" version="1.1" xmlns="http://www.w3.org/2000/svg" xmlns:xlink="http://www.w3.org/1999/xlink">
<title>castle</title>
<desc>Created using Figma</desc>
<g id="Canvas" transform="translate(6676 1082)">
<g id="castle">
<use xlink:href="#path0_fill" transform="translate(-6676 -1082)"/>
</g>
</g>
<defs>
<path id="path0_fill" d="M 6.33097 0.666417C 6.25735 0.375513 6.13527 0.00225239 5.66456 7.37689e-06C 5.12605 -0.00256105 4.99815 0.666417 4.99815 0.666417L 3.09322 7.60499C 2.66564 8.66332 2.33823 8.86702 1.71493 9.34828C 1.25936 9.59172 0.79814 9.82491 0.345344 10.0734C 0.0787636 10.22 -0.0546484 10.5285 0.0210059 10.8231C 0.0967417 11.1178 0.362752 11.3238 0.666915 11.3238L 1.99923 11.3238L 1.99923 18.9159C 1.99923 19.0184 2.0002 19.1321 2.00972 19.2265C 2.02062 19.3249 2.05487 19.5551 2.24563 19.746C 2.4364 19.9366 2.66669 19.971 2.76505 19.9819C 2.85941 19.9913 2.97322 19.9923 3.07572 19.9923L 6.92042 19.9923C 7.02292 19.9923 7.13665 19.9913 7.23109 19.9819C 7.32945 19.971 7.55966 19.9366 7.75042 19.746C 7.94127 19.5551 7.97552 19.3249 7.98642 19.2265C 7.99585 19.1321 7.99691 19.0184 7.99691 18.9159L 7.99691 15.3274C 8.33012 14.661 9.32973 13.9946 10.6625 13.9946C 11.9954 13.9946 12.995 14.661 13.3282 15.3274L 13.3282 19.1228C 13.3282 19.1651 13.3292 19.234 13.3349 19.2955C 13.3425 19.3652 13.3679 19.5447 13.508 19.7103C 13.6559 19.8851 13.8397 19.9389 13.9311 19.9583C 13.9998 19.9713 14.0873 19.9794 14.1417 19.9819C 14.7722 20.0153 15.5953 19.9923 15.5953 19.9923C 15.697 19.9923 15.8092 19.9911 15.9026 19.9819C 16.001 19.971 16.2313 19.9366 16.422 19.746C 16.6128 19.5551 16.647 19.3249 16.658 19.2265C 16.6675 19.1321 16.6684 19.0184 16.6684 18.9159L 16.6602 15.3274C 16.9934 14.661 17.6598 13.9946 19.3259 13.9946C 20.9968 13.9946 21.6583 14.661 21.9928 15.3274L 21.9928 18.9211C 21.9928 19.0236 21.9938 19.1373 22.0033 19.2317C 22.0142 19.3301 22.0485 19.5603 22.2392 19.7512C 22.43 19.9418 22.6603 19.9762 22.7586 19.9871C 22.853 19.9965 22.9668 19.9975 23.0693 19.9975L 26.922 19.9975C 27.0245 19.9975 27.1382 19.9965 27.2326 19.9871C 27.331 19.9762 27.5612 19.9418 27.752 19.7512C 27.9428 19.5603 27.9771 19.3301 27.988 19.2317C 27.9974 19.1373 27.9985 19.0236 27.9985 18.9211L 27.9893 11.3238L 29.3117 11.3238C 29.6207 11.3238 29.8893 11.1113 29.9603 10.8104C 30.0313 10.5096 29.8862 10.1995 29.6097 10.0612C 29.1305 9.82163 28.6633 9.55891 28.1917 9.30484C 27.6194 8.99653 27.0777 7.92976 26.7545 7.222C 25.8047 5.13235 25.6018 2.86161 24.9903 0.666409C 24.9096 0.376499 24.7821 0.000343747 24.3239 0.000144744C 23.8658 -5.42597e-05 23.7363 0.333259 23.6575 0.666409C 23.2433 2.41892 22.2991 6.0112 22.2991 6.0112L 16.6313 5.99817L 15.5368 2.6671C 15.5368 2.6671 15.3962 2.00069 14.8704 2.00069C 14.3445 2.00069 14.204 2.6671 14.204 2.6671L 13.3282 5.99769L 7.61801 5.99672C 7.61801 5.99672 6.79519 2.49055 6.33097 0.666417Z"/>
</defs>
</svg>
