<svg width="24" height="22" viewBox="0 0 24 22" version="1.1" xmlns="http://www.w3.org/2000/svg" xmlns:xlink="http://www.w3.org/1999/xlink">
<title>chat</title>
<desc>Created using Figma</desc>
<g id="Canvas" transform="translate(6603 803)">
<g id="chat">
<use xlink:href="#path0_fill" transform="translate(-6603 -803)"/>
<use xlink:href="#path1_fill" transform="translate(-6603 -803)"/>
</g>
</g>
<defs>
<path id="path0_fill" d="M 20.3714 4.14878L 20.3714 10.2408C 20.3714 12.5322 18.4985 14.3896 16.1884 14.3896L 11.8041 14.4272C 11.0033 14.434 10.2269 14.7009 9.59105 15.1876L 6.32692 17.6869C 6.15535 17.8543 5.92758 17.9431 5.69591 17.9431C 5.57873 17.9431 5.46064 17.9205 5.34826 17.8737C 5.01412 17.7348 4.79657 17.4103 4.79657 17.0508L 4.79657 14.9662C 4.79657 14.6418 4.54477 14.3732 4.22115 14.3521L 3.93239 14.3333C 1.73888 14.2047 0 12.4005 0 10.1926L 0 4.14878C 0 1.8575 1.8729 0 4.18299 0L 16.1884 0C 18.4985 0 20.3714 1.8575 20.3714 4.14878Z"/>
<path id="path1_fill" d="M 22.2236 10.6926L 22.2236 10.1992C 23.1118 10.1992 24 11.1368 24 12.4691L 24 16.6077C 24 17.6741 23.2954 18.4401 22.5036 18.6402C 22.348 18.6795 22.2236 18.8104 22.2236 18.9707L 22.2236 20.9073C 22.2236 21.1325 22.0874 21.3359 21.8777 21.4231C 21.8074 21.4522 21.7335 21.4665 21.6599 21.4665C 21.5147 21.4665 21.372 21.4108 21.2644 21.3059L 18.9195 19.284C 18.4724 18.8987 17.902 18.6867 17.3119 18.6867L 14.0036 18.6867C 12.5559 18.6867 11.3918 18.2099 11.3918 16.7738C 11.3918 16.4504 11.6541 16.1882 11.9775 16.1882L 16.4793 16.1882C 19.5069 16.1882 22.2236 13.6956 22.2236 10.6926Z"/>
</defs>
</svg>
