<svg width="32" height="28" viewBox="0 0 32 28" version="1.1" xmlns="http://www.w3.org/2000/svg" xmlns:xlink="http://www.w3.org/1999/xlink">
<title>clown</title>
<desc>Created using Figma</desc>
<g id="Canvas" transform="translate(6677 876)">
<g id="clown">
<use xlink:href="#path0_fill" transform="translate(-6677 -876)"/>
</g>
</g>
<defs>
<path id="path0_fill" fill-rule="evenodd" d="M 30.5509 13.1783C 30.8428 13.3046 31.107 13.4871 31.3288 13.715C 31.5539 13.9473 31.7293 14.2229 31.8444 14.5253C 31.9594 14.8274 32.0116 15.1501 31.9978 15.4732C 31.9735 16.1246 31.6955 16.7408 31.2231 17.1897C 30.7507 17.6389 30.1213 17.8856 29.4696 17.8771L 29.4151 17.8771C 29.0802 17.8723 28.7496 17.8011 28.4424 17.6676C 28.1353 17.5341 27.8577 17.3407 27.6258 17.0991C 27.3768 16.8401 27.1881 16.529 27.0734 16.1885C 26.9587 15.8479 26.9209 15.4861 26.9625 15.1292C 27.0042 14.7724 27.1243 14.429 27.3144 14.124C 27.5044 13.8189 27.7595 13.5597 28.0615 13.365C 27.7063 12.706 27.1176 12.2032 26.411 11.9558C 25.7044 11.7083 24.8535 11.5701 24.1646 11.8635C 23.8345 11.9811 23.6118 12.1948 23.3654 12.4439C 23.2324 12.5784 23.064 12.6526 22.8183 12.6881C 19.6421 13.1472 12.311 13.6965 8.39529 12.2215C 8.16828 12.136 8.03613 12.0583 7.95941 11.974C 7.7022 11.6914 7.35673 11.5043 6.97949 11.4435C 6.78467 11.3814 6.57865 11.3624 6.37581 11.3879C 6.17297 11.4135 5.9781 11.4829 5.8048 11.5913C 4.86348 12.1436 4.21004 13.614 3.88332 14.602C 4.08236 14.7173 4.26317 14.8614 4.42005 15.0297C 4.64558 15.2641 4.82236 15.5408 4.93987 15.8439C 5.05739 16.147 5.11337 16.4707 5.10463 16.7956C 5.07838 17.4547 4.79643 18.0775 4.31863 18.5321C 3.84082 18.9866 3.20466 19.2371 2.54519 19.2307L 2.49078 19.2307C 2.15228 19.2269 1.81787 19.1562 1.50677 19.0227C 1.19568 18.8892 0.914158 18.6955 0.678223 18.4527C 0.452971 18.2186 0.276909 17.9417 0.160675 17.6383C 0.0443928 17.335 -0.00968861 17.0114 0.00142205 16.6868C 0.0150967 16.2118 0.164426 15.7505 0.431889 15.3575C 0.699304 14.9648 1.0736 14.6567 1.51057 14.4696C 1.51057 13.754 1.51836 12.5014 1.62728 11.1556C 1.82955 8.6974 3.00424 6.87696 4.9413 6.01356C 5.9941 5.58623 7.13826 5.43334 8.26633 5.56951C 9.39439 5.7055 10.4693 6.12599 11.3903 6.79149C 11.9737 7.24086 12.4967 7.76392 12.9462 8.34737C 13.4715 8.0904 13.888 7.65452 14.1209 7.11817C 14.1557 6.84012 14.123 6.5577 14.0255 6.29503C 13.928 6.03236 13.7686 5.79704 13.5608 5.60902C 13.0396 4.97106 11.4059 4.21648 10.0523 3.74186C 9.85178 4.1029 9.56936 4.41153 9.22773 4.64343C 8.8861 4.87514 8.49486 5.02347 8.08542 5.07646C 7.67599 5.12945 7.25982 5.08558 6.87047 4.94845C 6.48112 4.81114 6.12938 4.58437 5.84364 4.28656C 5.61411 4.04631 5.43415 3.76351 5.31403 3.45374C 5.1939 3.14416 5.13597 2.81369 5.14357 2.4817C 5.17182 1.80955 5.46027 1.17482 5.94809 0.711779C 6.43592 0.24855 7.0848 -0.00652067 7.75742 0.000126739L 7.81184 0.000126739C 8.15641 0.00164615 8.49733 0.071159 8.81502 0.204677C 9.13272 0.338195 9.42098 0.533059 9.66333 0.778063C 9.76931 0.88689 9.86318 1.00673 9.94337 1.13588C 16.6181 -0.583325 20.0255 1.96833 20.9979 5.02556C 21.236 5.75393 21.3823 6.50908 21.4335 7.27372C 22.0684 6.91381 22.7319 6.6067 23.4173 6.3558C 25.3154 5.6867 26.9102 5.81907 28.1549 6.75256C 30.3253 8.36294 30.5509 11.8247 30.5509 13.1783ZM 15.5131 14.5216C 17.8436 14.5846 20.5339 14.377 22.8183 13.862L 22.616 21.0977C 22.5492 22.9206 21.7736 24.6453 20.4543 25.9051C 19.1351 27.1646 17.3764 27.8598 15.5524 27.8423L 15.1556 27.8423C 13.2374 27.796 11.4159 26.9901 10.0912 25.6019C 9.47202 24.9632 8.98544 24.2081 8.65967 23.3802C 8.33385 22.5523 8.17526 21.6682 8.19302 20.7788L 8.39529 13.5163C 10.8911 14.1731 12.9968 14.4864 15.5131 14.5216ZM 13.8874 18.6394C 13.6781 18.3625 13.3729 18.1739 13.0317 18.1103C 12.6645 18.1779 12.3319 18.3703 12.0903 18.655C 11.9845 18.7431 11.8495 18.7887 11.7117 18.7825C 11.574 18.7764 11.4436 18.7188 11.346 18.6212C 11.2485 18.5238 11.1911 18.3933 11.1849 18.2556C 11.1787 18.1179 11.2241 17.9829 11.3124 17.8771C 11.7637 17.3744 12.3897 17.0627 13.0628 17.0057C 13.3993 17.0393 13.7252 17.1423 14.0198 17.3084C 14.3144 17.4744 14.5713 17.6999 14.7743 17.9703C 14.8186 18.0285 14.8509 18.0947 14.8694 18.1654C 14.888 18.236 14.8923 18.3097 14.8822 18.3821C 14.872 18.4545 14.8477 18.524 14.8105 18.5868C 14.7732 18.6497 14.7239 18.7046 14.6654 18.7483C 14.6073 18.7925 14.541 18.825 14.4703 18.8434C 14.3996 18.862 14.326 18.8664 14.2536 18.8562C 14.1813 18.8461 14.1116 18.8218 14.0488 18.7845C 13.9859 18.7473 13.9311 18.6979 13.8874 18.6394ZM 16.1696 18.3948C 16.1517 18.2725 16.1754 18.1477 16.2368 18.0402C 16.6943 17.5403 17.3204 17.2273 17.9948 17.1613C 18.3313 17.1949 18.6573 17.2978 18.9518 17.464C 19.2465 17.63 19.5034 17.8554 19.7063 18.1259C 19.7507 18.184 19.783 18.2503 19.8016 18.3209C 19.8201 18.3916 19.8245 18.4653 19.8143 18.5376C 19.8042 18.61 19.7797 18.6795 19.7425 18.7424C 19.7053 18.8053 19.656 18.8601 19.5974 18.9038C 19.5393 18.9481 19.473 18.9806 19.4023 18.999C 19.3317 19.0176 19.2581 19.022 19.1857 19.0117C 19.1134 19.0016 19.0437 18.9773 18.9808 18.9401C 18.9179 18.9029 18.8631 18.8535 18.8195 18.795C 18.6101 18.5181 18.305 18.3295 17.9637 18.2659C 17.5938 18.3107 17.2546 18.4942 17.0147 18.7794C 16.9107 18.8463 16.7872 18.8763 16.6641 18.8645C 16.541 18.8529 16.4253 18.8003 16.3357 18.715C 16.2461 18.6299 16.1876 18.5171 16.1696 18.3948ZM 18.3592 20.7678C 18.4829 20.692 18.6314 20.668 18.7726 20.7009C 18.9132 20.7343 19.0351 20.8215 19.1121 20.9436C 19.1892 21.0657 19.2154 21.2133 19.185 21.3544C 18.8971 22.5447 17.7614 24.7617 15.5131 24.7617L 15.4354 24.7617C 13.1093 24.7152 12.0825 22.4047 11.8647 21.1989C 11.8438 21.125 11.8385 21.0475 11.8491 20.9715C 11.8598 20.8956 11.8861 20.8225 11.9266 20.7573C 11.967 20.692 12.0207 20.6359 12.084 20.5926C 12.1474 20.5492 12.219 20.5195 12.2945 20.5055C 12.37 20.4912 12.4475 20.4931 12.5223 20.5106C 12.597 20.5281 12.6672 20.5611 12.7285 20.6073C 12.7898 20.6534 12.8409 20.7119 12.8783 20.779C 12.9158 20.846 12.9387 20.9201 12.9459 20.9966C 12.9615 21.1054 13.4517 23.6104 15.4587 23.6649C 17.4658 23.7194 18.1114 21.1054 18.1114 21.1054C 18.1465 20.9647 18.2355 20.8435 18.3592 20.7678Z"/>
</defs>
</svg>
