<svg width="26" height="26" viewBox="0 0 26 26" version="1.1" xmlns="http://www.w3.org/2000/svg" xmlns:xlink="http://www.w3.org/1999/xlink">
<title>compass</title>
<desc>Created using Figma</desc>
<g id="Canvas" transform="translate(6674 665)">
<g id="compass">
<use xlink:href="#path0_fill" transform="translate(-6674 -665)"/>
<use xlink:href="#path1_fill" transform="translate(-6674 -665)"/>
<use xlink:href="#path2_fill" transform="translate(-6674 -665)"/>
</g>
</g>
<defs>
<path id="path0_fill" d="M 12.9892 14.3156C 13.3381 14.3156 13.6727 14.1771 13.9194 13.9302C 14.1661 13.6836 14.3048 13.3489 14.3048 13C 14.3048 12.6512 14.1661 12.3165 13.9194 12.0697C 13.6727 11.823 13.3381 11.6845 12.9892 11.6845C 12.6403 11.6845 12.3056 11.823 12.0589 12.0697C 11.8122 12.3165 11.6735 12.6512 11.6735 13C 11.6735 13.3489 11.8122 13.6836 12.0589 13.9302C 12.3056 14.1771 12.6403 14.3156 12.9892 14.3156Z"/>
<path id="path1_fill" fill-rule="evenodd" d="M 7.31617 21.4869C 8.99529 22.6113 10.9703 23.2125 12.9912 23.2143C 14.3314 23.2166 15.659 22.955 16.898 22.4442C 18.1371 21.9335 19.2633 21.1835 20.2127 20.2375C 21.162 19.2915 21.9156 18.1677 22.4306 16.9304C 22.9456 15.6933 23.2119 14.3666 23.2142 13.0263C 23.2194 11.0053 22.6249 9.02824 21.5062 7.34543C 20.3873 5.6624 18.7945 4.34911 16.9291 3.57175C 15.0636 2.79439 13.0094 2.58787 11.0266 2.97825C 9.04369 3.36863 7.22124 4.33846 5.78979 5.76509C 4.35834 7.19173 3.38222 9.01078 2.98498 10.9924C 2.58774 12.9738 2.78718 15.0286 3.55814 16.8968C 4.32915 18.7648 5.63705 20.3622 7.31617 21.4869ZM 12.9992 5.57149C 12.8154 5.57126 12.6359 5.51663 12.4833 5.41438C 12.3306 5.31214 12.2117 5.16705 12.1416 4.99725C 12.0715 4.82723 12.0534 4.64043 12.0895 4.46042C 12.1256 4.2802 12.2144 4.11493 12.3445 3.98526C 12.4747 3.85558 12.6403 3.7674 12.8206 3.73181C 13.0008 3.69644 13.1876 3.71503 13.3571 3.78576C 13.5268 3.85649 13.6716 3.97596 13.7733 4.12876C 13.875 4.28178 13.929 4.46156 13.9285 4.64541C 13.9283 4.76715 13.9041 4.88776 13.8573 5.0002C 13.8105 5.11264 13.742 5.21489 13.6557 5.30081C 13.5694 5.38695 13.467 5.45496 13.3544 5.50144C 13.2417 5.54791 13.121 5.57172 12.9992 5.57149ZM 12.4833 22.1286C 12.6359 22.2309 12.8154 22.2855 12.9992 22.2857C 13.121 22.286 13.2417 22.2622 13.3544 22.2157C 13.467 22.1692 13.5694 22.1012 13.6557 22.0151C 13.742 21.9291 13.8105 21.8269 13.8573 21.7145C 13.9041 21.602 13.9283 21.4814 13.9285 21.3597C 13.929 21.1758 13.875 20.996 13.7733 20.843C 13.6716 20.6902 13.5268 20.5707 13.3571 20.5C 13.1876 20.4293 13.0008 20.4107 12.8206 20.4461C 12.6403 20.4817 12.4747 20.5698 12.3445 20.6995C 12.2144 20.8292 12.1256 20.9945 12.0895 21.1747C 12.0534 21.3547 12.0715 21.5415 12.1416 21.7115C 12.2117 21.8813 12.3306 22.0264 12.4833 22.1286ZM 20.4285 12.9991C 20.4287 12.8155 20.4833 12.636 20.5856 12.4834C 20.6878 12.3306 20.833 12.2118 21.0029 12.1418C 21.1727 12.0717 21.3595 12.0536 21.5397 12.0896C 21.7198 12.1257 21.8852 12.2145 22.0148 12.3447C 22.1445 12.4748 22.2327 12.6405 22.2682 12.8207C 22.3037 13.001 22.2849 13.1878 22.2142 13.3573C 22.1435 13.5269 22.0242 13.6715 21.8712 13.7733C 21.7182 13.8751 21.5384 13.9291 21.3547 13.9286C 21.2329 13.9284 21.1123 13.9041 20.9998 13.8574C 20.8873 13.8105 20.7851 13.742 20.6992 13.6557C 20.6131 13.5695 20.545 13.4671 20.4985 13.3544C 20.4521 13.2417 20.4283 13.1211 20.4285 12.9991ZM 3.87133 12.4834C 3.76908 12.636 3.71445 12.8155 3.71428 12.9991C 3.71405 13.1211 3.73785 13.2417 3.78427 13.3544C 3.83075 13.4671 3.89887 13.5695 3.9849 13.6557C 4.07088 13.742 4.17307 13.8105 4.28551 13.8574C 4.39801 13.9041 4.51862 13.9284 4.64047 13.9286C 4.82415 13.9291 5.00393 13.8751 5.15689 13.7733C 5.30992 13.6715 5.42928 13.5269 5.49995 13.3573C 5.57062 13.1878 5.58944 13.001 5.55391 12.8207C 5.51843 12.6405 5.43024 12.4748 5.30057 12.3447C 5.17089 12.2145 5.00551 12.1257 4.8254 12.0896C 4.64523 12.0536 4.45843 12.0717 4.28863 12.1418C 4.11877 12.2118 3.97357 12.3306 3.87133 12.4834ZM 7.41456 18.53C 7.45826 18.4386 7.49492 18.36 7.52746 18.2899C 7.58628 18.1636 7.63191 18.0657 7.68212 17.9725C 8.74365 15.9766 9.8053 13.9914 10.8668 12.006L 11.0269 11.7067C 11.1339 11.4873 11.3 11.3021 11.5064 11.1715C 13.7362 9.95635 15.966 8.76322 18.1959 7.57032L 18.4188 7.50344C 18.3623 7.66009 18.2952 7.81289 18.2181 7.96047L 14.8733 14.3156C 14.7622 14.5357 14.5926 14.7209 14.3828 14.8508C 12.1976 16.0326 10.0049 17.207 7.80477 18.374L 7.41456 18.53Z"/>
<path id="path2_fill" fill-rule="evenodd" d="M 5.76604 23.8015C 7.9031 25.2326 10.4167 25.9978 12.9888 26C 14.6945 26.003 16.3842 25.67 17.9612 25.0198C 19.5382 24.3698 20.9716 23.4154 22.1798 22.2114C 23.388 21.0074 24.3472 19.5771 25.0026 18.0024C 25.6581 16.4276 25.9971 14.7393 26 13.0336C 26.0066 10.4614 25.25 7.94506 23.8261 5.80318C 22.4021 3.66107 20.3748 1.98983 18.0006 1.00028C 15.6264 0.0109507 13.012 -0.252023 10.4884 0.244907C 7.96476 0.741837 5.64527 1.97623 3.82338 3.79188C 2.00149 5.60753 0.759222 7.92284 0.25362 10.4447C -0.251924 12.9667 0.00186795 15.582 0.983146 17.9594C 1.96437 20.337 3.62898 22.3701 5.76604 23.8015ZM 6.79946 22.2583C 8.63121 23.4852 10.7857 24.1411 12.9903 24.1429C 14.4524 24.1454 15.9007 23.86 17.2524 23.3027C 18.6041 22.7455 19.8328 21.9276 20.8684 20.8956C 21.904 19.8634 22.7261 18.6377 23.2879 17.2879C 23.8497 15.9379 24.1403 14.4908 24.1428 13.0286C 24.1484 10.8242 23.4999 8.66733 22.2794 6.83127C 21.0589 4.99521 19.3212 3.56269 17.2862 2.71459C 15.2512 1.8665 13.0103 1.64116 10.8472 2.06713C 8.68403 2.49311 6.69591 3.55112 5.13428 5.10743C 3.5727 6.66351 2.50788 8.64806 2.07454 10.8097C 1.6412 12.9715 1.85878 15.2131 2.69979 17.2509C 3.54085 19.289 4.96765 21.0314 6.79946 22.2583Z"/>
</defs>
</svg>
