<svg width="26" height="13" viewBox="0 0 26 13" version="1.1" xmlns="http://www.w3.org/2000/svg" xmlns:xlink="http://www.w3.org/1999/xlink">
<title>departure</title>
<desc>Created using Figma</desc>
<g id="Canvas" transform="translate(6744 728)">
<g id="departure">
<use xlink:href="#path0_fill" transform="translate(-6744 -728)" fill="#202020"/>
</g>
</g>
<defs>
<path id="path0_fill" d="M 0.00467067 9.18686C 0.0306275 8.9625 0.165795 8.76617 0.365994 8.66152L 0.392781 8.64895C 0.454497 8.62313 1.9136 8.01646 2.80773 7.89095C 2.97728 7.86707 3.15567 7.90034 3.31914 7.98222L 5.64695 8.54785C 6.23277 8.24658 8.35457 6.86154 10.971 5.52669L 3.96089 1.92679C 3.77905 1.83097 3.67316 1.66667 3.67799 1.48732C 3.68268 1.30811 3.797 1.14974 3.98381 1.06373L 6.06864 0.102218C 6.2687 0.0099887 6.58667 -0.0264612 6.80662 0.020482L 17.1331 2.40345C 19.0883 1.4222 20.7019 0.626509 21.3747 0.32911C 21.8686 0.110824 22.469 0.000782928 23.1592 0.000782928C 24.2982 0.000782928 25.6915 0.328143 25.949 0.811245C 25.9591 0.829746 26.639 2.84665 22.7126 5.10379L 8.62881 11.736C 8.7614 11.6685 8.26501 11.9177 7.92536 11.9774C 7.35058 12.0783 6.72816 12.1076 6.08794 12.1076L 5.90238 12.1076C 5.8136 12.1076 5.72634 12.1076 5.6406 12.1076L 5.58275 12.1076L 5.58275 12.0872C 5.16854 12.0872 4.86424 11.9079 4.81537 11.8741L 0.241734 9.79519L 0.230411 9.78153C 0.0598968 9.63407 -0.0210101 9.41205 0.00467067 9.18686Z"/>
</defs>
</svg>
