<svg width="17" height="8" viewBox="0 0 17 8" version="1.1" xmlns="http://www.w3.org/2000/svg" xmlns:xlink="http://www.w3.org/1999/xlink">
<title>double-check</title>
<desc>Created using Figma</desc>
<g id="Canvas" transform="translate(6809 796)">
<g id="double-check">
<use xlink:href="#path0_fill" transform="translate(-6809 -796)"/>
<use xlink:href="#path1_fill" transform="translate(-6809 -796)"/>
</g>
</g>
<defs>
<path id="path0_fill" d="M 9.25202 0.125025C 9.41813 -0.0416751 9.69027 -0.0416751 9.85638 0.125025L 10.7629 1.0298C 10.9314 1.19709 10.9314 1.46997 10.7629 1.63667L 4.52433 7.87586C 4.35645 8.04138 4.08607 8.04138 3.91996 7.87586L 0.124142 4.05544C -0.0413806 3.88874 -0.0413806 3.61646 0.124142 3.45108L 1.03186 2.54439C 1.19915 2.3771 1.46953 2.3771 1.63564 2.54439L 4.2245 5.15122L 9.25202 0.125025Z"/>
<path id="path1_fill" d="M 15.2515 0.125025C 15.4176 -0.0416751 15.6897 -0.0416751 15.8558 0.125025L 16.7624 1.0298C 16.9308 1.19709 16.9308 1.46997 16.7624 1.63667L 10.5238 7.87586C 10.3559 8.04138 10.0855 8.04138 9.91941 7.87586L 8.12399 6.05541L 9.6349 4.54435L 10.2239 5.15122L 15.2515 0.125025Z"/>
</defs>
</svg>
