<svg width="24" height="21" viewBox="0 0 24 21" version="1.1" xmlns="http://www.w3.org/2000/svg" xmlns:xlink="http://www.w3.org/1999/xlink">
<title>driver</title>
<desc>Created using Figma</desc>
<g id="Canvas" transform="translate(6743 802)">
<g id="driver">
<use xlink:href="#path0_fill" transform="translate(-6743 -802)" fill="#202020"/>
<use xlink:href="#path1_fill" transform="translate(-6743 -802)" fill="#202020"/>
<use xlink:href="#path2_fill" transform="translate(-6743 -802)" fill="#202020"/>
</g>
</g>
<defs>
<path id="path0_fill" d="M 13.6364 1.63636L 13.1194 5.25506C 13.1221 5.31765 13.1234 5.38077 13.1234 5.44416C 13.1234 7.85982 11.165 9.81791 8.74911 9.81791C 6.33825 9.81791 4.38281 7.86808 4.37456 5.45961L 4.36364 5.45455L 3.81818 1.63636L 8.72727 0L 13.6364 1.63636Z"/>
<path id="path1_fill" d="M 0 18.5249L 0 15.0285C 0 13.1439 2.93954 11.0686 5.46813 10.4084L 6 10.3636L 6 12L 7.63636 12L 8.74911 15.2727L 9.81818 12L 10.1343 12C 9.92845 12.6914 9.81818 13.4236 9.81818 14.1818C 9.81818 15.7953 10.3186 17.2918 11.1728 18.5249L 0 18.5249Z"/>
<path id="path2_fill" fill-rule="evenodd" d="M 17.4545 20.7273C 13.8396 20.7273 10.9091 17.7968 10.9091 14.1818C 10.9091 10.5669 13.8396 7.63636 17.4545 7.63636C 21.0695 7.63636 24 10.5669 24 14.1818C 24 17.7968 21.0695 20.7273 17.4545 20.7273ZM 15.2378 10.4225C 15.8874 10.0387 16.6452 9.81818 17.4545 9.81818C 18.6738 9.81818 19.7762 10.3181 20.568 11.1243L 18.5455 12.2919C 18.2245 12.1063 17.8519 12 17.4545 12C 17.2591 12 17.0697 12.0258 16.8894 12.074L 15.2378 10.4225ZM 19.6364 14.1818C 19.6364 14.9893 19.1977 15.6943 18.5455 16.0717L 18.5455 18.408C 20.4276 17.9236 21.8182 16.2153 21.8182 14.1818C 21.8182 13.777 21.7631 13.3852 21.66 13.0134L 19.6364 14.1818ZM 15.2727 14.1818C 15.2727 13.9863 15.2983 13.7972 15.3465 13.6169L 13.695 11.9651C 13.3112 12.6147 13.0909 13.3727 13.0909 14.1818C 13.0909 16.2153 14.4814 17.9236 16.3636 18.408L 16.3636 16.0717C 15.7114 15.6943 15.2727 14.9893 15.2727 14.1818Z"/>
</defs>
</svg>
