<svg width="30" height="25" viewBox="0 0 30 25" version="1.1" xmlns="http://www.w3.org/2000/svg" xmlns:xlink="http://www.w3.org/1999/xlink">
<title>food</title>
<desc>Created using Figma</desc>
<g id="Canvas" transform="translate(6676 384)">
<g id="food">
<use xlink:href="#path0_fill" transform="translate(-6676 -384)"/>
<use xlink:href="#path1_fill" transform="translate(-6676 -384)"/>
<use xlink:href="#path2_fill" transform="translate(-6676 -384)"/>
<use xlink:href="#path3_fill" transform="translate(-6676 -384)"/>
</g>
</g>
<defs>
<path id="path0_fill" d="M 29.3738 12.3444L 29.3738 0.271402C 29.3738 0.154914 29.2998 0.0513871 29.1893 0.0141615C 29.0788 -0.022972 28.9569 0.0145759 28.8865 0.107398C 27.38 2.09389 26.5648 4.5185 26.5648 7.01149L 26.5648 11.4281C 26.5648 11.9347 26.9755 12.3454 27.482 12.3454L 27.8644 12.3454C 27.4875 16.2385 27.2385 21.6834 27.2385 22.321C 27.2385 23.3254 27.8566 24.1396 28.6191 24.1396C 29.3819 24.1396 30 23.3253 30 22.321C 30 21.6834 29.751 16.2376 29.3738 12.3444Z"/>
<path id="path1_fill" d="M 9.05238 11.6927C 9.05238 8.15701 11.9288 5.28056 15.4645 5.28056C 19.0002 5.28056 21.8766 8.15701 21.8766 11.6927C 21.8766 15.2283 19.0002 18.1048 15.4645 18.1048C 11.9288 18.1048 9.05238 15.2283 9.05238 11.6927Z"/>
<path id="path2_fill" fill-rule="evenodd" d="M 5.54429 11.5114C 5.54429 6.02436 9.99239 1.57623 15.4796 1.57623C 20.9664 1.57623 25.4145 6.02436 25.4145 11.5114C 25.4145 16.9985 20.9664 21.4466 15.4796 21.4466C 9.99239 21.4466 5.54429 16.9985 5.54429 11.5114ZM 7.94072 11.5115C 7.94072 15.6682 11.3228 19.05 15.4796 19.05C 19.6363 19.05 23.0181 15.6682 23.0181 11.5115C 23.0181 7.35474 19.6363 3.97294 15.4796 3.97294C 11.3228 3.97294 7.94072 7.35474 7.94072 11.5115Z"/>
<path id="path3_fill" d="M 5.28387 7.69037C 5.28387 8.64907 4.77298 9.48836 4.00867 9.95125C 3.51177 10.2524 3.23404 10.8161 3.29814 11.3937C 3.72983 15.2819 4.02267 21.6296 4.02267 22.3211C 4.02267 23.3254 3.40459 24.1397 2.64175 24.1397C 1.87928 24.1397 1.2612 23.3255 1.2612 22.3211C 1.2612 21.6296 1.55404 15.2819 1.98536 11.3937C 2.04946 10.8158 1.77246 10.2525 1.27483 9.95132C 0.510522 9.48836 0 8.64914 0 7.69041L 0.378656 1.50164C 0.393021 1.26574 0.588611 1.08182 0.825087 1.08182C 1.08035 1.08182 1.28441 1.29588 1.27152 1.55116L 1.02546 6.51457C 1.02546 6.79348 1.25163 7.01971 1.53046 7.01971C 1.80967 7.01971 2.03583 6.79359 2.03583 6.51457L 2.15885 1.55321C 2.16512 1.29107 2.37949 1.08189 2.64175 1.08189C 2.90438 1.08189 3.11875 1.291 3.12502 1.55321L 3.24804 6.51457C 3.24804 6.79348 3.4742 7.01971 3.75341 7.01971C 4.03224 7.01971 4.2584 6.79359 4.2584 6.51457L 4.01235 1.55116C 3.99946 1.29599 4.20315 1.08182 4.45878 1.08182C 4.69526 1.08182 4.89085 1.26574 4.90521 1.50164L 5.28387 7.69037Z"/>
</defs>
</svg>
