<svg width="21" height="30" viewBox="0 0 21 30" version="1.1" xmlns="http://www.w3.org/2000/svg" xmlns:xlink="http://www.w3.org/1999/xlink">
<title>gourd</title>
<desc>Created using Figma</desc>
<g id="Canvas" transform="translate(6671 807)">
<g id="gourd">
<use xlink:href="#path0_fill" transform="translate(-6671 -807)"/>
<use xlink:href="#path1_fill" transform="translate(-6671 -807)"/>
</g>
</g>
<defs>
<path id="path0_fill" d="M 5.84154 0.0991533C 5.31814 0.347269 5.10317 0.978769 5.36649 1.49466L 8.64852 8.64035C 8.99238 9.31412 9.79696 9.60964 10.4951 9.31859C 11.3159 8.97643 11.637 7.98216 11.1717 7.22451L 7.15716 0.489851C 6.88264 0.0429186 6.31554 -0.1255 5.84154 0.0991533Z"/>
<path id="path1_fill" d="M 1.51166 6.90116C 1.76947 6.76723 2.11286 6.67651 2.38083 6.67708C 2.67853 6.68667 2.94033 6.87666 3.04168 7.15669C 3.14304 7.43672 3.06353 7.75019 2.84087 7.94806C 2.79024 7.99308 2.74683 8.02481 2.70019 8.05891C 2.62325 8.11515 2.53718 8.17803 2.3947 8.31833C 2.15694 8.55244 2.25743 8.86071 2.37646 9.02413C 3.53102 10.6261 7.14924 10.9566 10.1764 10.9391C 13.2035 10.9217 15.6806 10.4145 17.9519 9.05149C 18.0156 9.0285 18.3388 8.72359 18.1718 8.37533C 18.12 8.26713 18.0201 8.11429 17.848 7.90465C 17.6342 7.64428 17.6272 7.27115 17.8309 7.0029C 18.0348 6.73455 18.3961 6.64127 18.7043 6.77739C 18.9716 6.89584 19.2512 7.04109 19.5025 7.19174C 19.7563 7.33014 20.03 7.57151 20.1858 7.79835C 20.3438 8.05502 20.4604 8.44799 20.468 8.74931C 20.4604 9.05062 20.3438 9.44359 20.1858 9.70026C 20.0331 9.92254 19.7671 10.1589 19.5176 10.2985C 19.3723 10.395 19.2232 10.4836 19.0746 10.572C 18.7525 10.7634 18.4325 10.9535 18.1577 11.2208C 17.7037 11.6557 17.2954 12.3992 17.4717 13.2007C 17.648 14.0021 17.8792 14.6101 18.1347 15.3945C 18.4178 16.276 18.8488 17.1267 19.0319 18.036C 19.3842 19.3354 19.3514 20.8112 18.9414 22.093C 17.8613 25.7662 15.242 26.3754 12.6089 29.046C 12.3914 29.2989 12.0809 29.549 11.7917 29.7032C 11.4853 29.8578 11.0795 29.9707 10.7374 29.9968C 10.3946 30.015 9.97772 29.9552 9.6539 29.8414C 9.33283 29.7202 8.97519 29.4978 8.7246 29.2633L 8.71311 29.2521C 5.85331 26.3922 3.24002 25.5358 2.46385 21.1951L 2.46328 21.192C 2.22571 19.8003 2.31453 18.2895 2.71368 16.9351C 2.88122 16.3595 3.0136 15.7441 3.15919 15.1315C 3.37111 14.2525 3.47437 13.5059 3.13477 12.633C 2.82653 11.7805 2.10091 11.2806 1.43094 10.7554C 1.37233 10.7094 1.31325 10.6631 1.25388 10.6162C 1.17826 10.5561 1.0656 10.4591 0.956269 10.354C 0.748049 10.1521 0.456903 9.81729 0.263976 9.47428C 0.0711447 9.12205 -0.112378 8.59514 0.0845384 8.03479C 0.280599 7.47662 0.882729 7.12914 1.51166 6.90116Z"/>
</defs>
</svg>
