<svg width="24" height="30" viewBox="0 0 24 30" version="1.1" xmlns="http://www.w3.org/2000/svg" xmlns:xlink="http://www.w3.org/1999/xlink">
<title>grape</title>
<desc>Created using Figma</desc>
<g id="Canvas" transform="translate(6673 737)">
<g id="grape">
<use xlink:href="#path0_fill" transform="translate(-6673 -737)"/>
<use xlink:href="#path1_fill" transform="translate(-6673 -737)"/>
<use xlink:href="#path2_fill" transform="translate(-6673 -737)"/>
<use xlink:href="#path3_fill" transform="translate(-6673 -737)"/>
<use xlink:href="#path4_fill" transform="translate(-6673 -737)"/>
<use xlink:href="#path5_fill" transform="translate(-6673 -737)"/>
<use xlink:href="#path6_fill" transform="translate(-6673 -737)"/>
<use xlink:href="#path7_fill" transform="translate(-6673 -737)"/>
<use xlink:href="#path8_fill" transform="translate(-6673 -737)"/>
</g>
</g>
<defs>
<path id="path0_fill" d="M 13.793 0.0555203C 13.229 -0.132438 12.6197 0.172296 12.4318 0.73617C 12.2436 1.30004 12.5486 1.90956 13.1122 2.09752C 13.2484 2.14288 13.5762 2.40033 13.9168 2.94653C 14.1149 3.26468 14.246 3.56552 14.32 3.79362C 14.075 4.08884 13.786 4.45532 13.5121 4.8387C 13.1045 5.41031 12.653 6.12548 12.4318 6.78992C 12.2436 7.3538 12.5486 7.96331 13.1122 8.15127C 13.6762 8.33923 14.2855 8.03449 14.4738 7.47062C 14.5884 7.1261 14.8803 6.62764 15.2648 6.08794C 15.6369 5.56494 16.021 5.10466 16.2759 4.81714C 16.7238 4.31186 17.7331 3.71466 18.9826 3.23392C 20.2116 2.76095 21.441 2.48904 22.1968 2.48904C 22.7912 2.48904 23.2731 2.0072 23.2731 1.41284C 23.2731 0.818431 22.7912 0.336588 22.1968 0.336588C 21.0696 0.336588 19.5605 0.70518 18.2095 1.22511C 17.4639 1.51199 16.6927 1.87294 16.0177 2.29394C 15.9317 2.12475 15.839 1.96147 15.7434 1.80803C 15.3336 1.15072 14.6657 0.346475 13.793 0.0555203Z"/>
<path id="path1_fill" d="M 12.1077 7.80291C 12.1077 9.66033 10.6018 11.1661 8.7444 11.1661C 6.88698 11.1661 5.38111 9.66033 5.38111 7.80291C 5.38111 5.94548 6.88698 4.43971 8.7444 4.43971C 10.6018 4.43971 12.1077 5.94548 12.1077 7.80291Z"/>
<path id="path2_fill" d="M 20.1794 10.4935C 20.1794 12.3509 18.6735 13.8567 16.8161 13.8567C 14.9586 13.8567 13.4528 12.3509 13.4528 10.4935C 13.4528 8.63609 14.9586 7.13032 16.8161 7.13032C 18.6735 7.13032 20.1794 8.63609 20.1794 10.4935Z"/>
<path id="path3_fill" d="M 17.4888 21.2557C 19.3462 21.2557 20.8521 19.75 20.8521 17.8925C 20.8521 16.0351 19.3462 14.5293 17.4888 14.5293C 15.6314 14.5293 14.1255 16.0351 14.1255 17.8925C 14.1255 19.75 15.6314 21.2557 17.4888 21.2557Z"/>
<path id="path4_fill" d="M 14.1255 14.5293C 14.1255 16.3868 12.6197 17.8925 10.7622 17.8925C 8.9048 17.8925 7.39894 16.3868 7.39894 14.5293C 7.39894 12.6719 8.9048 11.1662 10.7622 11.1662C 12.6197 11.1662 14.1255 12.6719 14.1255 14.5293Z"/>
<path id="path5_fill" d="M 3.36329 15.8746C 5.22071 15.8746 6.72657 14.3689 6.72657 12.5114C 6.72657 10.654 5.22071 9.14823 3.36329 9.14823C 1.50586 9.14823 0 10.654 0 12.5114C 0 14.3689 1.50586 15.8746 3.36329 15.8746Z"/>
<path id="path6_fill" d="M 8.07204 19.2378C 8.07204 21.0952 6.56617 22.601 4.70875 22.601C 2.85132 22.601 1.34546 21.0952 1.34546 19.2378C 1.34546 17.3803 2.85132 15.8746 4.70875 15.8746C 6.56617 15.8746 8.07204 17.3803 8.07204 19.2378Z"/>
<path id="path7_fill" d="M 6.05384 30C 7.91127 30 9.41713 28.4942 9.41713 26.6368C 9.41713 24.7794 7.91127 23.2736 6.05384 23.2736C 4.19642 23.2736 2.69056 24.7794 2.69056 26.6368C 2.69056 28.4942 4.19642 30 6.05384 30Z"/>
<path id="path8_fill" d="M 14.7982 21.9284C 14.7982 23.7858 13.2924 25.2916 11.435 25.2916C 9.57753 25.2916 8.07167 23.7858 8.07167 21.9284C 8.07167 20.071 9.57753 18.5652 11.435 18.5652C 13.2924 18.5652 14.7982 20.071 14.7982 21.9284Z"/>
</defs>
</svg>
