<svg width="30" height="20" viewBox="0 0 30 20" version="1.1" xmlns="http://www.w3.org/2000/svg" xmlns:xlink="http://www.w3.org/1999/xlink">
<title>hat</title>
<desc>Created using Figma</desc>
<g id="Canvas" transform="translate(6676 1012)">
<g id="hat">
<use xlink:href="#path0_fill" transform="translate(-6676 -1012)"/>
<use xlink:href="#path1_fill" transform="translate(-6676 -1012)"/>
</g>
</g>
<defs>
<path id="path0_fill" d="M 25.336 4.12889C 22.4049 6.1235 22.2146 9.07731 22.4049 12.1225L 22.2146 12.1911C 22.0391 11.8651 21.8815 11.5296 21.7429 11.1861C 21.163 9.42325 21.1046 7.53036 21.5752 5.73523C 21.6551 5.43078 21.6551 5.11086 21.5752 4.80641C 21.1938 3.79586 20.7712 2.79121 20.3489 1.78731L 20.1745 1.37292C 20.0686 1.09896 19.9221 0.842372 19.7404 0.611621C 19.6281 0.438023 19.4764 0.29342 19.2976 0.189707C 19.1188 0.0860405 18.9177 0.0261455 18.7114 0.0149936C 18.5051 0.00388817 18.2988 0.0418047 18.11 0.12563C 17.9207 0.209501 17.7542 0.336912 17.6241 0.497453C 17.2892 0.832428 16.9085 1.19022 16.5279 1.50238C 15.9974 1.98117 15.3086 2.24621 14.5941 2.24621C 13.8797 2.24621 13.1905 1.98117 12.6604 1.50238C 12.3805 1.2832 12.1407 1.04975 11.9024 0.817745C 11.7515 0.671005 11.6017 0.524822 11.4422 0.383239C 11.3445 0.270326 11.2248 0.178323 11.0906 0.112759C 10.956 0.0471483 10.8099 0.00932473 10.6609 0.00151839C 10.5114 -0.00628794 10.3624 0.0160623 10.2218 0.0672682C 10.0813 0.118474 9.95271 0.197467 9.84342 0.299507C 9.49734 0.59085 9.21928 0.954681 9.02896 1.3653C 8.8167 1.85497 8.61336 2.35559 8.40928 2.8578C 8.23271 3.29249 8.05539 3.72839 7.87176 4.15932C 7.49817 5.03112 7.12235 5.90176 6.74616 6.77258C 6.15697 8.13753 5.5674 9.50294 4.98639 10.874C 4.6667 11.6277 4.75034 11.9779 5.42801 12.4347C 5.94768 12.7858 6.50416 13.0794 7.08778 13.3102C 9.09066 14.0493 11.2106 14.4206 13.3455 14.4065C 15.2614 14.4128 17.1762 14.3009 19.0783 14.0715C 20.6834 13.9341 22.2321 13.4118 23.5926 12.5489C 24.4606 11.9703 24.5825 11.6201 24.1331 10.6913C 24.077 10.6067 24.0383 10.5117 24.0194 10.4119C 24.0004 10.3122 24.0015 10.2096 24.0227 10.1103C 24.0439 10.0109 24.0851 9.91686 24.1431 9.8336C 24.2015 9.75038 24.2758 9.67961 24.3617 9.62547L 24.6301 9.4082C 25.8914 8.38994 27.2382 7.30235 27.4069 5.70976C 27.4753 5.12354 27.4069 3.8065 27.0263 2.66455L 25.4959 4.84447L 25.336 4.12889Z"/>
<path id="path1_fill" d="M 25.7702 18.4414C 27.2928 17.8704 28.7392 17.1472 29.257 15.3962L 29.2723 15.2591C 29.031 14.3947 28.5318 13.6244 27.8407 13.0514C 27.3501 12.7455 26.8415 12.4684 26.3181 12.2215C 26.2999 12.7515 26.1233 13.2638 25.8111 13.6925C 25.4992 14.1212 25.0658 14.4468 24.5673 14.6273C 23.5551 15.1003 22.4993 15.4751 21.4154 15.7464C 18.6244 16.3362 15.7662 16.5437 12.9195 16.363C 10.9073 16.3245 8.90777 16.0381 6.96585 15.5104L 6.75322 15.4455C 5.10423 14.9436 3.40468 14.4264 2.91585 12.2368C 2.3932 12.4931 1.88504 12.7778 1.39324 13.0894C 0.755356 13.5171 0.280656 14.1474 0.0457228 14.8785C 0.0163561 15.0418 0.00111519 15.2074 0 15.3734C 0.12453 15.7068 0.269504 16.0322 0.433809 16.3478C 0.931928 17.076 1.62967 17.6445 2.44375 17.9846C 5.42392 19.3116 8.65239 19.9889 11.9143 19.9716C 14.5332 20.063 17.1598 19.9183 19.7787 19.7585C 21.8336 19.6437 23.8565 19.1989 25.7702 18.4414Z"/>
</defs>
</svg>
