<svg width="36" height="21" viewBox="0 0 36 21" version="1.1" xmlns="http://www.w3.org/2000/svg" xmlns:xlink="http://www.w3.org/1999/xlink">
<title>helicopter</title>
<desc>Created using Figma</desc>
<g id="Canvas" transform="translate(6679 942)">
<g id="helicopter">
<use xlink:href="#path0_fill" transform="translate(-6679 -942)"/>
</g>
</g>
<defs>
<path id="path0_fill" fill-rule="evenodd" d="M 20.88 0C 21.6325 0 22.2506 0.194657 22.32 0.439794L 36 1.08C 36 1.08 29.4399 1.46423 21.6 1.44L 21.6 4.41735C 21.9212 4.39096 22.2446 4.40913 22.8565 4.41735C 23.436 4.56611 23.6397 4.98908 23.6397 4.98908L 24.094 5.62344C 25.0025 5.62344 25.7869 6.0464 25.7869 6.0464L 27.1497 6.98632C 28.4774 7.12361 29.7537 7.57345 30.8741 8.29911C 31.9946 9.02467 32.9271 10.0054 33.5955 11.1608C 35.7102 11.944 35.624 12.8604 35.624 12.8604C 34.7155 15.1552 31.3868 15.7269 31.3868 15.7269C 31.3868 15.7269 30.8715 15.9056 28.3747 16.078C 28.8107 16.9275 29.1647 17.8313 29.4211 18.7499C 30.3425 18.7479 31.1412 18.7385 31.7567 18.723C 32.1029 18.7142 32.3855 18.7038 32.6003 18.6915C 32.7256 18.6845 32.8398 18.6716 32.904 18.6643C 32.9477 18.6594 32.9684 18.6571 32.9541 18.6608C 32.9592 18.6597 32.9644 18.6586 32.9694 18.6576C 33.1178 18.6339 33.1885 18.5938 33.2849 18.4786C 33.3901 18.3713 33.4232 18.2972 33.4323 18.1472C 33.4564 17.907 33.6585 17.7242 33.8998 17.7242L 34.3855 17.7242C 34.5178 17.7242 34.644 17.78 34.733 17.8779C 34.8221 17.9757 34.8657 18.1067 34.8533 18.2385C 34.8097 18.6379 34.6188 19.0813 34.3585 19.3875C 34.0909 19.6847 33.6794 19.9319 33.2909 20.0291C 33.1511 20.0632 32.9043 20.0821 32.6268 20.0966C 32.3319 20.1119 31.9432 20.1241 31.4874 20.1335C 30.5775 20.1521 29.3783 20.16 28.0492 20.16C 23.276 20.16 16.7876 20.066 15.7068 20.0503C 15.5819 20.0485 15.463 19.9971 15.376 19.9075C 15.2892 19.8178 15.2416 19.6972 15.2437 19.5725L 15.2516 19.1104C 15.2559 18.854 15.465 18.6484 15.7214 18.6484C 16.4212 18.6484 17.2936 18.6614 18.2722 18.6761C 18.9662 18.6865 19.7136 18.6977 20.4906 18.7055C 20.229 17.8801 19.8861 17.095 19.4554 16.334C 19.4379 16.303 19.4243 16.2709 19.4144 16.2381C 18.5619 16.0888 18.5875 15.8495 17.6356 15.5214C 17.0579 15.3222 16.3853 15.0904 15.525 14.8262L 12.24 11.88L 3.81426 11.0355L 2.53761 14.0117L 1.32359 14.0117L 0.634355 13.6514L 1.30017 10.8006L 0 10.44L 1.33143 9.5552L 0.117502 5.5759L 0.47775 5.02769L 1.77792 5.02769L 3.96302 9.21847L 12.1169 8.28639L 16.0263 6.0464C 16.0263 6.0464 17.28 5.26319 19.0344 4.92646C 19.4084 4.85915 19.9135 4.73411 20.16 4.68L 20.16 1.46423C 12.24 1.46423 5.76 1.08 5.76 1.08L 19.44 0.439794C 19.4969 0.18414 20.118 0 20.88 0ZM 21.0957 16.3937C 21.4566 17.1403 21.7546 17.9242 21.9795 18.7192C 23.0806 18.721 24.2114 18.7303 25.3097 18.7394C 26.2214 18.747 27.1108 18.7544 27.9421 18.757C 27.6771 17.9106 27.3279 17.1056 26.8879 16.3256C 26.8614 16.2785 26.8438 16.2288 26.8347 16.1784C 24.8744 16.2984 22.772 16.395 21.0957 16.3937ZM 28.7199 8.61566C 29.8923 8.58842 32.1627 10.6382 32.5634 11.5713C 32.9567 12.5315 30.6565 12.5315 30.6565 12.5315C 30.6565 12.5315 28.7792 9.37154 28.7199 9.05154C 28.6835 8.90813 28.6835 8.75898 28.7199 8.61566ZM 27.2897 12.6724L 23.5146 12.8133L 22.6844 9.13223L 26.6005 9.20269C 27.0206 10.3132 27.2535 11.4856 27.2897 12.6724Z"/>
</defs>
</svg>
