<svg width="24" height="21" viewBox="0 0 24 21" version="1.1" xmlns="http://www.w3.org/2000/svg" xmlns:xlink="http://www.w3.org/1999/xlink">
<title>home</title>
<desc>Created using Figma</desc>
<g id="Canvas" transform="translate(6813 1082)">
<g id="home">
<use xlink:href="#path0_fill" transform="translate(-6812.29 -1081.59)"/>
</g>
</g>
<defs>
<path id="path0_fill" d="M 8.44774 19.8935C 9.00003 19.8935 9.44774 19.4458 9.44774 18.8935L 9.44774 15.355C 9.44774 14.8027 9.89546 14.355 10.4477 14.355L 12.14 14.355C 12.6923 14.355 13.14 14.8027 13.14 15.355L 13.14 18.8935C 13.14 19.4458 13.5878 19.8935 14.14 19.8935L 18.6016 19.8935C 19.1539 19.8935 19.6016 19.4458 19.6016 18.8935L 19.6016 11.5858L 22.0868 11.5858C 22.5322 11.5858 22.7553 11.0472 22.4403 10.7322L 12.001 0.292893C 11.6105 -0.0976314 10.9773 -0.0976307 10.5868 0.292894L 0.147449 10.7322C -0.167534 11.0472 0.0555505 11.5858 0.501003 11.5858L 2.9862 11.5858L 2.9862 18.8935C 2.9862 19.4458 3.43392 19.8935 3.9862 19.8935L 8.44774 19.8935Z"/>
</defs>
</svg>
