<svg width="21" height="20" viewBox="0 0 21 20" version="1.1" xmlns="http://www.w3.org/2000/svg" xmlns:xlink="http://www.w3.org/1999/xlink">
<title>hotel</title>
<desc>Created using Figma</desc>
<g id="Canvas" transform="translate(6741 942)">
<g id="hotel">
<use xlink:href="#path0_fill" transform="translate(-6741 -942)" fill="#202020"/>
</g>
</g>
<defs>
<path id="path0_fill" fill-rule="evenodd" d="M 1.77885 0C 0.796501 0 2.53285e-05 0.796475 2.53285e-05 1.77882L 0 17.9859C 0 18.9682 0.796475 19.7647 1.77882 19.7647L 4.94118 19.7647L 4.94118 16.0588L 9.88235 16.0588L 9.88235 19.7647L 19.2212 19.7647C 20.2035 19.7647 21 18.9682 21 17.9859L 21 6.72C 21 5.73765 20.2035 4.94118 19.2212 4.94118L 14.8235 4.94118L 14.8236 1.77882C 14.8236 0.796475 14.0271 0 13.0447 0L 1.77885 0ZM 6.1765 4.94118L 3.70591 4.94118L 3.70591 7.41176L 6.1765 7.41176L 6.1765 4.94118ZM 8.64709 4.94118L 11.1177 4.94118L 11.1177 7.41176L 8.64709 7.41176L 8.64709 4.94118ZM 3.70588 9.88235L 6.1765 9.88235L 6.1765 12.3529L 3.70591 12.3529L 3.70588 9.88235ZM 11.1177 9.88235L 8.6965 9.88235L 8.64706 12.3529L 11.1176 12.3529L 11.1177 9.88235ZM 17.2941 8.64706L 14.8235 8.64706L 14.8235 11.1176L 17.2941 11.1176L 17.2941 8.64706ZM 17.2941 13.5882L 14.8235 13.5882L 14.8235 16.0588L 17.2941 16.0588L 17.2941 13.5882Z"/>
</defs>
</svg>
