<svg width="24" height="28" viewBox="0 0 24 28" version="1.1" xmlns="http://www.w3.org/2000/svg" xmlns:xlink="http://www.w3.org/1999/xlink">
<title>house</title>
<desc>Created using Figma</desc>
<g id="Canvas" transform="translate(6673 317)">
<g id="house">
<use xlink:href="#path0_fill" transform="translate(-6673 -317)"/>
<use xlink:href="#path1_fill" transform="translate(-6673 -317)"/>
</g>
</g>
<defs>
<path id="path0_fill" d="M 18.3805 1.5776C 18.7382 1.21682 18.7382 0.631534 18.3805 0.270754C 18.0227 -0.0902515 17.4426 -0.0902515 17.0848 0.270754C 16.6838 0.675306 16.1886 1.40544 16.1313 2.29667C 16.0671 3.29463 16.5634 4.25152 17.7194 4.95119C 18.0894 5.17524 18.2127 5.37447 18.2521 5.47262C 18.2905 5.56806 18.2737 5.62221 18.2661 5.64004C 18.2435 5.69261 18.1618 5.79414 17.9778 5.895C 17.8862 5.94689 17.8324 5.96788 17.7494 5.9927C 17.7204 6.00172 17.7015 6.00601 17.6923 6.00804C 17.2051 6.02925 16.8165 6.43448 16.8165 6.93131C 16.8165 7.44168 17.2267 7.85549 17.7327 7.85549C 18.0706 7.85549 18.5001 7.71199 18.8516 7.51953C 19.222 7.31691 19.698 6.95636 19.9478 6.37423C 20.3854 5.35372 19.9459 4.14322 18.6621 3.36638C 17.9859 2.95709 17.9477 2.60466 17.9598 2.41648C 17.9788 2.12181 18.1707 1.78924 18.3805 1.5776Z"/>
<path id="path1_fill" d="M 19.8947 14.2211L 19.8947 10.6842C 19.8947 9.66685 19.07 8.8421 18.0526 8.8421L 17.8339 8.8421C 16.9373 8.8421 16.2105 9.56891 16.2105 10.4655L 13.1185 7.3883C 12.3878 6.63615 11.1827 6.65094 10.4703 7.4208L 0.372351 17.5376C -0.447578 18.4237 0.175334 19.8947 1.37697 19.8947L 2.94737 19.8947L 2.94737 25.2275C 2.94737 26.7587 4.17791 28 5.69587 28L 7.74661 28C 8.75858 28 9.57895 27.1725 9.57895 26.1516L 9.57895 22.1053C 9.57895 21.0845 10.292 19.8698 11.7776 19.8698C 13.2632 19.8698 14 21.0845 14 22.1053L 14 26.1516C 14 27.1725 14.8204 28 15.8323 28L 17.8831 28C 19.401 28 20.6316 26.7587 20.6316 25.2275L 20.6316 19.8947L 22.1053 19.8947C 23.4293 19.8947 24.0244 18.4312 23.2118 17.5432L 19.8947 14.2211Z"/>
</defs>
</svg>
