<svg width="14" height="18" viewBox="0 0 14 18" version="1.1" xmlns="http://www.w3.org/2000/svg" xmlns:xlink="http://www.w3.org/1999/xlink">
<title>lock</title>
<desc>Created using Figma</desc>
<g id="Canvas" transform="translate(6537 661)">
<g id="lock">
<use xlink:href="#path0_fill" transform="translate(-6537 -661)"/>
</g>
</g>
<defs>
<path id="path0_fill" d="M 11.4543 6.5455L 10.6362 6.5455L 10.6362 4.09084C 10.6362 1.83269 8.80348 0 6.54534 0C 4.2872 0 2.4545 1.83269 2.4545 4.09084L 2.4545 6.5455L 1.63633 6.5455C 0.736351 6.5455 0 7.28185 0 8.18183L 0 16.3637C 0 17.2636 0.736351 18 1.63633 18L 11.4543 18C 12.3543 18 13.0907 17.2636 13.0907 16.3637L 13.0907 8.18183C 13.0907 7.28185 12.3543 6.5455 11.4543 6.5455ZM 6.54534 14.0728C 5.64535 14.0728 4.909 13.3364 4.909 12.4365C 4.909 11.5365 5.64535 10.8001 6.54534 10.8001C 7.44532 10.8001 8.18167 11.5365 8.18167 12.4365C 8.18167 13.3364 7.44532 14.0728 6.54534 14.0728ZM 8.83621 6.5455L 4.25447 6.5455L 4.25447 4.09084C 4.25447 2.69177 5.14627 1.71799 6.54534 1.71799C 7.94441 1.71799 8.83621 2.69177 8.83621 4.09084L 8.83621 6.5455Z"/>
</defs>
</svg>
