<svg width="25" height="26" viewBox="0 0 25 26" version="1.1" xmlns="http://www.w3.org/2000/svg" xmlns:xlink="http://www.w3.org/1999/xlink">
<title>map</title>
<desc>Created using Figma</desc>
<g id="Canvas" transform="translate(6813 665)">
<g id="map">
<use xlink:href="#path0_fill" transform="translate(-6813 -665)"/>
<use xlink:href="#path1_fill" transform="translate(-6813 -665)"/>
</g>
</g>
<defs>
<path id="path0_fill" fill-rule="evenodd" d="M 17.2511 3.26672C 15.6886 3.26672 14.4176 4.53784 14.4176 6.1001C 14.4176 7.66235 15.6886 8.93335 17.2511 8.93335C 18.8131 8.93335 20.0841 7.66235 20.0841 6.1001C 20.0841 4.53784 18.8131 3.26672 17.2511 3.26672ZM 15.4176 6.1001C 15.4176 5.09009 16.2409 4.26672 17.2511 4.26672C 18.2609 4.26672 19.0841 5.09009 19.0841 6.1001C 19.0841 7.11011 18.2609 7.93335 17.2511 7.93335C 16.2409 7.93335 15.4176 7.11011 15.4176 6.1001Z"/>
<path id="path1_fill" fill-rule="evenodd" d="M 17.2501 0C 13.8849 0 11.15 2.7345 11.15 6.09998C 11.15 7.83557 12.0202 9.69104 13.047 11.2214L 12.2702 11.5524L 7.86341 9.08337L 7.83216 9.06384C 7.68714 8.98254 7.50843 8.97839 7.35902 9.05505L 2.2721 11.6638C 2.12855 11.7373 2.02943 11.8755 2.0055 12.0348L 0.00550305 25.4261C -0.0213524 25.6055 0.0514015 25.7852 0.194956 25.8959C 0.338511 26.0066 0.530405 26.031 0.696909 25.9596L 6.57972 23.4384L 12.0182 25.9484C 12.0851 25.9814 12.1603 26 12.2399 26C 12.3195 26 12.3947 25.9814 12.4616 25.9484L 17.8995 23.4385L 23.7819 25.9596C 23.9484 26.0309 24.1408 26.0066 24.2838 25.8961C 24.4274 25.7855 24.5001 25.6061 24.4738 25.4269L 22.4952 12.0356C 22.4752 11.8979 22.3981 11.775 22.2833 11.6964L 21.4967 11.1569C 22.5045 9.63904 23.3507 7.81116 23.3507 6.09998C 23.3507 2.7345 20.6159 0 17.2501 0ZM 17.3668 22.5829L 12.7399 24.7185L 12.7399 12.4391L 13.6432 12.0543C 14.2409 12.8381 14.8825 13.5332 15.4454 14.0315C 15.7457 14.2969 16.0509 14.5283 16.3165 14.688C 16.4552 14.7714 16.61 14.8556 16.7804 14.9155L 17.3668 22.5829ZM 11.7399 24.7186L 11.7399 12.4016L 8.02699 10.3197L 7.11146 22.5824L 11.7399 24.7186ZM 20.9191 11.973C 20.3038 12.79 19.6373 13.5161 19.0553 14.0315C 18.755 14.2969 18.4498 14.5283 18.1842 14.688C 18.0621 14.7612 17.9279 14.8352 17.7814 14.8927L 18.3673 22.5509L 23.3536 24.688L 21.5377 12.3976L 20.9191 11.973ZM 17.2506 14C 17.3287 14 17.4415 13.9673 17.6705 13.8297C 17.8097 13.7473 17.9537 13.6464 18.11 13.5216C 18.1998 13.45 18.2936 13.3706 18.3927 13.2825C 18.9454 12.7952 19.5543 12.1296 20.1471 11.3356C 20.2311 11.2239 20.3121 11.1128 20.3937 10.9972C 21.486 9.45605 22.3507 7.65613 22.3507 6.09998C 22.3507 3.30811 20.0983 1.03455 17.3141 1.00037L 17.2501 1L 17.1867 1.00037C 14.403 1.03455 12.15 3.30811 12.15 6.09998C 12.15 7.65613 13.0148 9.45605 14.1071 10.9972C 14.1886 11.1128 14.2697 11.2239 14.3536 11.3356C 14.9464 12.1296 15.5553 12.7952 16.108 13.2825C 16.2072 13.3706 16.3009 13.45 16.3908 13.5216C 16.547 13.6464 16.691 13.7473 16.8302 13.8297C 17.0592 13.9673 17.172 14 17.2506 14ZM 2.95667 12.4364L 1.12709 24.6874L 6.11097 22.5513L 7.0221 10.3517L 2.95667 12.4364Z"/>
</defs>
</svg>
