<svg width="24" height="24" viewBox="0 0 24 24" version="1.1" xmlns="http://www.w3.org/2000/svg" xmlns:xlink="http://www.w3.org/1999/xlink">
<title>offers</title>
<desc>Created using Figma</desc>
<g id="Canvas" transform="translate(6603 454)">
<g id="offers">
<use xlink:href="#path0_fill" transform="translate(-6603 -454)"/>
</g>
</g>
<defs>
<path id="path0_fill" fill-rule="evenodd" d="M 0.525872 10.9866C 0.575641 11.7865 0.915601 12.5406 1.48233 13.1073L 11.653 23.2777C 12.6159 24.2408 14.1772 24.2408 15.1405 23.2777L 23.2779 15.1404C 24.2408 14.1773 24.2408 12.6159 23.2779 11.6529L 13.1072 1.48242C 12.5405 0.915736 11.7867 0.575576 10.9868 0.525756L 2.61941 0.00487875C 1.13876 -0.0872854 -0.0874206 1.1389 0.00489422 2.61935L 0.525872 10.9866ZM 6.28913 6.28972C 7.00277 5.57634 7.00277 4.41979 6.28913 3.70641C 5.5759 2.99307 4.41915 2.99307 3.70592 3.70641C 2.99269 4.41979 2.99269 5.57634 3.70592 6.28972C 4.41915 7.00305 5.5759 7.00305 6.28913 6.28972Z"/>
</defs>
</svg>
