<svg width="30" height="20" viewBox="0 0 30 20" version="1.1" xmlns="http://www.w3.org/2000/svg" xmlns:xlink="http://www.w3.org/1999/xlink">
<title>pass</title>
<desc>Created using Figma</desc>
<g id="Canvas" transform="translate(6606 312)">
<g id="pass">
<use xlink:href="#path0_fill" transform="translate(-6606 -312)"/>
</g>
</g>
<defs>
<path id="path0_fill" d="M 3 0C 1.34315 0 0 1.34315 0 3L 0 17C 0 18.6569 1.34315 20 3 20L 26.6552 20C 28.312 20 29.6552 18.6569 29.6552 17L 29.6552 3C 29.6552 1.34315 28.312 0 26.6552 0L 3 0ZM 9.35114 11.1407C 9.55388 11.3744 9.71659 11.5642 9.83535 11.7063L 8.53123 12.5662L 7.38976 10.6797C 7.04628 11.2982 6.64599 11.9464 6.19794 12.6411L 4.91058 11.643C 5.32505 11.1846 5.74988 10.7508 6.19794 10.3259C 6.37357 10.1593 6.48718 10.0457 6.5298 10.0057C 6.39033 9.97857 5.98232 9.88686 5.30829 9.71901C 4.82277 9.59504 4.50257 9.51369 4.34891 9.45299L 4.86928 7.95002C 5.6143 8.2522 6.27546 8.59178 6.85131 8.95071C 6.7183 8.01844 6.64857 7.25917 6.64857 6.67296L 8.14896 6.67296C 8.14896 7.08743 8.0715 7.85059 7.9191 8.95975C 8.03529 8.91455 8.27551 8.80608 8.65125 8.62788C 9.16126 8.39544 9.63386 8.1979 10.0665 8.03389L 10.5197 9.58469C 9.88826 9.72416 9.15611 9.86489 8.32459 10.0017L 9.35114 11.1407ZM 16.8945 11.1446C 17.1011 11.3757 17.2625 11.5642 17.3813 11.7101L 16.0772 12.5701L 14.9344 10.6823C 14.5871 11.3008 14.1855 11.9465 13.74 12.6424L 12.4578 11.6469C 12.8697 11.1872 13.2958 10.7533 13.7426 10.3285C 13.9169 10.1619 14.0319 10.0509 14.0757 10.0057C 13.9337 9.97989 13.5269 9.88692 12.8542 9.71901C 12.3661 9.59636 12.0472 9.51369 11.8961 9.45299L 12.4139 7.9526C 13.1589 8.25603 13.8188 8.59436 14.3959 8.95328C 14.2603 8.02227 14.1958 7.26306 14.1958 6.67685L 15.6936 6.67685C 15.6936 7.09007 15.6174 7.85317 15.4651 8.96364C 15.5774 8.91712 15.8215 8.80872 16.1972 8.63177C 16.7086 8.39933 17.1798 8.20048 17.6111 8.0352L 18.0631 9.58726C 17.4329 9.72674 16.6983 9.86747 15.8718 10.0043L 16.8945 11.1446ZM 24.4405 11.1446C 24.6419 11.3757 24.8059 11.5642 24.9247 11.7101L 23.6206 12.5701L 22.4804 10.6823C 22.1318 11.3008 21.7367 11.9465 21.2847 12.6424L 20.0012 11.6469C 20.4093 11.1872 20.8354 10.7533 21.2847 10.3285C 21.4616 10.1646 21.5778 10.0509 21.6204 10.0083C 21.4797 9.98114 21.0678 9.88944 20.3976 9.72033C 19.9134 9.59636 19.5931 9.51375 19.4421 9.45305L 19.9611 7.95134C 20.7049 8.25477 21.366 8.59178 21.9406 8.95202C 21.8063 8.02102 21.7417 7.26181 21.7417 6.67559L 23.2396 6.67559C 23.2396 7.08881 23.1595 7.85191 23.0071 8.96238C 23.1233 8.91587 23.3622 8.80614 23.738 8.63051C 24.2493 8.39808 24.7219 8.19922 25.1532 8.03395L 25.6077 9.586C 24.9802 9.72416 24.2403 9.86621 23.4139 10.0018L 24.4405 11.1446Z"/>
</defs>
</svg>
