<svg width="15" height="19" viewBox="0 0 15 19" version="1.1" xmlns="http://www.w3.org/2000/svg" xmlns:xlink="http://www.w3.org/1999/xlink">
<title>pin</title>
<desc>Created using Figma</desc>
<g id="Canvas" transform="translate(6532 384)">
<g id="pin">
<use xlink:href="#path0_fill" transform="translate(-6532 -384)"/>
</g>
</g>
<defs>
<path id="path0_fill" d="M 7.15633 0C 3.21031 0 0 3.21031 0 7.15629C 0 12.0534 6.40422 18.4826 6.67688 18.7863C 6.93299 19.0715 7.38014 19.071 7.63578 18.7863C 7.90845 18.4826 14.3127 12.0534 14.3127 7.15629C 14.3126 3.21031 11.1023 0 7.15633 0ZM 7.15633 10.7568C 5.17099 10.7568 3.55584 9.14164 3.55584 7.15629C 3.55584 5.17095 5.17103 3.5558 7.15633 3.5558C 9.14164 3.5558 10.7568 5.17099 10.7568 7.15633C 10.7568 9.14167 9.14164 10.7568 7.15633 10.7568Z"/>
</defs>
</svg>
