<svg width="26" height="26" viewBox="0 0 26 26" version="1.1" xmlns="http://www.w3.org/2000/svg" xmlns:xlink="http://www.w3.org/1999/xlink">
<title>schedule</title>
<desc>Created using Figma</desc>
<g id="Canvas" transform="translate(6604 385)">
<g id="schedule">
<use xlink:href="#path0_fill" transform="translate(-6604 -385)"/>
<use xlink:href="#path1_fill" transform="translate(-6604 -385)"/>
</g>
</g>
<defs>
<path id="path0_fill" d="M 22.0992 2.5999L 23.3992 2.5999C 24.0492 2.5999 24.6992 3.24989 24.6992 3.89988L 24.6992 10.1397C 22.8795 8.70974 20.6693 7.79977 18.1993 7.79977C 12.4797 7.79977 7.79987 12.4797 7.79987 18.1995C 7.79987 20.0194 8.31995 21.8394 9.22976 23.3993L 1.29998 23.3993C 0.649989 23.3993 0 22.8793 0 22.0994L 0 3.89988C 0 3.11993 0.649989 2.5999 1.29998 2.5999L 3.89994 2.5999L 3.89994 1.29998C 3.89994 0.51997 4.42001 0 5.19992 0C 5.97982 0 6.49989 0.51997 6.49989 1.29998L 6.49989 2.5999L 19.4993 2.5999L 19.4993 1.29998C 19.4993 0.51997 20.0193 0 20.7992 0C 21.5796 0 22.0992 0.51997 22.0992 1.29998L 22.0992 2.5999Z"/>
<path id="path1_fill" fill-rule="evenodd" d="M 10.4003 18.1999C 10.4003 13.91 13.91 10.4001 18.2001 10.4001C 22.4898 10.4001 26 13.91 26 18.1999C 26 22.4898 22.4898 25.9997 18.2001 25.9997C 13.91 25.9997 10.4003 22.4898 10.4003 18.1999ZM 16.9001 18.1999C 16.9001 18.9799 17.4202 19.4999 18.2001 19.4999L 20.8001 19.4999C 21.58 19.4999 22.1001 18.9799 22.1001 18.1999C 22.1001 17.42 21.58 16.8999 20.8001 16.8999L 19.5001 16.8999L 19.5001 14.3C 19.5001 13.5201 18.98 13.0001 18.2001 13.0001C 17.4202 13.0001 16.9001 13.5201 16.9001 14.3L 16.9001 18.1999Z"/>
</defs>
</svg>
