<svg width="24" height="23" viewBox="0 0 24 23" version="1.1" xmlns="http://www.w3.org/2000/svg" xmlns:xlink="http://www.w3.org/1999/xlink">
<title>star</title>
<desc>Created using Figma</desc>
<g id="Canvas" transform="translate(6603 733)">
<g id="star">
<use xlink:href="#path0_fill" transform="translate(-6603 -733)"/>
</g>
</g>
<defs>
<path id="path0_fill" d="M 10.9514 0.542434C 11.4634 -0.180811 12.5366 -0.180811 13.0486 0.542434L 16.5853 5.53858C 16.7483 5.76885 16.9826 5.93906 17.252 6.02293L 23.0965 7.84269C 23.9426 8.10612 24.2742 9.12678 23.7446 9.8372L 20.0859 14.7447C 19.9172 14.9709 19.8278 15.2463 19.8312 15.5284L 19.9066 21.6493C 19.9175 22.5353 19.0493 23.1661 18.21 22.8819L 12.412 20.9188C 12.1448 20.8283 11.8552 20.8283 11.588 20.9188L 5.79003 22.8819C 4.95072 23.1661 4.08249 22.5353 4.0934 21.6493L 4.16877 15.5284C 4.17224 15.2463 4.08276 14.9709 3.91413 14.7447L 0.255428 9.8372C -0.274207 9.12678 0.057426 8.10612 0.903484 7.84269L 6.74802 6.02293C 7.01739 5.93906 7.25166 5.76885 7.41467 5.53858L 10.9514 0.542434Z"/>
</defs>
</svg>
