<svg width="20" height="20" viewBox="0 0 20 20" version="1.1" xmlns="http://www.w3.org/2000/svg" xmlns:xlink="http://www.w3.org/1999/xlink">
<title>stroke-star-light</title>
<desc>Created using Figma</desc>
<g id="Canvas" transform="translate(6540 732)">
<g id="stroke-star-light">
<use xlink:href="#path0_fill" transform="translate(-6540 -732)"/>
</g>
</g>
<defs>
<path id="path0_fill" fill-rule="evenodd" d="M 10 2.4939L 7.73221 5.69747C 7.39331 6.13239 6.69212 6.64183 6.17376 6.82975L 2.4262 7.99659L 4.77219 11.1433C 5.0811 11.6001 5.34893 12.4243 5.36746 12.9754L 5.31914 16.9001L 9.03682 15.6414C 9.56664 15.4887 10.4334 15.4887 10.9632 15.6414L 14.6809 16.9001L 14.6325 12.9754C 14.6511 12.4243 14.9189 11.6001 15.2278 11.1433L 17.5738 7.99659L 13.8262 6.82975C 13.3079 6.64183 12.6067 6.13239 12.2678 5.69747L 10 2.4939ZM 10.8966 0.463835C 10.4588 -0.154612 9.54116 -0.154612 9.10336 0.463835L 6.17756 4.59693C 6.03817 4.79384 5.83784 4.93938 5.6075 5.0111L 0.772569 6.51651C 0.0491052 6.74177 -0.234475 7.61454 0.218417 8.22202L 3.2451 12.2818C 3.3893 12.4752 3.46582 12.7107 3.46285 12.952L 3.4005 18.0154C 3.39117 18.7731 4.13359 19.3125 4.85129 19.0695L 9.64769 17.4455C 9.87619 17.3681 10.1238 17.3681 10.3523 17.4455L 15.1487 19.0695C 15.8664 19.3125 16.6088 18.7731 16.5995 18.0154L 16.5372 12.952C 16.5342 12.7107 16.6107 12.4752 16.7549 12.2818L 19.7816 8.22202C 20.2345 7.61454 19.9509 6.74177 19.2274 6.51651L 14.3925 5.0111C 14.1622 4.93938 13.9618 4.79384 13.8224 4.59693L 10.8966 0.463835Z"/>
</defs>
</svg>
