<svg width="20" height="19" viewBox="0 0 20 19" version="1.1" xmlns="http://www.w3.org/2000/svg" xmlns:xlink="http://www.w3.org/1999/xlink">
<title>stroke-star-bold</title>
<desc>Created using Figma</desc>
<g id="Canvas" transform="translate(6541 798)">
<g id="stroke-star-bold">
<use xlink:href="#path0_fill" transform="translate(-6541 -798)"/>
</g>
</g>
<defs>
<path id="path0_fill" fill-rule="evenodd" d="M 10 4.37169L 8.62061 6.30719C 8.16577 6.87667 7.17648 7.591 6.49389 7.84352L 4.24809 8.53808L 5.64445 10.3985C 6.05028 11.0061 6.43128 12.1715 6.46262 12.9022L 6.43358 15.2442L 8.69138 14.4849C 9.39168 14.2909 10.6083 14.2909 11.3086 14.4849L 13.5664 15.2442L 13.5374 12.9022C 13.5687 12.1715 13.9497 11.0061 14.3555 10.3985L 15.7519 8.53808L 13.5061 7.84352C 12.8235 7.591 11.8342 6.87667 11.3794 6.30719L 10 4.37169ZM 10.8966 0.460721C 10.4588 -0.153574 9.54116 -0.153573 9.10336 0.460721L 6.17756 4.56607C 6.03817 4.76165 5.83784 4.90622 5.6075 4.97746L 0.772569 6.47276C 0.0491051 6.6965 -0.234475 7.56341 0.218417 8.16681L 3.2451 12.1994C 3.3893 12.3915 3.46582 12.6254 3.46285 12.865L 3.4005 17.8945C 3.39117 18.6471 4.13359 19.1828 4.85129 18.9415L 9.64769 17.3284C 9.87619 17.2515 10.1238 17.2515 10.3523 17.3284L 15.1487 18.9415C 15.8664 19.1828 16.6088 18.6471 16.5995 17.8945L 16.5372 12.865C 16.5342 12.6254 16.6107 12.3915 16.7549 12.1994L 19.7816 8.16681C 20.2345 7.56341 19.9509 6.6965 19.2274 6.47276L 14.3925 4.97746C 14.1622 4.90622 13.9618 4.76165 13.8224 4.56607L 10.8966 0.460721Z"/>
</defs>
</svg>
