<svg width="20" height="20" viewBox="0 0 20 20" version="1.1" xmlns="http://www.w3.org/2000/svg" xmlns:xlink="http://www.w3.org/1999/xlink">
<title>text</title>
<desc>Created using Figma</desc>
<g id="Canvas" transform="translate(6811 872)">
<g id="text">
<use xlink:href="#path0_fill" transform="translate(-6811 -872)"/>
</g>
</g>
<defs>
<path id="path0_fill" fill-rule="evenodd" d="M 3 0C 1.34326 0 0 1.34314 0 3L 0 17C 0 18.6569 1.34326 20 3 20L 17 20C 18.6567 20 20 18.6569 20 17L 20 3C 20 1.34314 18.6567 0 17 0L 3 0ZM 6 4.99988C 5.44775 4.99988 5 5.44763 5 5.99988C 5 6.55212 5.44775 6.99988 6 6.99988L 14 6.99988C 14.5522 6.99988 15 6.55212 15 5.99988C 15 5.44763 14.5522 4.99988 14 4.99988L 6 4.99988ZM 6 8.99988C 5.44775 8.99988 5 9.44763 5 9.99988C 5 10.5521 5.44775 10.9999 6 10.9999L 14 10.9999C 14.5522 10.9999 15 10.5521 15 9.99988C 15 9.44763 14.5522 8.99988 14 8.99988L 6 8.99988ZM 5 13.9999C 5 13.4476 5.44775 12.9999 6 12.9999L 10 12.9999C 10.5522 12.9999 11 13.4476 11 13.9999C 11 14.5521 10.5522 14.9999 10 14.9999L 6 14.9999C 5.44775 14.9999 5 14.5521 5 13.9999Z"/>
</defs>
</svg>
