<svg width="25" height="21" viewBox="0 0 25 21" version="1.1" xmlns="http://www.w3.org/2000/svg" xmlns:xlink="http://www.w3.org/1999/xlink">
<title>tickets</title>
<desc>Created using Figma</desc>
<g id="Canvas" transform="translate(6814 521)">
<g id="tickets">
<use xlink:href="#path0_fill" transform="translate(-6814 -521)"/>
</g>
</g>
<defs>
<path id="path0_fill" fill-rule="evenodd" d="M 3 0.5C 3 0.223858 3.22386 0 3.5 0L 24.5 0C 24.6659 0 24.821 0.0822994 24.914 0.219686C 25.007 0.357072 25.0259 0.53165 24.9642 0.685695L 24.0476 2.97722L 24.9472 4.77639C 25.0275 4.93688 25.0156 5.12806 24.916 5.27735L 24.077 6.53592L 24.9472 8.27639C 25.0275 8.43688 25.0156 8.62806 24.916 8.77735L 24.0619 10.0585L 24.9642 12.3143C 25.0259 12.4684 25.007 12.6429 24.914 12.7803C 24.821 12.9177 24.6659 13 24.5 13L 21.809 13L 21.077 14.4641L 21.916 15.7226C 22.0156 15.8719 22.0275 16.0631 21.9472 16.2236L 21.0476 18.0228L 21.9642 20.3143C 22.0259 20.4683 22.007 20.6429 21.914 20.7803C 21.821 20.9177 21.6659 21 21.5 21L 0.5 21C 0.223858 21 0 20.7761 0 20.5L 0 8.5C 0 8.22386 0.223858 8 0.5 8L 3 8L 3 0.5ZM 4 8L 21 8C 21.154 8 21.2993 8.07094 21.3941 8.19229C 21.4889 8.31365 21.5224 8.4719 21.4851 8.62127L 21.0299 10.4418L 21.809 12L 23.7615 12L 23.0358 10.1857C 22.9746 10.0328 22.9926 9.85965 23.084 9.72265L 23.923 8.46408L 23.0528 6.72361C 22.9725 6.56312 22.9844 6.37194 23.084 6.22265L 23.923 4.96408L 23.0528 3.22361C 22.9889 3.09587 22.9827 2.94691 23.0358 2.8143L 23.7615 1L 4 1L 4 8ZM 20.941 12.5L 20.0528 10.7236C 19.9994 10.6169 19.986 10.4945 20.0149 10.3787L 20.3596 9L 1 9L 1 20L 20.7615 20L 20.0358 18.1857C 19.9827 18.0531 19.9889 17.9041 20.0528 17.7764L 20.923 16.0359L 20.084 14.7774C 19.9844 14.6281 19.9725 14.4369 20.0528 14.2764L 20.941 12.5ZM 7 4.5C 7 4.22386 7.22386 4 7.5 4L 14.5 4C 14.7761 4 15 4.22386 15 4.5C 15 4.77614 14.7761 5 14.5 5L 7.5 5C 7.22386 5 7 4.77614 7 4.5ZM 7 6.5C 7 6.22386 7.22386 6 7.5 6L 14.5 6C 14.7761 6 15 6.22386 15 6.5C 15 6.77614 14.7761 7 14.5 7L 7.5 7C 7.22386 7 7 6.77614 7 6.5ZM 4 12.5C 4 12.2239 4.22386 12 4.5 12L 11.5 12C 11.7761 12 12 12.2239 12 12.5C 12 12.7761 11.7761 13 11.5 13L 4.5 13C 4.22386 13 4 12.7761 4 12.5ZM 4 14.5C 4 14.2239 4.22386 14 4.5 14L 11.5 14C 11.7761 14 12 14.2239 12 14.5C 12 14.7761 11.7761 15 11.5 15L 4.5 15C 4.22386 15 4 14.7761 4 14.5ZM 4 16.5C 4 16.2239 4.22386 16 4.5 16L 11.5 16C 11.7761 16 12 16.2239 12 16.5C 12 16.7761 11.7761 17 11.5 17L 4.5 17C 4.22386 17 4 16.7761 4 16.5Z"/>
</defs>
</svg>
