<svg width="20" height="20" viewBox="0 0 20 20" version="1.1" xmlns="http://www.w3.org/2000/svg" xmlns:xlink="http://www.w3.org/1999/xlink">
<title>times</title>
<desc>Created using Figma</desc>
<g id="Canvas" transform="translate(6540 1012)">
<g id="times">
<use xlink:href="#path0_fill" transform="translate(-6540 -1012)"/>
</g>
</g>
<defs>
<path id="path0_fill" d="M 9.99821 0C 4.47631 0 0 4.47774 0 10.0004C 0 15.5223 4.47631 20 9.99821 20C 15.523 20 20 15.5215 20 10.0004C 20 4.47774 15.523 0 9.99821 0ZM 14.2979 12.708L 12.7052 14.2986C 12.7052 14.2986 10.1856 11.5952 9.9975 11.5952C 9.81227 11.5952 7.29197 14.2986 7.29197 14.2986L 5.69855 12.708C 5.69855 12.708 8.40479 10.2249 8.40479 10.0039C 8.40479 9.77937 5.69855 7.29555 5.69855 7.29555L 7.29197 5.70141C 7.29197 5.70141 9.83301 8.40622 9.9975 8.40622C 10.1634 8.40622 12.7052 5.70141 12.7052 5.70141L 14.2979 7.29555C 14.2979 7.29555 11.5909 9.81513 11.5909 10.0039C 11.5909 10.1834 14.2979 12.708 14.2979 12.708Z"/>
</defs>
</svg>
