<svg width="32" height="18" viewBox="0 0 32 18" version="1.1" xmlns="http://www.w3.org/2000/svg" xmlns:xlink="http://www.w3.org/1999/xlink">
<title>truck</title>
<desc>Created using Figma</desc>
<g id="Canvas" transform="translate(6817 588)">
<g id="truck">
<use xlink:href="#path0_fill" transform="translate(-6817 -588)"/>
</g>
</g>
<defs>
<path id="path0_fill" fill-rule="evenodd" d="M 2.5 1C 1.67157 1 1 1.67157 1 2.5L 1 6L 23.1036 6C 22.2875 3.98613 21.4462 2.81603 19.6272 1L 2.5 1ZM 21.0193 1C 22.5639 2.64689 23.3856 3.95473 24.1947 6.04402C 26.5493 6.37163 28.0465 6.86623 29.6618 7.81289C 28.4839 5.3945 27.3267 3.81618 25.2728 1.8784C 24.6665 1.30515 23.8464 1 22.9916 1L 21.0193 1ZM 30.3995 9.47376C 28.2296 7.96965 26.8099 7.38327 23.8017 7L 1 7L 1 12.5C 1 13.3284 1.67157 14 2.5 14L 4.70592 14C 4.94564 12.4887 6.25457 11.3333 7.83333 11.3333C 9.4121 11.3333 10.721 12.4887 10.9607 14L 22.0393 14C 22.279 12.4887 23.5879 11.3333 25.1667 11.3333C 26.7454 11.3333 28.0544 12.4887 28.2941 14L 29.4091 14C 30.2726 14 30.955 13.2805 30.8941 12.4482C 30.8205 11.4374 30.7001 10.5799 30.3995 9.47376ZM 28.2941 15L 29.4091 15C 30.8244 15 31.9968 13.8158 31.8915 12.3753C 31.8109 11.2772 31.6658 10.2849 31.3147 9.03141C 31.3085 9.00923 31.3007 8.98751 31.2915 8.96641C 29.7894 5.53422 28.5036 3.56152 25.9598 1.15175C 25.1533 0.389181 24.0811 0 22.9916 0L 2.5 0C 1.11929 0 0 1.11929 0 2.5L 0 12.5C 0 13.8807 1.11929 15 2.5 15L 4.70592 15C 4.94564 16.5113 6.25457 17.6667 7.83333 17.6667C 9.4121 17.6667 10.721 16.5113 10.9607 15L 22.0393 15C 22.279 16.5113 23.5879 17.6667 25.1667 17.6667C 26.7454 17.6667 28.0544 16.5113 28.2941 15ZM 7.83333 12.3333C 6.63672 12.3333 5.66667 13.3034 5.66667 14.5C 5.66667 15.6966 6.63672 16.6667 7.83333 16.6667C 9.02995 16.6667 10 15.6966 10 14.5C 10 13.3034 9.02995 12.3333 7.83333 12.3333ZM 25.1667 12.3333C 23.97 12.3333 23 13.3034 23 14.5C 23 15.6966 23.97 16.6667 25.1667 16.6667C 26.3633 16.6667 27.3333 15.6966 27.3333 14.5C 27.3333 13.3034 26.3633 12.3333 25.1667 12.3333Z"/>
</defs>
</svg>
