<svg width="24" height="16" viewBox="0 0 24 16" version="1.1" xmlns="http://www.w3.org/2000/svg" xmlns:xlink="http://www.w3.org/1999/xlink">
<title>users</title>
<desc>Created using Figma</desc>
<g id="Canvas" transform="translate(6743 1010)">
<g id="users">
<use xlink:href="#path0_fill" transform="translate(-6743 -1010)" fill="#202020"/>
</g>
</g>
<defs>
<path id="path0_fill" d="M 16.3636 6.60504C 18.1745 6.60504 19.6255 5.12991 19.6255 3.30252C 19.6255 1.47513 18.1745 0 16.3636 0C 14.5527 0 13.0909 1.47513 13.0909 3.30252C 13.0909 5.12991 14.5527 6.60504 16.3636 6.60504ZM 7.63636 6.60504C 9.44727 6.60504 10.8982 5.12991 10.8982 3.30252C 10.8982 1.47513 9.44727 0 7.63636 0C 5.82545 0 4.36364 1.47513 4.36364 3.30252C 4.36364 5.12991 5.82545 6.60504 7.63636 6.60504ZM 7.63636 8.80672C 5.09455 8.80672 0 10.0947 0 12.6597L 0 15.4118L 15.2727 15.4118L 15.2727 12.6597C 15.2727 10.0947 10.1782 8.80672 7.63636 8.80672ZM 16.3636 8.80672C 16.0473 8.80672 15.6873 8.82873 15.3055 8.86176C 16.5709 9.78646 17.4545 11.0304 17.4545 12.6597L 17.4545 15.4118L 24 15.4118L 24 12.6597C 24 10.0947 18.9055 8.80672 16.3636 8.80672Z"/>
</defs>
</svg>
